{"glyphs":{"0":{"ha":708,"x_min":49,"x_max":669,"o":"m 297 -17 q 193 4 239 -17 q 115 63 147 25 q 66 156 83 101 q 49 275 49 210 q 78 444 49 367 q 158 579 107 522 q 277 669 210 636 q 422 701 344 701 q 525 681 479 701 q 603 622 571 660 q 652 530 635 583 q 669 413 669 476 q 640 244 669 322 q 560 108 611 165 q 442 17 510 50 q 297 -17 374 -17 m 333 89 q 434 109 388 89 q 515 165 481 129 q 568 250 549 200 q 588 361 588 300 q 531 526 588 463 q 381 589 475 589 q 279 569 325 589 q 200 512 233 549 q 148 424 167 475 q 129 313 129 374 q 184 151 129 213 q 333 89 239 89 z "},"1":{"ha":472,"x_min":25,"x_max":394,"o":"m 326 561 q 304 422 315 493 q 285 288 293 350 q 271 182 276 226 q 265 124 265 138 q 278 74 265 88 q 322 61 290 61 q 346 61 333 61 q 369 63 358 61 q 393 65 382 64 l 394 60 l 375 -4 q 311 -3 343 -4 q 252 -1 283 -1 q 197 0 221 0 q 141 -3 171 0 q 85 -8 111 -6 q 25 -17 54 -12 l 40 47 q 102 58 78 50 q 142 84 126 67 q 165 131 157 101 q 179 206 174 160 l 218 522 q 208 588 225 575 q 157 601 190 601 q 133 600 146 601 q 110 597 121 599 q 85 593 96 594 l 82 597 l 94 656 q 108 657 94 656 q 144 662 122 658 q 192 669 165 665 q 244 676 218 672 q 322 690 294 685 q 364 697 350 694 q 381 701 378 700 q 385 701 383 701 l 390 678 q 365 656 375 667 q 349 632 356 644 q 336 602 342 619 q 326 561 331 585 z "},"2":{"ha":633,"x_min":-1,"x_max":594,"o":"m -1 8 l 118 131 q 317 365 253 268 q 382 524 382 461 q 359 586 382 564 q 294 608 336 608 q 201 575 250 608 q 117 485 153 542 l 104 485 l 96 547 q 146 609 117 581 q 208 658 175 638 q 276 690 242 678 q 343 701 311 701 q 463 662 418 701 q 508 554 508 622 q 494 484 508 521 q 442 396 479 447 q 339 272 404 344 q 171 94 274 200 l 175 85 l 374 85 q 435 90 410 85 q 478 108 460 94 q 509 147 496 122 q 538 211 522 171 l 594 218 l 571 147 q 549 76 560 115 q 529 0 538 38 l 513 -10 q 342 -6 424 -8 q 270 -3 307 -4 q 199 -2 233 -3 q 134 -1 164 -1 q 83 0 104 0 l 8 -17 l -1 8 z "},"3":{"ha":556,"x_min":-24,"x_max":475,"o":"m -10 -36 q 96 -49 44 -49 q 195 -33 149 -49 q 277 9 242 -18 q 333 73 313 36 q 353 151 353 110 q 133 276 353 275 l 126 283 l 126 332 l 215 354 q 270 388 244 368 q 315 430 296 407 q 344 478 333 453 q 356 528 356 503 q 330 590 356 567 q 264 614 304 614 q 183 594 226 614 q 104 543 139 575 l 90 543 l 83 601 q 108 617 85 601 q 165 651 131 632 q 240 685 199 669 q 318 701 281 701 q 433 664 390 701 q 475 564 475 626 q 428 444 475 501 q 303 349 381 388 l 301 342 q 463 186 463 301 q 424 70 463 129 q 326 -37 386 11 q 195 -115 267 -85 q 56 -146 124 -146 q -7 -122 10 -146 q -18 -44 -24 -99 l -10 -36 z "},"4":{"ha":599,"x_min":-17,"x_max":547,"o":"m -17 124 q -11 149 -14 136 q -6 175 -8 163 l 426 700 q 429 701 428 700 q 432 701 431 701 l 476 688 l 417 199 l 540 199 l 547 188 l 526 111 q 493 113 511 111 q 456 113 478 113 q 407 115 433 114 q 399 31 401 72 q 393 -44 396 -11 q 388 -119 390 -83 l 379 -129 l 279 -146 l 272 -133 q 286 -49 279 -93 q 299 33 293 -12 q 311 118 304 78 q 147 122 233 121 q -17 124 61 124 m 97 199 l 321 199 l 360 510 l 347 510 l 97 199 z "},"5":{"ha":574,"x_min":-29,"x_max":561,"o":"m 471 196 q 428 68 471 129 q 323 -41 386 7 q 186 -117 260 -89 q 49 -146 113 -146 q -10 -126 10 -146 q -24 -44 -29 -106 l -15 -36 q 92 -49 39 -49 q 196 -34 147 -49 q 281 7 244 -19 q 338 70 317 33 q 360 151 360 107 q 347 206 360 182 q 303 249 333 229 q 223 283 272 268 q 103 311 174 299 l 93 326 q 117 449 106 389 q 138 557 128 508 q 157 665 147 613 l 169 676 l 424 688 q 481 700 463 690 q 514 742 499 710 l 561 747 l 508 583 l 499 575 q 413 581 458 578 q 320 585 372 583 q 210 586 268 586 l 179 407 q 294 376 242 394 q 387 333 347 358 q 449 274 426 308 q 471 196 471 240 z "},"6":{"ha":607,"x_min":46,"x_max":579,"o":"m 579 782 q 424 697 497 750 q 295 581 360 653 q 192 408 231 510 l 196 406 q 215 417 196 406 q 259 442 233 428 q 310 467 285 456 q 351 478 336 478 q 442 460 403 478 q 506 413 481 442 q 543 347 531 383 q 556 272 556 310 q 533 163 556 215 q 469 70 510 110 q 373 7 428 31 q 254 -17 318 -17 q 165 2 204 -17 q 100 54 126 21 q 60 133 74 88 q 46 232 46 179 q 68 385 46 315 q 126 513 90 456 q 208 617 163 571 q 303 699 254 663 q 561 831 417 781 l 569 824 l 579 782 m 311 396 q 267 390 289 396 q 227 376 246 385 q 194 359 208 368 q 171 344 179 350 q 160 289 164 314 q 156 238 156 264 q 190 101 156 151 q 289 50 224 50 q 404 101 360 50 q 449 236 449 153 q 439 297 449 268 q 412 348 429 326 q 369 383 394 369 q 311 396 343 396 z "},"7":{"ha":561,"x_min":67,"x_max":600,"o":"m 163 -146 l 83 -121 l 74 -90 l 488 590 l 260 581 q 203 572 225 579 q 167 551 182 565 q 142 513 153 536 q 121 451 132 489 l 67 443 q 86 524 76 482 q 104 601 94 560 q 121 683 114 643 l 131 690 q 181 688 154 689 q 232 685 204 686 q 292 685 260 685 l 574 685 l 600 646 q 364 235 456 403 q 221 -26 272 67 l 172 -146 l 163 -146 z "},"8":{"ha":647,"x_min":56,"x_max":592,"o":"m 56 153 q 77 247 56 206 q 130 318 99 288 q 196 369 161 349 q 256 401 231 389 q 169 474 206 432 q 132 583 132 517 q 153 675 132 631 q 210 754 174 719 q 297 810 247 789 q 403 831 346 831 q 473 820 439 831 q 533 790 507 810 q 576 738 560 769 q 592 665 592 707 q 576 585 592 621 q 536 522 560 549 q 485 475 513 494 q 433 443 457 456 q 484 408 460 426 q 527 366 508 389 q 557 315 546 343 q 568 251 568 286 q 544 149 568 197 q 478 63 519 100 q 381 5 436 26 q 263 -17 325 -17 q 183 -6 221 -17 q 117 27 144 6 q 72 80 89 49 q 56 153 56 111 m 301 43 q 362 56 332 43 q 415 90 392 68 q 453 140 439 111 q 467 204 467 169 q 452 260 467 236 q 415 305 438 285 q 362 342 392 325 q 301 376 332 360 q 258 354 282 368 q 212 317 233 340 q 175 263 190 294 q 160 189 160 232 q 169 133 160 160 q 198 87 179 107 q 243 55 217 67 q 301 43 269 43 m 235 633 q 248 581 235 604 q 282 539 261 558 q 330 502 303 519 q 386 468 357 485 q 420 492 403 478 q 452 526 438 506 q 476 575 467 547 q 485 639 485 603 q 453 734 485 701 q 372 767 421 767 q 317 756 342 767 q 274 726 292 744 q 245 683 256 707 q 235 633 235 658 z "},"9":{"ha":607,"x_min":36,"x_max":571,"o":"m 36 -97 q 192 -12 117 -65 q 320 102 256 32 q 424 275 385 172 l 419 279 q 357 243 386 258 q 306 218 332 229 q 265 207 281 207 q 174 225 213 207 q 111 272 136 243 q 74 338 86 301 q 61 413 61 375 q 84 522 61 469 q 147 615 107 575 q 242 678 188 654 q 363 701 297 701 q 451 683 413 701 q 517 631 490 664 q 557 551 543 597 q 571 453 571 506 q 549 299 571 369 q 490 170 526 228 q 408 67 454 113 q 313 -14 361 21 q 56 -146 199 -97 l 47 -139 l 36 -97 m 306 289 q 349 294 328 289 q 388 308 369 300 q 422 326 407 317 q 446 340 438 335 q 456 399 453 372 q 460 446 460 426 q 426 583 460 532 q 328 635 392 635 q 213 583 257 635 q 168 446 168 532 q 204 335 168 382 q 306 289 240 289 z "}," ":{"ha":267,"x_min":0,"x_max":0,"o":""},"Ă":{"ha":775,"x_min":-62,"x_max":753,"o":"m 633 154 q 668 81 643 101 q 750 54 693 60 l 753 50 l 738 -4 q 683 -3 708 -4 q 638 -1 661 -1 q 597 0 614 0 q 523 -2 558 0 q 460 -7 488 -4 q 399 -14 426 -11 l 396 -4 l 407 46 q 509 65 483 51 q 535 115 535 79 q 533 140 535 126 q 529 168 532 154 l 504 325 q 474 326 492 325 q 436 326 456 326 q 398 326 417 326 q 365 326 379 326 q 283 322 325 326 q 217 315 242 318 l 149 165 q 129 101 129 125 q 203 51 129 51 l 281 51 l 281 47 l 267 -10 q 208 -6 239 -8 q 149 -1 182 -3 q 83 0 117 0 q 35 -1 60 0 q -12 -3 10 -1 q -62 -4 -37 -4 l -44 58 q -10 66 -25 60 q 19 85 6 72 q 47 117 33 97 q 75 167 60 136 l 419 876 l 497 900 l 508 901 q 547 649 526 778 q 588 406 565 538 q 633 154 610 275 m 249 376 l 367 376 q 432 379 394 376 q 493 385 469 382 l 432 756 l 422 756 l 249 376 m 490 1067 q 570 1084 533 1067 q 628 1136 607 1101 l 639 1136 l 660 1122 q 633 1072 649 1097 q 594 1028 617 1047 q 544 998 572 1010 q 481 986 515 986 q 420 998 446 986 q 377 1028 394 1010 q 349 1072 360 1047 q 335 1122 339 1097 l 360 1136 l 371 1136 q 416 1084 383 1101 q 490 1067 449 1067 z "},"Â":{"ha":775,"x_min":-62,"x_max":753,"o":"m 633 154 q 668 81 643 101 q 750 54 693 60 l 753 50 l 738 -4 q 683 -3 708 -4 q 638 -1 661 -1 q 597 0 614 0 q 523 -2 558 0 q 460 -7 488 -4 q 399 -14 426 -11 l 396 -4 l 407 46 q 509 65 483 51 q 535 115 535 79 q 533 140 535 126 q 529 168 532 154 l 504 325 q 474 326 492 325 q 436 326 456 326 q 398 326 417 326 q 365 326 379 326 q 283 322 325 326 q 217 315 242 318 l 149 165 q 129 101 129 125 q 203 51 129 51 l 281 51 l 281 47 l 267 -10 q 208 -6 239 -8 q 149 -1 182 -3 q 83 0 117 0 q 35 -1 60 0 q -12 -3 10 -1 q -62 -4 -37 -4 l -44 58 q -10 66 -25 60 q 19 85 6 72 q 47 117 33 97 q 75 167 60 136 l 419 876 l 497 900 l 508 901 q 547 649 526 778 q 588 406 565 538 q 633 154 610 275 m 249 376 l 367 376 q 432 379 394 376 q 493 385 469 382 l 432 756 l 422 756 l 249 376 m 292 1021 l 496 1175 l 515 1175 l 682 1021 l 658 990 l 646 989 l 493 1079 l 319 989 l 307 990 l 292 1021 z "},"Ä":{"ha":775,"x_min":-62,"x_max":753,"o":"m 633 154 q 668 81 643 101 q 750 54 693 60 l 753 50 l 738 -4 q 683 -3 708 -4 q 638 -1 661 -1 q 597 0 614 0 q 523 -2 558 0 q 460 -7 488 -4 q 399 -14 426 -11 l 396 -4 l 407 46 q 509 65 483 51 q 535 115 535 79 q 533 140 535 126 q 529 168 532 154 l 504 325 q 474 326 492 325 q 436 326 456 326 q 398 326 417 326 q 365 326 379 326 q 283 322 325 326 q 217 315 242 318 l 149 165 q 129 101 129 125 q 203 51 129 51 l 281 51 l 281 47 l 267 -10 q 208 -6 239 -8 q 149 -1 182 -3 q 83 0 117 0 q 35 -1 60 0 q -12 -3 10 -1 q -62 -4 -37 -4 l -44 58 q -10 66 -25 60 q 19 85 6 72 q 47 117 33 97 q 75 167 60 136 l 419 876 l 497 900 l 508 901 q 547 649 526 778 q 588 406 565 538 q 633 154 610 275 m 249 376 l 367 376 q 432 379 394 376 q 493 385 469 382 l 432 756 l 422 756 l 249 376 m 589 1007 q 552 1024 564 1007 q 540 1060 540 1040 q 563 1113 540 1090 q 617 1136 585 1136 q 654 1120 642 1136 q 667 1083 667 1104 q 644 1030 667 1053 q 589 1007 621 1007 m 367 1007 q 330 1024 342 1007 q 318 1060 318 1040 q 340 1113 318 1090 q 394 1136 363 1136 q 432 1120 419 1136 q 444 1083 444 1104 q 422 1030 444 1053 q 367 1007 399 1007 z "},"À":{"ha":775,"x_min":-62,"x_max":753,"o":"m 633 154 q 668 81 643 101 q 750 54 693 60 l 753 50 l 738 -4 q 683 -3 708 -4 q 638 -1 661 -1 q 597 0 614 0 q 523 -2 558 0 q 460 -7 488 -4 q 399 -14 426 -11 l 396 -4 l 407 46 q 509 65 483 51 q 535 115 535 79 q 533 140 535 126 q 529 168 532 154 l 504 325 q 474 326 492 325 q 436 326 456 326 q 398 326 417 326 q 365 326 379 326 q 283 322 325 326 q 217 315 242 318 l 149 165 q 129 101 129 125 q 203 51 129 51 l 281 51 l 281 47 l 267 -10 q 208 -6 239 -8 q 149 -1 182 -3 q 83 0 117 0 q 35 -1 60 0 q -12 -3 10 -1 q -62 -4 -37 -4 l -44 58 q -10 66 -25 60 q 19 85 6 72 q 47 117 33 97 q 75 167 60 136 l 419 876 l 497 900 l 508 901 q 547 649 526 778 q 588 406 565 538 q 633 154 610 275 m 249 376 l 367 376 q 432 379 394 376 q 493 385 469 382 l 432 756 l 422 756 l 249 376 m 285 1093 l 307 1160 l 319 1168 q 408 1118 363 1143 q 498 1069 449 1096 q 596 1017 547 1042 l 588 983 l 576 976 q 470 1015 521 997 q 379 1049 419 1033 q 290 1079 333 1064 l 285 1093 z "},"Ā":{"ha":775,"x_min":-62,"x_max":753,"o":"m 633 154 q 668 81 643 101 q 750 54 693 60 l 753 50 l 738 -4 q 683 -3 708 -4 q 638 -1 661 -1 q 597 0 614 0 q 523 -2 558 0 q 460 -7 488 -4 q 399 -14 426 -11 l 396 -4 l 407 46 q 509 65 483 51 q 535 115 535 79 q 533 140 535 126 q 529 168 532 154 l 504 325 q 474 326 492 325 q 436 326 456 326 q 398 326 417 326 q 365 326 379 326 q 283 322 325 326 q 217 315 242 318 l 149 165 q 129 101 129 125 q 203 51 129 51 l 281 51 l 281 47 l 267 -10 q 208 -6 239 -8 q 149 -1 182 -3 q 83 0 117 0 q 35 -1 60 0 q -12 -3 10 -1 q -62 -4 -37 -4 l -44 58 q -10 66 -25 60 q 19 85 6 72 q 47 117 33 97 q 75 167 60 136 l 419 876 l 497 900 l 508 901 q 547 649 526 778 q 588 406 565 538 q 633 154 610 275 m 249 376 l 367 376 q 432 379 394 376 q 493 385 469 382 l 432 756 l 422 756 l 249 376 m 692 1081 l 674 1015 l 483 1014 q 420 1013 454 1014 q 358 1013 386 1013 l 292 1013 l 285 1025 l 307 1088 q 379 1086 343 1086 l 511 1086 q 566 1087 536 1086 q 622 1090 596 1088 q 685 1094 653 1092 l 692 1081 z "},"Ą":{"ha":775,"x_min":-62,"x_max":753,"o":"m 735 -249 q 689 -283 714 -267 q 642 -313 668 -299 q 590 -336 617 -328 q 494 -306 531 -336 q 457 -221 457 -276 q 500 -113 457 -167 q 610 0 543 -60 l 597 0 q 523 -2 558 0 q 460 -7 488 -4 q 399 -14 426 -11 l 396 -4 l 407 46 q 509 65 483 51 q 535 115 535 79 q 533 140 535 126 q 529 168 532 154 l 504 325 q 474 326 492 325 q 436 326 456 326 q 398 326 417 326 q 365 326 379 326 q 283 322 325 326 q 217 315 242 318 l 149 165 q 129 101 129 125 q 203 51 129 51 l 281 51 l 281 47 l 267 -10 q 208 -6 239 -8 q 149 -1 182 -3 q 83 0 117 0 q 35 -1 60 0 q -12 -3 10 -1 q -62 -4 -37 -4 l -44 58 q -10 66 -25 60 q 19 85 6 72 q 47 117 33 97 q 75 167 60 136 l 419 876 l 497 900 l 508 901 q 547 649 526 778 q 588 406 565 538 q 633 154 610 275 q 668 81 643 101 q 750 54 693 60 l 753 50 l 738 -4 l 668 -1 q 611 -58 635 -33 q 573 -105 588 -83 q 552 -146 558 -126 q 546 -187 546 -165 q 564 -235 546 -217 q 614 -254 582 -254 q 652 -250 633 -254 q 686 -239 671 -246 q 721 -222 704 -232 l 735 -249 m 249 376 l 367 376 q 432 379 394 376 q 493 385 469 382 l 432 756 l 422 756 l 249 376 z "},"˛":{"ha":531,"x_min":58,"x_max":336,"o":"m 336 -247 q 290 -282 315 -265 q 244 -312 269 -297 q 192 -335 218 -326 q 95 -305 132 -335 q 58 -219 58 -275 q 76 -153 58 -186 q 123 -87 93 -121 q 192 -17 153 -53 q 274 58 231 18 l 331 58 q 244 -25 279 10 q 188 -87 210 -60 q 157 -137 167 -114 q 147 -186 147 -160 q 165 -234 147 -215 q 215 -253 183 -253 q 253 -249 235 -253 q 288 -237 272 -244 q 322 -221 306 -231 l 336 -247 z "},"Å":{"ha":775,"x_min":-62,"x_max":753,"o":"m 633 154 q 668 81 643 101 q 750 54 693 60 l 753 50 l 738 -4 q 683 -3 708 -4 q 638 -1 661 -1 q 597 0 614 0 q 523 -2 558 0 q 460 -7 488 -4 q 399 -14 426 -11 l 396 -4 l 407 46 q 509 65 483 51 q 535 115 535 79 q 533 140 535 126 q 529 168 532 154 l 504 325 q 474 326 492 325 q 436 326 456 326 q 398 326 417 326 q 365 326 379 326 q 283 322 325 326 q 217 315 242 318 l 149 165 q 129 101 129 125 q 203 51 129 51 l 281 51 l 281 47 l 267 -10 q 208 -6 239 -8 q 149 -1 182 -3 q 83 0 117 0 q 35 -1 60 0 q -12 -3 10 -1 q -62 -4 -37 -4 l -44 58 q -10 66 -25 60 q 19 85 6 72 q 47 117 33 97 q 75 167 60 136 l 419 876 l 497 900 l 508 901 q 547 649 526 778 q 588 406 565 538 q 633 154 610 275 m 249 376 l 367 376 q 432 379 394 376 q 493 385 469 382 l 432 756 l 422 756 l 249 376 m 485 989 q 505 991 493 989 q 527 999 517 993 q 544 1018 538 1006 q 551 1051 551 1031 q 536 1094 551 1078 q 490 1110 521 1110 q 442 1092 458 1110 q 425 1047 425 1075 q 445 1002 425 1015 q 485 989 465 989 m 469 936 q 402 963 425 936 q 379 1031 379 989 q 415 1126 379 1089 q 508 1164 451 1164 q 579 1136 558 1164 q 600 1072 600 1108 q 591 1022 600 1046 q 565 978 582 997 q 523 948 547 960 q 469 936 499 936 z "},"Ã":{"ha":775,"x_min":-62,"x_max":753,"o":"m 633 154 q 668 81 643 101 q 750 54 693 60 l 753 50 l 738 -4 q 683 -3 708 -4 q 638 -1 661 -1 q 597 0 614 0 q 523 -2 558 0 q 460 -7 488 -4 q 399 -14 426 -11 l 396 -4 l 407 46 q 509 65 483 51 q 535 115 535 79 q 533 140 535 126 q 529 168 532 154 l 504 325 q 474 326 492 325 q 436 326 456 326 q 398 326 417 326 q 365 326 379 326 q 283 322 325 326 q 217 315 242 318 l 149 165 q 129 101 129 125 q 203 51 129 51 l 281 51 l 281 47 l 267 -10 q 208 -6 239 -8 q 149 -1 182 -3 q 83 0 117 0 q 35 -1 60 0 q -12 -3 10 -1 q -62 -4 -37 -4 l -44 58 q -10 66 -25 60 q 19 85 6 72 q 47 117 33 97 q 75 167 60 136 l 419 876 l 497 900 l 508 901 q 547 649 526 778 q 588 406 565 538 q 633 154 610 275 m 249 376 l 367 376 q 432 379 394 376 q 493 385 469 382 l 432 756 l 422 756 l 249 376 m 292 971 l 264 1000 l 265 1007 l 381 1117 l 401 1122 q 444 1115 418 1122 q 499 1099 471 1108 q 553 1083 528 1090 q 592 1076 578 1076 q 618 1086 603 1076 q 649 1107 633 1096 q 683 1139 665 1121 l 692 1139 l 718 1110 l 718 1103 l 603 993 l 581 988 q 538 994 564 988 q 483 1010 511 1001 q 431 1026 456 1019 q 392 1033 406 1033 q 364 1023 379 1033 q 333 1001 349 1013 q 300 971 317 988 l 292 971 z "},"B":{"ha":793,"x_min":40,"x_max":714,"o":"m 192 0 q 139 -3 165 0 q 90 -8 113 -6 q 40 -17 65 -12 l 54 43 q 108 58 86 49 q 143 80 129 67 q 164 114 157 93 q 175 164 171 135 l 247 753 q 245 813 253 797 q 207 828 238 828 q 193 827 200 828 q 179 826 186 826 q 163 825 171 825 l 160 831 l 176 888 q 229 885 203 886 q 276 883 251 883 q 321 883 301 883 q 363 884 339 883 q 410 886 388 885 q 463 889 435 888 q 647 842 579 889 q 714 706 714 794 q 665 563 714 625 q 529 465 615 501 q 665 394 617 446 q 714 272 714 343 q 687 164 714 215 q 614 73 660 113 q 508 10 568 33 q 382 -14 447 -14 q 290 -7 338 -14 q 192 0 243 0 m 300 417 l 261 150 q 287 74 254 96 q 404 51 319 51 q 548 106 494 51 q 601 250 601 160 q 561 361 601 318 q 439 419 521 404 l 300 417 m 310 485 q 376 479 346 482 q 426 475 403 476 q 456 474 449 474 q 531 513 497 486 q 583 576 558 536 q 607 682 607 615 q 554 799 607 761 q 390 836 501 836 q 370 830 375 836 q 361 804 365 824 q 337 655 350 733 q 310 485 324 576 z "},"C":{"ha":839,"x_min":63,"x_max":824,"o":"m 426 -17 q 278 9 344 -17 q 163 83 211 35 q 89 199 115 131 q 63 351 63 267 q 102 568 63 468 q 211 742 142 668 q 375 858 281 817 q 579 900 469 900 q 663 895 619 900 q 740 883 706 890 q 819 868 781 876 l 824 860 q 801 793 813 829 q 781 720 792 761 q 761 632 769 679 l 701 626 q 707 657 704 642 q 712 683 710 669 q 714 708 714 697 q 532 825 714 825 q 392 794 456 825 q 281 706 328 763 q 209 569 235 649 q 183 392 183 489 q 201 250 183 314 q 253 141 219 186 q 336 71 288 96 q 447 46 385 46 q 602 100 539 46 q 706 268 665 154 l 765 274 q 742 199 754 236 q 719 127 731 167 q 701 51 708 88 l 693 39 q 619 11 661 24 q 535 -8 583 0 q 426 -17 486 -17 z "},"Ć":{"ha":838,"x_min":63,"x_max":824,"o":"m 426 -17 q 278 9 344 -17 q 163 83 211 35 q 89 199 115 131 q 63 351 63 267 q 102 568 63 468 q 211 742 142 668 q 375 858 281 817 q 579 900 469 900 q 663 895 619 900 q 740 883 706 890 q 819 868 781 876 l 824 860 q 801 793 813 829 q 781 720 792 761 q 761 632 769 679 l 701 626 q 707 657 704 642 q 712 683 710 669 q 714 708 714 697 q 532 825 714 825 q 392 794 456 825 q 281 706 328 763 q 209 569 235 649 q 183 392 183 489 q 201 250 183 314 q 253 141 219 186 q 336 71 288 96 q 447 46 385 46 q 602 100 539 46 q 706 268 665 154 l 765 274 q 742 199 754 236 q 719 127 731 167 q 701 51 708 88 l 693 39 q 619 11 661 24 q 535 -8 583 0 q 426 -17 486 -17 m 767 1079 q 678 1049 724 1064 q 586 1015 638 1033 q 481 976 535 997 l 469 983 l 461 1017 q 559 1069 510 1042 q 649 1118 608 1096 q 738 1168 694 1143 l 750 1160 l 772 1093 l 767 1079 z "},"Č":{"ha":838,"x_min":63,"x_max":824,"o":"m 426 -17 q 278 9 344 -17 q 163 83 211 35 q 89 199 115 131 q 63 351 63 267 q 102 568 63 468 q 211 742 142 668 q 375 858 281 817 q 579 900 469 900 q 663 895 619 900 q 740 883 706 890 q 819 868 781 876 l 824 860 q 801 793 813 829 q 781 720 792 761 q 761 632 769 679 l 701 626 q 707 657 704 642 q 712 683 710 669 q 714 708 714 697 q 532 825 714 825 q 392 794 456 825 q 281 706 328 763 q 209 569 235 649 q 183 392 183 489 q 201 250 183 314 q 253 141 219 186 q 336 71 288 96 q 447 46 385 46 q 602 100 539 46 q 706 268 665 154 l 765 274 q 742 199 754 236 q 719 127 731 167 q 701 51 708 88 l 693 39 q 619 11 661 24 q 535 -8 583 0 q 426 -17 486 -17 m 785 1132 l 579 978 l 561 978 l 394 1132 l 417 1163 l 431 1164 l 582 1074 l 756 1164 l 768 1163 l 785 1132 z "},"Ç":{"ha":838,"x_min":63,"x_max":824,"o":"m 394 -15 q 258 17 319 -11 q 153 92 197 44 q 86 206 110 140 q 63 351 63 271 q 102 568 63 468 q 211 742 142 668 q 375 858 281 817 q 579 900 469 900 q 663 895 619 900 q 740 883 706 890 q 819 868 781 876 l 824 860 q 801 793 813 829 q 781 720 792 761 q 761 632 769 679 l 701 626 q 707 657 704 642 q 712 683 710 669 q 714 708 714 697 q 532 825 714 825 q 392 794 456 825 q 281 706 328 763 q 209 569 235 649 q 183 392 183 489 q 201 250 183 314 q 253 141 219 186 q 336 71 288 96 q 447 46 385 46 q 602 100 539 46 q 706 268 665 154 l 765 274 q 742 199 754 236 q 719 127 731 167 q 701 51 708 88 l 693 39 q 626 14 663 25 q 550 -4 594 4 q 451 -15 506 -12 l 428 -69 q 460 -94 442 -81 q 492 -122 478 -107 q 517 -153 507 -136 q 528 -187 528 -169 q 511 -240 528 -215 q 468 -283 494 -264 q 410 -312 442 -301 q 350 -324 379 -324 q 292 -312 321 -324 q 264 -276 264 -300 q 279 -238 264 -262 q 308 -196 294 -214 l 319 -196 q 334 -255 317 -235 q 383 -275 351 -275 q 433 -259 411 -275 q 454 -219 454 -243 q 445 -194 454 -207 q 422 -169 436 -182 q 389 -142 407 -156 q 353 -118 371 -129 l 394 -15 z "},"¸":{"ha":532,"x_min":60,"x_max":324,"o":"m 211 32 l 269 32 l 224 -69 q 256 -94 238 -81 q 288 -122 274 -107 q 313 -153 303 -136 q 324 -187 324 -169 q 307 -240 324 -215 q 264 -283 290 -264 q 206 -312 238 -301 q 146 -324 175 -324 q 88 -312 117 -324 q 60 -276 60 -300 q 75 -238 60 -262 q 104 -196 90 -214 l 115 -196 q 130 -255 113 -235 q 179 -275 147 -275 q 228 -259 207 -275 q 250 -219 250 -243 q 241 -194 250 -207 q 217 -169 232 -182 q 185 -142 203 -156 q 149 -118 167 -129 l 211 32 z "},"Ċ":{"ha":838,"x_min":63,"x_max":824,"o":"m 426 -17 q 278 9 344 -17 q 163 83 211 35 q 89 199 115 131 q 63 351 63 267 q 102 568 63 468 q 211 742 142 668 q 375 858 281 817 q 579 900 469 900 q 663 895 619 900 q 740 883 706 890 q 819 868 781 876 l 824 860 q 801 793 813 829 q 781 720 792 761 q 761 632 769 679 l 701 626 q 707 657 704 642 q 712 683 710 669 q 714 708 714 697 q 532 825 714 825 q 392 794 456 825 q 281 706 328 763 q 209 569 235 649 q 183 392 183 489 q 201 250 183 314 q 253 141 219 186 q 336 71 288 96 q 447 46 385 46 q 602 100 539 46 q 706 268 665 154 l 765 274 q 742 199 754 236 q 719 127 731 167 q 701 51 708 88 l 693 39 q 619 11 661 24 q 535 -8 583 0 q 426 -17 486 -17 m 565 999 q 519 1018 533 999 q 506 1061 506 1038 q 532 1124 506 1097 q 597 1151 558 1151 q 641 1132 626 1151 q 656 1089 656 1113 q 629 1026 656 1053 q 565 999 603 999 z "},"D":{"ha":938,"x_min":39,"x_max":907,"o":"m 397 -17 q 321 -8 357 -12 q 254 -3 289 -6 q 194 0 219 0 q 142 -3 169 0 q 92 -8 115 -6 q 39 -17 65 -12 l 54 43 q 143 80 118 56 q 175 163 168 104 l 247 753 q 245 813 253 797 q 208 828 238 828 q 193 827 201 828 q 178 826 185 826 q 161 825 169 825 l 160 831 l 175 888 q 225 885 200 886 q 270 883 246 883 q 314 883 294 883 q 369 884 338 883 q 431 886 400 885 q 503 889 465 888 q 666 863 592 889 q 794 788 740 836 q 877 672 847 739 q 907 522 907 604 q 867 315 907 413 q 757 143 826 217 q 594 26 688 69 q 397 -17 501 -17 m 414 828 q 376 822 386 828 q 364 797 367 817 q 292 347 318 508 q 265 149 265 186 q 273 100 265 119 q 299 69 281 81 q 349 53 318 57 q 424 49 379 49 q 573 81 506 49 q 688 173 640 114 q 762 314 736 232 q 788 494 788 396 q 692 741 788 654 q 414 828 597 828 z "},"Ď":{"ha":936,"x_min":39,"x_max":907,"o":"m 397 -17 q 321 -8 357 -12 q 254 -3 289 -6 q 194 0 219 0 q 142 -3 169 0 q 92 -8 115 -6 q 39 -17 65 -12 l 54 43 q 143 80 118 56 q 175 163 168 104 l 247 753 q 245 813 253 797 q 208 828 238 828 q 193 827 201 828 q 178 826 185 826 q 161 825 169 825 l 160 831 l 175 888 q 225 885 200 886 q 270 883 246 883 q 314 883 294 883 q 369 884 338 883 q 431 886 400 885 q 503 889 465 888 q 666 863 592 889 q 794 788 740 836 q 877 672 847 739 q 907 522 907 604 q 867 315 907 413 q 757 143 826 217 q 594 26 688 69 q 397 -17 501 -17 m 414 828 q 376 822 386 828 q 364 797 367 817 q 292 347 318 508 q 265 149 265 186 q 273 100 265 119 q 299 69 281 81 q 349 53 318 57 q 424 49 379 49 q 573 81 506 49 q 688 173 640 114 q 762 314 736 232 q 788 494 788 396 q 692 741 788 654 q 414 828 597 828 m 746 1132 l 540 978 l 522 978 l 356 1132 l 378 1163 l 392 1164 l 543 1074 l 717 1164 l 729 1163 l 746 1132 z "},"E":{"ha":788,"x_min":40,"x_max":761,"o":"m 257 111 q 278 66 257 75 q 357 57 299 57 q 485 62 438 57 q 563 85 533 67 q 607 136 592 103 q 638 228 622 169 l 694 235 l 697 228 q 675 156 686 193 q 653 83 665 124 q 632 -3 642 42 l 625 -10 q 471 -6 546 -8 q 339 -1 407 -3 q 224 0 271 0 q 153 -2 186 0 q 94 -7 119 -4 q 40 -14 65 -11 l 56 46 q 142 78 117 54 q 174 163 167 103 l 247 753 q 245 813 253 797 q 207 828 238 828 q 192 827 200 828 q 178 826 185 826 q 161 825 169 825 l 160 829 l 175 888 q 236 885 204 886 q 295 883 264 883 q 357 883 326 883 q 497 884 438 883 q 604 887 557 885 q 688 892 651 889 q 758 900 725 896 l 761 893 q 740 826 750 863 q 722 754 732 794 q 703 665 711 714 l 642 660 q 647 692 644 676 q 652 721 650 706 q 654 750 654 736 q 647 788 654 774 q 617 808 639 801 q 556 817 594 815 q 457 819 518 819 q 405 818 424 819 q 376 812 386 817 q 363 796 367 807 q 356 765 358 785 l 313 489 q 377 488 335 489 q 450 488 419 488 q 496 490 468 488 q 550 494 524 492 q 614 503 581 499 l 618 497 l 590 419 q 524 421 557 419 q 463 423 496 422 q 403 424 431 424 q 345 420 374 424 q 300 414 317 417 q 274 241 283 296 q 261 161 264 186 q 257 111 257 131 z "},"É":{"ha":789,"x_min":40,"x_max":761,"o":"m 257 111 q 278 66 257 75 q 357 57 299 57 q 485 62 438 57 q 563 85 533 67 q 607 136 592 103 q 638 228 622 169 l 694 235 l 697 228 q 675 156 686 193 q 653 83 665 124 q 632 -3 642 42 l 625 -10 q 471 -6 546 -8 q 339 -1 407 -3 q 224 0 271 0 q 153 -2 186 0 q 94 -7 119 -4 q 40 -14 65 -11 l 56 46 q 142 78 117 54 q 174 163 167 103 l 247 753 q 245 813 253 797 q 207 828 238 828 q 192 827 200 828 q 178 826 185 826 q 161 825 169 825 l 160 829 l 175 888 q 236 885 204 886 q 295 883 264 883 q 357 883 326 883 q 497 884 438 883 q 604 887 557 885 q 688 892 651 889 q 758 900 725 896 l 761 893 q 740 826 750 863 q 722 754 732 794 q 703 665 711 714 l 642 660 q 647 692 644 676 q 652 721 650 706 q 654 750 654 736 q 647 788 654 774 q 617 808 639 801 q 556 817 594 815 q 457 819 518 819 q 405 818 424 819 q 376 812 386 817 q 363 796 367 807 q 356 765 358 785 l 313 489 q 377 488 335 489 q 450 488 419 488 q 496 490 468 488 q 550 494 524 492 q 614 503 581 499 l 618 497 l 590 419 q 524 421 557 419 q 463 423 496 422 q 403 424 431 424 q 345 420 374 424 q 300 414 317 417 q 274 241 283 296 q 261 161 264 186 q 257 111 257 131 m 668 1079 q 579 1049 625 1064 q 488 1015 539 1033 q 382 976 436 997 l 371 983 l 363 1017 q 460 1069 411 1042 q 550 1118 510 1096 q 639 1168 596 1143 l 651 1160 l 674 1093 l 668 1079 z "},"Ě":{"ha":789,"x_min":40,"x_max":761,"o":"m 257 111 q 278 66 257 75 q 357 57 299 57 q 485 62 438 57 q 563 85 533 67 q 607 136 592 103 q 638 228 622 169 l 694 235 l 697 228 q 675 156 686 193 q 653 83 665 124 q 632 -3 642 42 l 625 -10 q 471 -6 546 -8 q 339 -1 407 -3 q 224 0 271 0 q 153 -2 186 0 q 94 -7 119 -4 q 40 -14 65 -11 l 56 46 q 142 78 117 54 q 174 163 167 103 l 247 753 q 245 813 253 797 q 207 828 238 828 q 192 827 200 828 q 178 826 185 826 q 161 825 169 825 l 160 829 l 175 888 q 236 885 204 886 q 295 883 264 883 q 357 883 326 883 q 497 884 438 883 q 604 887 557 885 q 688 892 651 889 q 758 900 725 896 l 761 893 q 740 826 750 863 q 722 754 732 794 q 703 665 711 714 l 642 660 q 647 692 644 676 q 652 721 650 706 q 654 750 654 736 q 647 788 654 774 q 617 808 639 801 q 556 817 594 815 q 457 819 518 819 q 405 818 424 819 q 376 812 386 817 q 363 796 367 807 q 356 765 358 785 l 313 489 q 377 488 335 489 q 450 488 419 488 q 496 490 468 488 q 550 494 524 492 q 614 503 581 499 l 618 497 l 590 419 q 524 421 557 419 q 463 423 496 422 q 403 424 431 424 q 345 420 374 424 q 300 414 317 417 q 274 241 283 296 q 261 161 264 186 q 257 111 257 131 m 717 1132 l 511 978 l 493 978 l 326 1132 l 349 1163 l 363 1164 l 514 1074 l 688 1164 l 700 1163 l 717 1132 z "},"Ê":{"ha":789,"x_min":40,"x_max":761,"o":"m 257 111 q 278 66 257 75 q 357 57 299 57 q 485 62 438 57 q 563 85 533 67 q 607 136 592 103 q 638 228 622 169 l 694 235 l 697 228 q 675 156 686 193 q 653 83 665 124 q 632 -3 642 42 l 625 -10 q 471 -6 546 -8 q 339 -1 407 -3 q 224 0 271 0 q 153 -2 186 0 q 94 -7 119 -4 q 40 -14 65 -11 l 56 46 q 142 78 117 54 q 174 163 167 103 l 247 753 q 245 813 253 797 q 207 828 238 828 q 192 827 200 828 q 178 826 185 826 q 161 825 169 825 l 160 829 l 175 888 q 236 885 204 886 q 295 883 264 883 q 357 883 326 883 q 497 884 438 883 q 604 887 557 885 q 688 892 651 889 q 758 900 725 896 l 761 893 q 740 826 750 863 q 722 754 732 794 q 703 665 711 714 l 642 660 q 647 692 644 676 q 652 721 650 706 q 654 750 654 736 q 647 788 654 774 q 617 808 639 801 q 556 817 594 815 q 457 819 518 819 q 405 818 424 819 q 376 812 386 817 q 363 796 367 807 q 356 765 358 785 l 313 489 q 377 488 335 489 q 450 488 419 488 q 496 490 468 488 q 550 494 524 492 q 614 503 581 499 l 618 497 l 590 419 q 524 421 557 419 q 463 423 496 422 q 403 424 431 424 q 345 420 374 424 q 300 414 317 417 q 274 241 283 296 q 261 161 264 186 q 257 111 257 131 m 313 1021 l 517 1175 l 536 1175 l 703 1021 l 679 990 l 667 989 l 514 1079 l 340 989 l 328 990 l 313 1021 z "},"Ë":{"ha":789,"x_min":40,"x_max":761,"o":"m 257 111 q 278 66 257 75 q 357 57 299 57 q 485 62 438 57 q 563 85 533 67 q 607 136 592 103 q 638 228 622 169 l 694 235 l 697 228 q 675 156 686 193 q 653 83 665 124 q 632 -3 642 42 l 625 -10 q 471 -6 546 -8 q 339 -1 407 -3 q 224 0 271 0 q 153 -2 186 0 q 94 -7 119 -4 q 40 -14 65 -11 l 56 46 q 142 78 117 54 q 174 163 167 103 l 247 753 q 245 813 253 797 q 207 828 238 828 q 192 827 200 828 q 178 826 185 826 q 161 825 169 825 l 160 829 l 175 888 q 236 885 204 886 q 295 883 264 883 q 357 883 326 883 q 497 884 438 883 q 604 887 557 885 q 688 892 651 889 q 758 900 725 896 l 761 893 q 740 826 750 863 q 722 754 732 794 q 703 665 711 714 l 642 660 q 647 692 644 676 q 652 721 650 706 q 654 750 654 736 q 647 788 654 774 q 617 808 639 801 q 556 817 594 815 q 457 819 518 819 q 405 818 424 819 q 376 812 386 817 q 363 796 367 807 q 356 765 358 785 l 313 489 q 377 488 335 489 q 450 488 419 488 q 496 490 468 488 q 550 494 524 492 q 614 503 581 499 l 618 497 l 590 419 q 524 421 557 419 q 463 423 496 422 q 403 424 431 424 q 345 420 374 424 q 300 414 317 417 q 274 241 283 296 q 261 161 264 186 q 257 111 257 131 m 610 1007 q 573 1024 585 1007 q 561 1060 561 1040 q 583 1113 561 1090 q 638 1136 606 1136 q 675 1120 663 1136 q 688 1083 688 1104 q 665 1030 688 1053 q 610 1007 642 1007 m 388 1007 q 351 1024 363 1007 q 339 1060 339 1040 q 361 1113 339 1090 q 415 1136 383 1136 q 453 1120 440 1136 q 465 1083 465 1104 q 442 1030 465 1053 q 388 1007 419 1007 z "},"Ė":{"ha":789,"x_min":40,"x_max":761,"o":"m 257 111 q 278 66 257 75 q 357 57 299 57 q 485 62 438 57 q 563 85 533 67 q 607 136 592 103 q 638 228 622 169 l 694 235 l 697 228 q 675 156 686 193 q 653 83 665 124 q 632 -3 642 42 l 625 -10 q 471 -6 546 -8 q 339 -1 407 -3 q 224 0 271 0 q 153 -2 186 0 q 94 -7 119 -4 q 40 -14 65 -11 l 56 46 q 142 78 117 54 q 174 163 167 103 l 247 753 q 245 813 253 797 q 207 828 238 828 q 192 827 200 828 q 178 826 185 826 q 161 825 169 825 l 160 829 l 175 888 q 236 885 204 886 q 295 883 264 883 q 357 883 326 883 q 497 884 438 883 q 604 887 557 885 q 688 892 651 889 q 758 900 725 896 l 761 893 q 740 826 750 863 q 722 754 732 794 q 703 665 711 714 l 642 660 q 647 692 644 676 q 652 721 650 706 q 654 750 654 736 q 647 788 654 774 q 617 808 639 801 q 556 817 594 815 q 457 819 518 819 q 405 818 424 819 q 376 812 386 817 q 363 796 367 807 q 356 765 358 785 l 313 489 q 377 488 335 489 q 450 488 419 488 q 496 490 468 488 q 550 494 524 492 q 614 503 581 499 l 618 497 l 590 419 q 524 421 557 419 q 463 423 496 422 q 403 424 431 424 q 345 420 374 424 q 300 414 317 417 q 274 241 283 296 q 261 161 264 186 q 257 111 257 131 m 499 999 q 453 1018 467 999 q 439 1061 439 1038 q 465 1124 439 1097 q 531 1151 492 1151 q 574 1132 560 1151 q 589 1089 589 1113 q 563 1026 589 1053 q 499 999 536 999 z "},"È":{"ha":789,"x_min":40,"x_max":761,"o":"m 257 111 q 278 66 257 75 q 357 57 299 57 q 485 62 438 57 q 563 85 533 67 q 607 136 592 103 q 638 228 622 169 l 694 235 l 697 228 q 675 156 686 193 q 653 83 665 124 q 632 -3 642 42 l 625 -10 q 471 -6 546 -8 q 339 -1 407 -3 q 224 0 271 0 q 153 -2 186 0 q 94 -7 119 -4 q 40 -14 65 -11 l 56 46 q 142 78 117 54 q 174 163 167 103 l 247 753 q 245 813 253 797 q 207 828 238 828 q 192 827 200 828 q 178 826 185 826 q 161 825 169 825 l 160 829 l 175 888 q 236 885 204 886 q 295 883 264 883 q 357 883 326 883 q 497 884 438 883 q 604 887 557 885 q 688 892 651 889 q 758 900 725 896 l 761 893 q 740 826 750 863 q 722 754 732 794 q 703 665 711 714 l 642 660 q 647 692 644 676 q 652 721 650 706 q 654 750 654 736 q 647 788 654 774 q 617 808 639 801 q 556 817 594 815 q 457 819 518 819 q 405 818 424 819 q 376 812 386 817 q 363 796 367 807 q 356 765 358 785 l 313 489 q 377 488 335 489 q 450 488 419 488 q 496 490 468 488 q 550 494 524 492 q 614 503 581 499 l 618 497 l 590 419 q 524 421 557 419 q 463 423 496 422 q 403 424 431 424 q 345 420 374 424 q 300 414 317 417 q 274 241 283 296 q 261 161 264 186 q 257 111 257 131 m 306 1093 l 328 1160 l 340 1168 q 429 1118 383 1143 q 519 1069 469 1096 q 617 1017 568 1042 l 608 983 l 597 976 q 491 1015 542 997 q 400 1049 440 1033 q 311 1079 354 1064 l 306 1093 z "},"Ē":{"ha":789,"x_min":40,"x_max":761,"o":"m 257 111 q 278 66 257 75 q 357 57 299 57 q 485 62 438 57 q 563 85 533 67 q 607 136 592 103 q 638 228 622 169 l 694 235 l 697 228 q 675 156 686 193 q 653 83 665 124 q 632 -3 642 42 l 625 -10 q 471 -6 546 -8 q 339 -1 407 -3 q 224 0 271 0 q 153 -2 186 0 q 94 -7 119 -4 q 40 -14 65 -11 l 56 46 q 142 78 117 54 q 174 163 167 103 l 247 753 q 245 813 253 797 q 207 828 238 828 q 192 827 200 828 q 178 826 185 826 q 161 825 169 825 l 160 829 l 175 888 q 236 885 204 886 q 295 883 264 883 q 357 883 326 883 q 497 884 438 883 q 604 887 557 885 q 688 892 651 889 q 758 900 725 896 l 761 893 q 740 826 750 863 q 722 754 732 794 q 703 665 711 714 l 642 660 q 647 692 644 676 q 652 721 650 706 q 654 750 654 736 q 647 788 654 774 q 617 808 639 801 q 556 817 594 815 q 457 819 518 819 q 405 818 424 819 q 376 812 386 817 q 363 796 367 807 q 356 765 358 785 l 313 489 q 377 488 335 489 q 450 488 419 488 q 496 490 468 488 q 550 494 524 492 q 614 503 581 499 l 618 497 l 590 419 q 524 421 557 419 q 463 423 496 422 q 403 424 431 424 q 345 420 374 424 q 300 414 317 417 q 274 241 283 296 q 261 161 264 186 q 257 111 257 131 m 713 1081 l 694 1015 l 504 1014 q 441 1013 475 1014 q 379 1013 407 1013 l 313 1013 l 306 1025 l 328 1088 q 400 1086 364 1086 l 532 1086 q 587 1087 557 1086 q 643 1090 617 1088 q 706 1094 674 1092 l 713 1081 z "},"Ŋ":{"ha":960,"x_min":44,"x_max":989,"o":"m 263 885 q 286 885 269 885 q 319 888 303 886 q 361 890 339 889 q 419 772 389 832 q 479 653 449 713 q 540 537 510 593 q 596 431 569 481 q 719 201 658 314 l 726 201 l 796 764 q 758 824 801 824 q 740 823 749 824 q 725 822 732 822 l 708 822 l 706 828 l 726 890 q 774 888 750 889 q 815 885 793 886 q 854 885 838 885 q 899 886 875 885 q 943 890 924 888 q 989 896 967 893 l 975 832 q 903 805 926 825 q 874 744 881 785 l 785 119 q 753 0 774 53 q 699 -93 732 -53 q 619 -162 667 -133 q 510 -214 572 -192 l 492 -168 l 497 -157 q 615 -87 572 -126 q 681 11 657 -47 q 541 285 607 158 q 425 507 475 411 q 317 710 367 618 l 310 710 l 231 117 q 234 73 226 85 q 265 61 242 61 q 281 61 269 61 q 303 63 292 61 q 332 64 317 63 l 335 58 l 315 -6 q 264 -3 289 -4 q 214 -1 240 -1 q 164 0 188 0 q 122 -1 143 0 q 83 -6 101 -3 q 44 -11 63 -8 l 60 53 q 126 81 106 57 q 158 172 147 106 l 244 747 q 244 782 247 768 q 228 806 240 796 q 195 822 217 815 q 140 833 174 828 l 136 840 l 153 892 q 197 888 176 889 q 233 885 215 886 q 263 885 251 885 z "},"Ę":{"ha":789,"x_min":40,"x_max":761,"o":"m 635 -247 q 589 -282 614 -265 q 542 -312 568 -297 q 490 -335 517 -326 q 394 -305 431 -335 q 357 -219 357 -275 q 398 -115 357 -167 q 501 -6 439 -64 q 430 -3 468 -4 q 355 -2 392 -3 q 284 -1 318 -1 q 224 0 250 0 q 153 -2 186 0 q 94 -7 119 -4 q 40 -14 65 -11 l 56 46 q 142 78 117 54 q 174 163 167 103 l 247 753 q 245 813 253 797 q 207 828 238 828 q 192 827 200 828 q 178 826 185 826 q 161 825 169 825 l 160 829 l 175 888 q 236 885 204 886 q 295 883 264 883 q 357 883 326 883 q 497 884 438 883 q 604 887 557 885 q 688 892 651 889 q 758 900 725 896 l 761 893 q 740 826 750 863 q 722 754 732 794 q 703 665 711 714 l 642 660 q 647 692 644 676 q 652 721 650 706 q 654 750 654 736 q 647 788 654 774 q 617 808 639 801 q 556 817 594 815 q 457 819 518 819 q 405 818 424 819 q 376 812 386 817 q 363 796 367 807 q 356 765 358 785 l 313 489 q 377 488 335 489 q 450 488 419 488 q 496 490 468 488 q 550 494 524 492 q 614 503 581 499 l 618 497 l 590 419 q 524 421 557 419 q 463 423 496 422 q 403 424 431 424 q 345 420 374 424 q 300 414 317 417 q 274 242 283 296 q 261 161 264 188 q 257 111 257 131 q 278 66 257 75 q 357 57 299 57 q 485 62 438 57 q 563 85 533 67 q 607 136 592 103 q 638 228 622 169 l 694 235 l 697 228 q 675 156 686 193 q 653 83 665 124 q 632 -3 642 42 l 625 -10 q 607 -8 617 -8 q 587 -8 599 -8 q 560 -7 575 -8 q 506 -61 528 -37 q 472 -106 485 -85 q 452 -146 458 -126 q 446 -186 446 -165 q 464 -234 446 -215 q 514 -253 482 -253 q 552 -249 533 -253 q 586 -237 571 -244 q 621 -221 604 -231 l 635 -247 z "},"Ð":{"ha":950,"x_min":28,"x_max":921,"o":"m 411 -17 q 335 -8 371 -12 q 268 -3 303 -6 q 208 0 233 0 q 156 -3 183 0 q 106 -8 129 -6 q 53 -17 79 -12 l 68 43 q 157 80 132 56 q 189 163 182 104 l 221 422 l 36 422 l 28 432 l 43 476 l 228 476 l 261 753 q 259 813 267 797 q 222 828 251 828 q 207 827 215 828 q 192 826 199 826 q 175 825 183 825 l 174 831 l 189 888 q 239 885 214 886 q 284 883 260 883 q 328 883 308 883 q 383 884 351 883 q 444 886 414 885 q 517 889 479 888 q 680 863 606 889 q 808 788 754 836 q 891 672 861 739 q 921 522 921 604 q 881 315 921 413 q 771 143 840 217 q 608 26 701 69 q 411 -17 515 -17 m 428 828 q 390 822 400 828 q 378 797 381 817 l 325 476 l 550 476 l 556 467 l 542 422 l 317 422 q 289 240 299 308 q 279 149 279 171 q 287 100 279 119 q 313 69 294 81 q 363 53 332 57 q 438 49 393 49 q 587 81 519 49 q 702 173 654 114 q 776 314 750 232 q 801 494 801 396 q 706 741 801 654 q 428 828 611 828 z "},"F":{"ha":681,"x_min":40,"x_max":736,"o":"m 261 150 q 264 78 254 101 q 308 56 274 56 q 335 56 319 56 q 367 57 351 56 q 404 60 385 58 l 406 54 l 388 -6 q 315 -3 351 -4 q 251 -1 285 -1 q 190 0 217 0 q 139 -3 165 0 q 90 -8 113 -6 q 40 -17 65 -12 l 54 43 q 108 58 86 49 q 142 80 129 67 q 163 113 156 93 q 174 163 169 133 l 247 753 q 245 813 253 797 q 207 828 238 828 q 192 827 200 828 q 178 826 185 826 q 161 825 169 825 l 160 829 l 175 888 q 236 885 204 886 q 295 883 264 883 q 357 883 326 883 q 481 884 425 883 q 581 887 536 885 q 664 892 626 889 q 733 900 701 896 l 736 893 q 715 825 726 861 q 695 751 706 793 q 676 661 685 710 l 617 656 q 622 689 619 672 q 627 720 625 704 q 629 751 629 736 q 622 788 629 775 q 595 808 614 801 q 542 817 576 815 q 457 819 508 819 q 405 818 424 819 q 376 812 386 817 q 363 796 367 807 q 356 765 358 785 l 310 465 l 447 464 q 486 466 463 464 q 533 471 510 468 q 589 479 560 475 l 592 474 l 565 394 q 506 396 535 394 q 452 398 481 397 q 400 399 424 399 q 342 395 369 399 q 296 389 314 392 l 261 150 z "},"G":{"ha":889,"x_min":63,"x_max":824,"o":"m 426 -17 q 278 9 344 -17 q 163 83 211 35 q 89 199 115 131 q 63 351 63 267 q 102 568 63 468 q 211 742 142 668 q 375 858 281 817 q 579 900 469 900 q 663 895 619 900 q 740 883 706 890 q 819 868 781 876 l 824 860 q 801 793 813 829 q 781 720 792 761 q 761 632 769 679 l 701 626 q 707 657 704 642 q 712 683 710 669 q 714 708 714 697 q 532 825 714 825 q 392 794 456 825 q 281 706 328 763 q 209 569 235 649 q 183 392 183 489 q 201 250 183 314 q 253 141 219 186 q 336 71 288 96 q 447 46 385 46 q 522 53 488 46 q 582 72 557 61 q 635 100 611 85 l 656 275 q 649 336 661 322 q 590 350 636 350 l 497 350 l 496 356 l 515 421 q 530 420 515 421 q 569 418 544 419 q 624 416 593 417 q 683 415 654 415 q 725 416 704 415 q 763 418 746 417 q 799 422 782 419 l 800 394 q 744 271 758 367 q 738 226 742 251 q 732 177 735 201 q 727 132 729 153 q 725 101 725 111 l 725 76 q 726 60 725 69 l 718 49 q 635 15 681 31 q 542 -7 596 3 q 426 -17 489 -17 z "},"Ğ":{"ha":889,"x_min":63,"x_max":824,"o":"m 426 -17 q 278 9 344 -17 q 163 83 211 35 q 89 199 115 131 q 63 351 63 267 q 102 568 63 468 q 211 742 142 668 q 375 858 281 817 q 579 900 469 900 q 663 895 619 900 q 740 883 706 890 q 819 868 781 876 l 824 860 q 801 793 813 829 q 781 720 792 761 q 761 632 769 679 l 701 626 q 707 657 704 642 q 712 683 710 669 q 714 708 714 697 q 532 825 714 825 q 392 794 456 825 q 281 706 328 763 q 209 569 235 649 q 183 392 183 489 q 201 250 183 314 q 253 141 219 186 q 336 71 288 96 q 447 46 385 46 q 522 53 488 46 q 582 72 557 61 q 635 100 611 85 l 656 275 q 649 336 661 322 q 590 350 636 350 l 497 350 l 496 356 l 515 421 q 530 420 515 421 q 569 418 544 419 q 624 416 593 417 q 683 415 654 415 q 725 416 704 415 q 763 418 746 417 q 799 422 782 419 l 800 394 q 744 271 758 367 q 738 226 742 251 q 732 177 735 201 q 727 132 729 153 q 725 101 725 111 l 725 76 q 726 60 725 69 l 718 49 q 635 15 681 31 q 542 -7 596 3 q 426 -17 489 -17 m 563 1067 q 642 1084 606 1067 q 700 1136 679 1101 l 711 1136 l 732 1122 q 705 1072 721 1097 q 667 1028 689 1047 q 616 998 644 1010 q 553 986 588 986 q 492 998 518 986 q 449 1028 467 1010 q 422 1072 432 1047 q 407 1122 411 1097 l 432 1136 l 443 1136 q 488 1084 456 1101 q 563 1067 521 1067 z "},"Ģ":{"ha":889,"x_min":63,"x_max":824,"o":"m 426 -17 q 278 9 344 -17 q 163 83 211 35 q 89 199 115 131 q 63 351 63 267 q 102 568 63 468 q 211 742 142 668 q 375 858 281 817 q 579 900 469 900 q 663 895 619 900 q 740 883 706 890 q 819 868 781 876 l 824 860 q 801 793 813 829 q 781 720 792 761 q 761 632 769 679 l 701 626 q 707 657 704 642 q 712 683 710 669 q 714 708 714 697 q 532 825 714 825 q 392 794 456 825 q 281 706 328 763 q 209 569 235 649 q 183 392 183 489 q 201 250 183 314 q 253 141 219 186 q 336 71 288 96 q 447 46 385 46 q 522 53 488 46 q 582 72 557 61 q 635 100 611 85 l 656 275 q 649 336 661 322 q 590 350 636 350 l 497 350 l 496 356 l 515 421 q 530 420 515 421 q 569 418 544 419 q 624 416 593 417 q 683 415 654 415 q 725 416 704 415 q 763 418 746 417 q 799 422 782 419 l 800 394 q 744 271 758 367 q 738 226 742 251 q 732 177 735 201 q 727 132 729 153 q 725 101 725 111 l 725 76 q 726 60 725 69 l 718 49 q 635 15 681 31 q 542 -7 596 3 q 426 -17 489 -17 m 324 -129 q 359 -106 338 -118 q 404 -93 381 -93 q 458 -119 436 -93 q 479 -192 479 -146 q 462 -262 479 -229 q 419 -322 444 -294 q 362 -370 393 -349 q 301 -407 331 -392 l 276 -386 l 276 -372 q 347 -308 318 -346 q 376 -235 376 -271 q 360 -185 376 -207 q 321 -149 344 -162 l 324 -129 z "},"Ġ":{"ha":889,"x_min":63,"x_max":824,"o":"m 426 -17 q 278 9 344 -17 q 163 83 211 35 q 89 199 115 131 q 63 351 63 267 q 102 568 63 468 q 211 742 142 668 q 375 858 281 817 q 579 900 469 900 q 663 895 619 900 q 740 883 706 890 q 819 868 781 876 l 824 860 q 801 793 813 829 q 781 720 792 761 q 761 632 769 679 l 701 626 q 707 657 704 642 q 712 683 710 669 q 714 708 714 697 q 532 825 714 825 q 392 794 456 825 q 281 706 328 763 q 209 569 235 649 q 183 392 183 489 q 201 250 183 314 q 253 141 219 186 q 336 71 288 96 q 447 46 385 46 q 522 53 488 46 q 582 72 557 61 q 635 100 611 85 l 656 275 q 649 336 661 322 q 590 350 636 350 l 497 350 l 496 356 l 515 421 q 530 420 515 421 q 569 418 544 419 q 624 416 593 417 q 683 415 654 415 q 725 416 704 415 q 763 418 746 417 q 799 422 782 419 l 800 394 q 744 271 758 367 q 738 226 742 251 q 732 177 735 201 q 727 132 729 153 q 725 101 725 111 l 725 76 q 726 60 725 69 l 718 49 q 635 15 681 31 q 542 -7 596 3 q 426 -17 489 -17 m 549 999 q 503 1018 517 999 q 489 1061 489 1038 q 515 1124 489 1097 q 581 1151 542 1151 q 624 1132 610 1151 q 639 1089 639 1113 q 613 1026 639 1053 q 549 999 586 999 z "},"H":{"ha":1004,"x_min":39,"x_max":988,"o":"m 879 758 q 847 559 864 663 q 817 365 831 456 q 799 240 803 274 q 790 173 794 207 q 785 117 785 139 q 796 69 785 82 q 835 57 807 57 q 855 57 844 57 q 875 58 865 57 q 896 61 886 60 l 896 60 l 896 57 l 878 -4 q 817 -3 846 -4 q 763 -1 790 -1 q 713 0 735 0 l 669 0 q 599 -2 632 0 q 565 -3 565 -4 l 583 57 q 635 63 614 57 q 669 85 656 69 q 690 131 682 101 q 704 207 699 160 l 729 421 l 650 421 q 583 422 618 421 q 524 422 547 422 q 472 419 508 422 q 396 414 435 417 q 299 407 350 410 l 275 240 q 263 159 269 201 q 261 93 257 117 q 274 65 264 72 q 310 58 285 58 q 330 58 319 58 q 350 60 340 58 q 371 63 361 61 q 372 60 371 61 q 372 57 372 58 l 353 -4 q 342 -3 353 -4 q 316 -2 332 -3 q 281 -1 300 -1 q 244 0 261 0 q 180 -1 215 0 q 113 -6 144 -3 q 61 -11 82 -8 q 39 -17 40 -14 l 54 43 q 115 62 92 51 q 151 91 138 72 q 170 138 164 110 q 181 210 176 167 l 247 753 q 245 813 253 797 q 207 828 238 828 q 193 827 200 828 q 179 826 186 826 q 163 825 171 825 l 160 829 l 176 889 q 231 886 204 888 q 279 884 254 885 q 324 883 304 883 q 369 885 344 883 q 414 890 393 888 q 463 897 439 893 l 451 838 q 403 826 421 833 q 374 806 385 819 q 358 770 364 793 q 347 710 353 747 l 311 482 q 424 481 368 482 q 538 481 481 481 q 633 484 589 481 q 739 494 678 488 l 772 753 q 770 813 779 797 q 732 828 761 828 q 717 827 725 828 q 703 826 710 826 q 686 825 694 825 l 683 829 l 701 889 q 714 888 701 889 q 746 885 726 886 q 788 884 765 885 q 826 883 810 883 q 878 885 850 883 q 931 890 907 888 q 988 897 958 893 l 976 838 q 906 815 925 831 q 879 758 886 799 z "},"I":{"ha":481,"x_min":36,"x_max":475,"o":"m 356 758 q 322 560 339 664 q 291 366 306 457 q 270 228 276 275 q 261 161 264 181 q 258 118 258 132 q 270 71 258 83 q 310 58 282 58 q 333 58 321 58 q 357 60 346 58 q 381 63 369 61 l 383 57 l 364 -4 q 301 -3 332 -4 q 244 -1 274 -1 q 190 0 214 0 q 138 -3 165 0 q 88 -8 111 -6 q 36 -17 61 -12 l 53 43 q 106 58 85 49 q 142 81 128 67 q 163 115 156 94 q 175 164 171 135 l 247 753 q 245 813 253 797 q 207 828 238 828 q 190 827 200 828 q 171 826 179 826 q 150 825 160 825 q 149 827 150 826 q 149 829 149 828 l 165 889 q 181 888 164 889 q 222 886 197 888 q 274 884 247 885 q 322 883 301 883 q 372 885 346 883 q 421 890 397 888 q 475 897 447 893 l 461 838 q 415 828 433 833 q 383 815 396 824 q 365 792 371 806 q 356 758 358 778 z "},"J":{"ha":435,"x_min":-22,"x_max":439,"o":"m 233 753 q 231 812 239 797 q 193 826 222 826 q 176 826 186 826 q 154 824 165 825 q 128 821 142 822 l 128 825 l 143 883 l 286 883 q 333 885 306 883 q 383 889 360 886 q 439 896 411 892 l 428 838 q 363 816 379 831 q 340 758 347 801 q 327 679 335 728 q 311 574 319 631 q 293 456 303 517 q 275 339 283 394 q 260 238 267 283 q 250 164 254 192 q 171 -65 232 21 q -6 -199 110 -151 l -22 -154 l -18 -143 q 56 -91 25 -118 q 106 -29 86 -64 q 139 51 126 6 q 158 158 151 96 l 233 753 z "},"Í":{"ha":482,"x_min":36,"x_max":543,"o":"m 356 758 q 322 560 339 664 q 291 366 306 457 q 270 228 276 275 q 261 161 264 181 q 258 118 258 132 q 270 71 258 83 q 310 58 282 58 q 333 58 321 58 q 357 60 346 58 q 381 63 369 61 l 383 57 l 364 -4 q 301 -3 332 -4 q 244 -1 274 -1 q 190 0 214 0 q 138 -3 165 0 q 88 -8 111 -6 q 36 -17 61 -12 l 53 43 q 106 58 85 49 q 142 81 128 67 q 163 115 156 94 q 175 164 171 135 l 247 753 q 245 813 253 797 q 207 828 238 828 q 190 827 200 828 q 171 826 179 826 q 150 825 160 825 q 149 827 150 826 q 149 829 149 828 l 165 889 q 181 888 164 889 q 222 886 197 888 q 274 884 247 885 q 322 883 301 883 q 372 885 346 883 q 421 890 397 888 q 475 897 447 893 l 461 838 q 415 828 433 833 q 383 815 396 824 q 365 792 371 806 q 356 758 358 778 m 538 1079 q 449 1049 494 1064 q 357 1015 408 1033 q 251 976 306 997 l 240 983 l 232 1017 q 330 1069 281 1042 q 419 1118 379 1096 q 508 1168 465 1143 l 521 1160 l 543 1093 l 538 1079 z "},"Î":{"ha":482,"x_min":36,"x_max":529,"o":"m 356 758 q 322 560 339 664 q 291 366 306 457 q 270 228 276 275 q 261 161 264 181 q 258 118 258 132 q 270 71 258 83 q 310 58 282 58 q 333 58 321 58 q 357 60 346 58 q 381 63 369 61 l 383 57 l 364 -4 q 301 -3 332 -4 q 244 -1 274 -1 q 190 0 214 0 q 138 -3 165 0 q 88 -8 111 -6 q 36 -17 61 -12 l 53 43 q 106 58 85 49 q 142 81 128 67 q 163 115 156 94 q 175 164 171 135 l 247 753 q 245 813 253 797 q 207 828 238 828 q 190 827 200 828 q 171 826 179 826 q 150 825 160 825 q 149 827 150 826 q 149 829 149 828 l 165 889 q 181 888 164 889 q 222 886 197 888 q 274 884 247 885 q 322 883 301 883 q 372 885 346 883 q 421 890 397 888 q 475 897 447 893 l 461 838 q 415 828 433 833 q 383 815 396 824 q 365 792 371 806 q 356 758 358 778 m 139 1021 l 343 1175 l 363 1175 l 529 1021 l 506 990 l 493 989 l 340 1079 l 167 989 l 154 990 l 139 1021 z "},"Ï":{"ha":482,"x_min":36,"x_max":514,"o":"m 356 758 q 322 560 339 664 q 291 366 306 457 q 270 228 276 275 q 261 161 264 181 q 258 118 258 132 q 270 71 258 83 q 310 58 282 58 q 333 58 321 58 q 357 60 346 58 q 381 63 369 61 l 383 57 l 364 -4 q 301 -3 332 -4 q 244 -1 274 -1 q 190 0 214 0 q 138 -3 165 0 q 88 -8 111 -6 q 36 -17 61 -12 l 53 43 q 106 58 85 49 q 142 81 128 67 q 163 115 156 94 q 175 164 171 135 l 247 753 q 245 813 253 797 q 207 828 238 828 q 190 827 200 828 q 171 826 179 826 q 150 825 160 825 q 149 827 150 826 q 149 829 149 828 l 165 889 q 181 888 164 889 q 222 886 197 888 q 274 884 247 885 q 322 883 301 883 q 372 885 346 883 q 421 890 397 888 q 475 897 447 893 l 461 838 q 415 828 433 833 q 383 815 396 824 q 365 792 371 806 q 356 758 358 778 m 436 1007 q 399 1024 411 1007 q 388 1060 388 1040 q 410 1113 388 1090 q 464 1136 432 1136 q 501 1120 489 1136 q 514 1083 514 1104 q 491 1030 514 1053 q 436 1007 468 1007 m 214 1007 q 177 1024 189 1007 q 165 1060 165 1040 q 188 1113 165 1090 q 242 1136 210 1136 q 279 1120 267 1136 q 292 1083 292 1104 q 269 1030 292 1053 q 214 1007 246 1007 z "},"İ":{"ha":482,"x_min":36,"x_max":475,"o":"m 356 758 q 322 560 339 664 q 291 366 306 457 q 270 228 276 275 q 261 161 264 181 q 258 118 258 132 q 270 71 258 83 q 310 58 282 58 q 333 58 321 58 q 357 60 346 58 q 381 63 369 61 l 383 57 l 364 -4 q 301 -3 332 -4 q 244 -1 274 -1 q 190 0 214 0 q 138 -3 165 0 q 88 -8 111 -6 q 36 -17 61 -12 l 53 43 q 106 58 85 49 q 142 81 128 67 q 163 115 156 94 q 175 164 171 135 l 247 753 q 245 813 253 797 q 207 828 238 828 q 190 827 200 828 q 171 826 179 826 q 150 825 160 825 q 149 827 150 826 q 149 829 149 828 l 165 889 q 181 888 164 889 q 222 886 197 888 q 274 884 247 885 q 322 883 301 883 q 372 885 346 883 q 421 890 397 888 q 475 897 447 893 l 461 838 q 415 828 433 833 q 383 815 396 824 q 365 792 371 806 q 356 758 358 778 m 325 999 q 279 1018 293 999 q 265 1061 265 1038 q 292 1124 265 1097 q 357 1151 318 1151 q 401 1132 386 1151 q 415 1089 415 1113 q 389 1026 415 1053 q 325 999 363 999 z "},"Ì":{"ha":482,"x_min":36,"x_max":475,"o":"m 356 758 q 322 560 339 664 q 291 366 306 457 q 270 228 276 275 q 261 161 264 181 q 258 118 258 132 q 270 71 258 83 q 310 58 282 58 q 333 58 321 58 q 357 60 346 58 q 381 63 369 61 l 383 57 l 364 -4 q 301 -3 332 -4 q 244 -1 274 -1 q 190 0 214 0 q 138 -3 165 0 q 88 -8 111 -6 q 36 -17 61 -12 l 53 43 q 106 58 85 49 q 142 81 128 67 q 163 115 156 94 q 175 164 171 135 l 247 753 q 245 813 253 797 q 207 828 238 828 q 190 827 200 828 q 171 826 179 826 q 150 825 160 825 q 149 827 150 826 q 149 829 149 828 l 165 889 q 181 888 164 889 q 222 886 197 888 q 274 884 247 885 q 322 883 301 883 q 372 885 346 883 q 421 890 397 888 q 475 897 447 893 l 461 838 q 415 828 433 833 q 383 815 396 824 q 365 792 371 806 q 356 758 358 778 m 132 1093 l 154 1160 l 167 1168 q 256 1118 210 1143 q 345 1069 296 1096 q 443 1017 394 1042 l 435 983 l 424 976 q 317 1015 368 997 q 226 1049 267 1033 q 138 1079 181 1064 l 132 1093 z "},"Ī":{"ha":482,"x_min":36,"x_max":539,"o":"m 356 758 q 322 560 339 664 q 291 366 306 457 q 270 228 276 275 q 261 161 264 181 q 258 118 258 132 q 270 71 258 83 q 310 58 282 58 q 333 58 321 58 q 357 60 346 58 q 381 63 369 61 l 383 57 l 364 -4 q 301 -3 332 -4 q 244 -1 274 -1 q 190 0 214 0 q 138 -3 165 0 q 88 -8 111 -6 q 36 -17 61 -12 l 53 43 q 106 58 85 49 q 142 81 128 67 q 163 115 156 94 q 175 164 171 135 l 247 753 q 245 813 253 797 q 207 828 238 828 q 190 827 200 828 q 171 826 179 826 q 150 825 160 825 q 149 827 150 826 q 149 829 149 828 l 165 889 q 181 888 164 889 q 222 886 197 888 q 274 884 247 885 q 322 883 301 883 q 372 885 346 883 q 421 890 397 888 q 475 897 447 893 l 461 838 q 415 828 433 833 q 383 815 396 824 q 365 792 371 806 q 356 758 358 778 m 539 1081 l 521 1015 l 331 1014 q 267 1013 301 1014 q 206 1013 233 1013 l 139 1013 l 132 1025 l 154 1088 q 226 1086 190 1086 l 358 1086 q 413 1087 383 1086 q 469 1090 443 1088 q 532 1094 500 1092 l 539 1081 z "},"Į":{"ha":482,"x_min":36,"x_max":475,"o":"m 372 -249 q 326 -283 351 -267 q 280 -313 306 -299 q 228 -336 254 -328 q 131 -306 168 -336 q 94 -221 94 -276 q 138 -113 94 -167 q 246 0 181 -60 l 190 0 q 138 -3 165 0 q 88 -8 111 -6 q 36 -17 61 -12 l 53 43 q 106 58 85 49 q 142 81 128 67 q 163 115 156 94 q 175 164 171 135 l 247 753 q 245 813 253 797 q 207 828 238 828 q 190 827 200 828 q 171 826 179 826 q 150 825 160 825 q 149 827 150 826 q 149 829 149 828 l 165 889 q 181 888 164 889 q 222 886 197 888 q 274 884 247 885 q 322 883 301 883 q 372 885 346 883 q 421 890 397 888 q 475 897 447 893 l 461 838 q 415 828 433 833 q 383 815 396 824 q 365 792 371 806 q 356 758 358 778 q 322 560 339 664 q 291 366 306 457 q 267 208 276 275 q 258 118 258 140 q 270 71 258 83 q 310 58 282 58 q 333 58 321 58 q 357 60 346 58 q 381 63 369 61 l 383 57 l 364 -4 q 346 -3 356 -3 q 326 -3 338 -3 q 304 -1 315 -3 q 248 -58 271 -33 q 210 -105 225 -83 q 190 -146 196 -126 q 183 -187 183 -165 q 201 -235 183 -217 q 251 -254 219 -254 q 290 -250 271 -254 q 324 -239 308 -246 q 358 -222 342 -232 l 372 -249 z "},"K":{"ha":835,"x_min":39,"x_max":867,"o":"m 247 753 q 245 813 253 797 q 207 828 238 828 q 193 827 200 828 q 179 826 186 826 q 163 825 171 825 l 160 829 l 176 889 q 231 886 204 888 q 278 884 254 885 q 322 883 303 883 q 368 885 343 883 q 414 890 393 888 q 463 897 439 893 l 451 838 q 379 813 400 831 q 351 754 358 794 l 261 151 q 263 77 253 96 q 310 58 274 58 q 330 58 319 58 q 350 60 340 58 q 371 63 361 61 l 374 57 l 353 -4 q 294 -3 324 -4 q 241 -1 269 -1 q 190 0 213 0 q 139 -1 165 0 q 90 -1 113 -1 l 39 -1 l 60 58 q 113 67 92 61 q 146 85 133 74 q 165 115 158 96 q 175 164 171 135 l 247 753 m 339 456 l 614 718 q 664 793 664 767 q 585 832 664 826 l 582 838 l 599 894 q 651 889 625 892 q 699 885 674 886 q 743 883 724 883 q 783 884 763 883 q 822 886 804 885 q 864 889 843 888 l 867 881 l 853 826 q 819 817 835 824 q 785 799 804 811 q 743 765 767 786 q 685 713 719 744 l 438 471 l 626 164 q 701 72 667 99 q 783 46 736 46 l 788 42 l 775 -3 l 725 -11 q 688 -17 706 -14 q 665 -19 671 -19 q 598 13 633 -19 q 531 100 563 44 l 336 438 l 339 456 z "},"Ķ":{"ha":840,"x_min":39,"x_max":867,"o":"m 247 753 q 245 813 253 797 q 207 828 238 828 q 193 827 200 828 q 179 826 186 826 q 163 825 171 825 l 160 829 l 176 889 q 231 886 204 888 q 278 884 254 885 q 322 883 303 883 q 368 885 343 883 q 414 890 393 888 q 463 897 439 893 l 451 838 q 379 813 400 831 q 351 754 358 794 l 261 151 q 263 77 253 96 q 310 58 274 58 q 330 58 319 58 q 350 60 340 58 q 371 63 361 61 l 374 57 l 353 -4 q 294 -3 324 -4 q 241 -1 269 -1 q 190 0 213 0 q 139 -1 165 0 q 90 -1 113 -1 l 39 -1 l 60 58 q 113 67 92 61 q 146 85 133 74 q 165 115 158 96 q 175 164 171 135 l 247 753 m 339 456 l 614 718 q 664 793 664 767 q 585 832 664 826 l 582 838 l 599 894 q 651 889 625 892 q 699 885 674 886 q 743 883 724 883 q 783 884 763 883 q 822 886 804 885 q 864 889 843 888 l 867 881 l 853 826 q 819 817 835 824 q 785 799 804 811 q 743 765 767 786 q 685 713 719 744 l 438 471 l 626 164 q 701 72 667 99 q 783 46 736 46 l 788 42 l 775 -3 l 725 -11 q 688 -17 706 -14 q 665 -19 671 -19 q 598 13 633 -19 q 531 100 563 44 l 336 438 l 339 456 m 308 -129 q 344 -106 322 -118 q 389 -93 365 -93 q 442 -119 421 -93 q 464 -192 464 -146 q 447 -262 464 -229 q 403 -322 429 -294 q 347 -370 378 -349 q 286 -407 315 -392 l 261 -386 l 261 -372 q 332 -308 303 -346 q 361 -235 361 -271 q 345 -185 361 -207 q 306 -149 329 -162 l 308 -129 z "},"L":{"ha":674,"x_min":53,"x_max":664,"o":"m 232 0 q 161 -2 194 0 q 104 -7 128 -4 q 53 -14 76 -11 l 69 46 q 144 78 122 54 q 174 163 167 103 l 247 753 q 244 813 253 799 q 207 828 235 828 q 192 827 200 828 q 178 826 185 826 q 161 825 169 825 q 160 827 161 826 q 160 829 160 828 l 176 889 q 192 888 176 889 q 231 886 208 888 q 279 884 254 885 q 324 883 304 883 q 369 885 344 883 q 414 890 393 888 q 463 897 439 893 l 451 839 q 406 829 422 835 q 378 810 389 824 q 362 773 368 797 q 347 706 356 749 q 331 612 340 667 q 312 497 321 557 q 294 375 303 436 q 277 263 285 314 q 265 174 269 211 q 261 126 261 138 q 265 92 261 106 q 281 70 269 78 q 314 60 293 63 q 367 57 335 57 q 463 63 425 57 q 526 90 501 69 q 569 150 551 111 q 604 253 586 189 l 663 258 q 663 256 663 257 q 664 253 664 254 q 640 174 653 215 q 617 91 629 138 q 593 -6 604 44 l 586 -12 q 456 -7 521 -10 q 339 -2 400 -4 q 232 0 278 0 z "},"Ĺ":{"ha":678,"x_min":53,"x_max":664,"o":"m 232 0 q 161 -2 194 0 q 104 -7 128 -4 q 53 -14 76 -11 l 69 46 q 144 78 122 54 q 174 163 167 103 l 247 753 q 244 813 253 799 q 207 828 235 828 q 192 827 200 828 q 178 826 185 826 q 161 825 169 825 q 160 827 161 826 q 160 829 160 828 l 176 889 q 192 888 176 889 q 231 886 208 888 q 279 884 254 885 q 324 883 304 883 q 369 885 344 883 q 414 890 393 888 q 463 897 439 893 l 451 839 q 406 829 422 835 q 378 810 389 824 q 362 773 368 797 q 347 706 356 749 q 331 612 340 667 q 312 497 321 557 q 294 375 303 436 q 277 263 285 314 q 265 174 269 211 q 261 126 261 138 q 265 92 261 106 q 281 70 269 78 q 314 60 293 63 q 367 57 335 57 q 463 63 425 57 q 526 90 501 69 q 569 150 551 111 q 604 253 586 189 l 663 258 q 663 256 663 257 q 664 253 664 254 q 640 174 653 215 q 617 91 629 138 q 593 -6 604 44 l 586 -12 q 456 -7 521 -10 q 339 -2 400 -4 q 232 0 278 0 m 560 1079 q 471 1049 517 1064 q 379 1015 431 1033 q 274 976 328 997 l 263 983 l 254 1017 q 352 1069 303 1042 q 442 1118 401 1096 q 531 1168 488 1143 l 543 1160 l 565 1093 l 560 1079 z "},"Ľ":{"ha":678,"x_min":53,"x_max":711,"o":"m 232 0 q 161 -2 194 0 q 104 -7 128 -4 q 53 -14 76 -11 l 69 46 q 144 78 122 54 q 174 163 167 103 l 247 753 q 244 813 253 799 q 207 828 235 828 q 192 827 200 828 q 178 826 185 826 q 161 825 169 825 q 160 827 161 826 q 160 829 160 828 l 176 889 q 192 888 176 889 q 231 886 208 888 q 279 884 254 885 q 324 883 304 883 q 369 885 344 883 q 414 890 393 888 q 463 897 439 893 l 451 839 q 406 829 422 835 q 378 810 389 824 q 362 773 368 797 q 347 706 356 749 q 331 612 340 667 q 312 497 321 557 q 294 375 303 436 q 277 263 285 314 q 265 174 269 211 q 261 126 261 138 q 265 92 261 106 q 281 70 269 78 q 314 60 293 63 q 367 57 335 57 q 463 63 425 57 q 526 90 501 69 q 569 150 551 111 q 604 253 586 189 l 663 258 q 663 256 663 257 q 664 253 664 254 q 640 174 653 215 q 617 91 629 138 q 593 -6 604 44 l 586 -12 q 456 -7 521 -10 q 339 -2 400 -4 q 232 0 278 0 m 711 871 q 686 776 700 825 q 660 682 675 735 q 629 576 646 629 l 590 557 l 576 560 q 591 672 585 618 q 600 768 597 725 q 606 863 604 818 l 704 882 l 711 871 z "},"Ļ":{"ha":678,"x_min":53,"x_max":664,"o":"m 232 0 q 161 -2 194 0 q 104 -7 128 -4 q 53 -14 76 -11 l 69 46 q 144 78 122 54 q 174 163 167 103 l 247 753 q 244 813 253 799 q 207 828 235 828 q 192 827 200 828 q 178 826 185 826 q 161 825 169 825 q 160 827 161 826 q 160 829 160 828 l 176 889 q 192 888 176 889 q 231 886 208 888 q 279 884 254 885 q 324 883 304 883 q 369 885 344 883 q 414 890 393 888 q 463 897 439 893 l 451 839 q 406 829 422 835 q 378 810 389 824 q 362 773 368 797 q 347 706 356 749 q 331 612 340 667 q 312 497 321 557 q 294 375 303 436 q 277 263 285 314 q 265 174 269 211 q 261 126 261 138 q 265 92 261 106 q 281 70 269 78 q 314 60 293 63 q 367 57 335 57 q 463 63 425 57 q 526 90 501 69 q 569 150 551 111 q 604 253 586 189 l 663 258 q 663 256 663 257 q 664 253 664 254 q 640 174 653 215 q 617 91 629 138 q 593 -6 604 44 l 586 -12 q 456 -7 521 -10 q 339 -2 400 -4 q 232 0 278 0 m 267 -129 q 302 -106 281 -118 q 347 -93 324 -93 q 401 -119 379 -93 q 422 -192 422 -146 q 405 -262 422 -229 q 362 -322 388 -294 q 305 -370 336 -349 q 244 -407 274 -392 l 219 -386 l 219 -372 q 290 -308 261 -346 q 319 -235 319 -271 q 303 -185 319 -207 q 264 -149 288 -162 l 267 -129 z "},"Ŀ":{"ha":678,"x_min":53,"x_max":701,"o":"m 232 0 q 161 -2 194 0 q 104 -7 128 -4 q 53 -14 76 -11 l 69 46 q 144 78 122 54 q 174 163 167 103 l 247 753 q 244 813 253 799 q 207 828 235 828 q 192 827 200 828 q 178 826 185 826 q 161 825 169 825 q 160 827 161 826 q 160 829 160 828 l 176 889 q 192 888 176 889 q 231 886 208 888 q 279 884 254 885 q 324 883 304 883 q 369 885 344 883 q 414 890 393 888 q 463 897 439 893 l 451 839 q 406 829 422 835 q 378 810 389 824 q 362 773 368 797 q 347 706 356 749 q 331 612 340 667 q 312 497 321 557 q 294 375 303 436 q 277 263 285 314 q 265 174 269 211 q 261 126 261 138 q 265 92 261 106 q 281 70 269 78 q 314 60 293 63 q 367 57 335 57 q 463 63 425 57 q 526 90 501 69 q 569 150 551 111 q 604 253 586 189 l 663 258 q 663 256 663 257 q 664 253 664 254 q 640 174 653 215 q 617 91 629 138 q 593 -6 604 44 l 586 -12 q 456 -7 521 -10 q 339 -2 400 -4 q 232 0 278 0 m 604 574 q 552 594 568 574 q 536 643 536 615 q 563 710 536 682 q 632 739 590 739 q 684 719 667 739 q 701 669 701 699 q 674 602 701 631 q 604 574 647 574 z "},"·":{"ha":318,"x_min":79,"x_max":243,"o":"m 146 233 q 94 254 110 233 q 79 303 79 275 q 106 370 79 342 q 174 399 132 399 q 226 378 208 399 q 243 329 243 358 q 216 262 243 290 q 146 233 189 233 z "},"Ł":{"ha":678,"x_min":47,"x_max":664,"o":"m 232 0 q 161 -2 194 0 q 104 -7 128 -4 q 53 -14 76 -11 l 69 46 q 144 78 122 54 q 174 163 167 103 l 207 428 l 67 358 l 54 363 l 47 407 l 214 490 l 247 753 q 244 813 253 799 q 207 828 235 828 q 192 827 200 828 q 178 826 185 826 q 161 825 169 825 q 160 827 161 826 q 160 829 160 828 l 176 889 q 192 888 176 889 q 231 886 208 888 q 279 884 254 885 q 324 883 304 883 q 369 885 344 883 q 414 890 393 888 q 463 897 439 893 l 451 839 q 406 829 422 835 q 378 810 389 824 q 362 773 368 797 q 347 706 356 749 l 317 532 l 515 631 l 526 624 l 533 581 l 307 469 q 290 355 299 411 q 276 251 282 299 q 265 171 269 204 q 261 126 261 138 q 265 92 261 106 q 281 70 269 78 q 314 60 293 63 q 367 57 335 57 q 463 63 425 57 q 526 90 501 69 q 569 150 551 111 q 604 253 586 189 l 663 258 q 663 256 663 257 q 664 253 664 254 q 640 174 653 215 q 617 91 629 138 q 593 -6 604 44 l 586 -12 q 456 -7 521 -10 q 339 -2 400 -4 q 232 0 278 0 z "},"M":{"ha":1129,"x_min":24,"x_max":1097,"o":"m 490 -26 q 406 349 449 160 q 321 735 364 539 l 315 735 q 253 424 279 561 q 231 308 242 365 q 211 204 219 250 q 197 128 203 158 q 192 92 192 97 q 228 57 192 57 l 261 57 q 283 58 272 57 q 284 56 283 57 q 285 54 285 56 l 265 -6 q 218 -3 242 -4 q 176 -1 199 -1 q 138 0 154 0 q 98 -1 118 0 q 61 -6 78 -3 q 24 -11 42 -8 l 39 49 q 102 78 81 56 q 136 157 124 100 q 153 238 142 183 q 179 357 165 292 q 208 492 193 422 q 235 622 222 563 q 255 722 247 681 q 263 771 263 763 q 237 819 263 803 q 154 840 211 836 l 151 846 l 167 890 q 222 886 196 888 q 270 884 246 885 q 310 883 294 883 q 340 884 325 883 q 368 886 356 885 q 397 889 383 888 q 452 603 425 732 q 501 382 479 475 q 550 186 526 274 l 556 186 q 646 382 597 274 q 744 603 688 475 q 867 888 800 732 q 876 888 867 889 q 899 886 885 888 q 926 884 913 885 q 950 883 940 883 q 990 884 965 883 q 1038 888 1014 885 q 1096 892 1065 889 q 1097 889 1096 890 q 1097 886 1097 888 l 1085 839 q 999 815 1025 832 q 971 763 974 797 q 965 685 969 749 q 956 537 961 622 q 947 358 951 451 q 942 190 943 265 q 942 123 940 149 q 950 83 944 97 q 965 63 956 68 q 992 57 975 57 q 1004 57 997 57 q 1017 58 1011 57 q 1029 60 1022 58 q 1030 58 1029 58 q 1031 56 1031 57 l 1011 -4 q 967 -3 989 -4 q 926 -1 947 -1 q 886 0 904 0 q 840 -1 864 0 q 796 -6 815 -3 q 750 -11 772 -8 l 763 49 q 825 71 804 54 q 850 118 846 88 q 853 158 851 126 q 856 234 854 189 q 861 334 858 279 q 867 444 864 389 q 879 735 872 575 l 872 735 q 695 353 783 539 q 519 -18 607 167 l 490 -26 z "},"N":{"ha":957,"x_min":47,"x_max":985,"o":"m 728 186 l 800 767 q 763 826 806 826 q 728 826 744 826 q 713 825 711 825 l 710 831 l 729 889 q 774 886 751 888 q 815 884 793 885 q 853 883 836 883 q 897 885 874 883 q 939 889 919 886 q 985 896 963 892 l 971 835 q 899 808 924 828 q 868 747 875 788 l 754 -39 l 719 -58 q 567 247 640 104 q 436 496 493 389 q 313 725 369 621 l 307 725 l 224 113 q 227 69 219 81 q 258 58 235 58 l 326 58 l 329 54 l 310 -6 q 263 -3 288 -4 q 217 -1 242 -1 q 171 0 193 0 q 131 -1 151 0 q 90 -6 110 -3 q 47 -11 68 -8 l 63 49 q 126 74 104 54 q 156 136 149 93 l 249 751 q 231 811 254 793 q 142 836 208 829 q 141 840 142 839 q 140 843 140 840 l 156 890 q 199 886 178 888 q 235 884 217 885 q 268 883 254 883 q 299 884 283 883 q 328 886 315 885 q 354 889 343 888 q 488 624 422 750 q 606 400 553 499 q 722 186 667 285 l 728 186 z "},"Ń":{"ha":960,"x_min":47,"x_max":985,"o":"m 728 186 l 800 767 q 763 826 806 826 q 728 826 744 826 q 713 825 711 825 l 710 831 l 729 889 q 774 886 751 888 q 815 884 793 885 q 853 883 836 883 q 897 885 874 883 q 939 889 919 886 q 985 896 963 892 l 971 835 q 899 808 924 828 q 868 747 875 788 l 754 -39 l 719 -58 q 567 247 640 104 q 436 496 493 389 q 313 725 369 621 l 307 725 l 224 113 q 227 69 219 81 q 258 58 235 58 l 326 58 l 329 54 l 310 -6 q 263 -3 288 -4 q 217 -1 242 -1 q 171 0 193 0 q 131 -1 151 0 q 90 -6 110 -3 q 47 -11 68 -8 l 63 49 q 126 74 104 54 q 156 136 149 93 l 249 751 q 231 811 254 793 q 142 836 208 829 q 141 840 142 839 q 140 843 140 840 l 156 890 q 199 886 178 888 q 235 884 217 885 q 268 883 254 883 q 299 884 283 883 q 328 886 315 885 q 354 889 343 888 q 488 624 422 750 q 606 400 553 499 q 722 186 667 285 l 728 186 m 797 1079 q 708 1049 754 1064 q 617 1015 668 1033 q 511 976 565 997 l 500 983 l 492 1017 q 590 1069 540 1042 q 679 1118 639 1096 q 768 1168 725 1143 l 781 1160 l 803 1093 l 797 1079 z "},"Ň":{"ha":960,"x_min":47,"x_max":985,"o":"m 728 186 l 800 767 q 763 826 806 826 q 728 826 744 826 q 713 825 711 825 l 710 831 l 729 889 q 774 886 751 888 q 815 884 793 885 q 853 883 836 883 q 897 885 874 883 q 939 889 919 886 q 985 896 963 892 l 971 835 q 899 808 924 828 q 868 747 875 788 l 754 -39 l 719 -58 q 567 247 640 104 q 436 496 493 389 q 313 725 369 621 l 307 725 l 224 113 q 227 69 219 81 q 258 58 235 58 l 326 58 l 329 54 l 310 -6 q 263 -3 288 -4 q 217 -1 242 -1 q 171 0 193 0 q 131 -1 151 0 q 90 -6 110 -3 q 47 -11 68 -8 l 63 49 q 126 74 104 54 q 156 136 149 93 l 249 751 q 231 811 254 793 q 142 836 208 829 q 141 840 142 839 q 140 843 140 840 l 156 890 q 199 886 178 888 q 235 884 217 885 q 268 883 254 883 q 299 884 283 883 q 328 886 315 885 q 354 889 343 888 q 488 624 422 750 q 606 400 553 499 q 722 186 667 285 l 728 186 m 788 1132 l 582 978 l 564 978 l 397 1132 l 419 1163 l 433 1164 l 585 1074 l 758 1164 l 771 1163 l 788 1132 z "},"Ņ":{"ha":960,"x_min":47,"x_max":985,"o":"m 728 186 l 800 767 q 763 826 806 826 q 728 826 744 826 q 713 825 711 825 l 710 831 l 729 889 q 774 886 751 888 q 815 884 793 885 q 853 883 836 883 q 897 885 874 883 q 939 889 919 886 q 985 896 963 892 l 971 835 q 899 808 924 828 q 868 747 875 788 l 754 -39 l 719 -58 q 567 247 640 104 q 436 496 493 389 q 313 725 369 621 l 307 725 l 224 113 q 227 69 219 81 q 258 58 235 58 l 326 58 l 329 54 l 310 -6 q 263 -3 288 -4 q 217 -1 242 -1 q 171 0 193 0 q 131 -1 151 0 q 90 -6 110 -3 q 47 -11 68 -8 l 63 49 q 126 74 104 54 q 156 136 149 93 l 249 751 q 231 811 254 793 q 142 836 208 829 q 141 840 142 839 q 140 843 140 840 l 156 890 q 199 886 178 888 q 235 884 217 885 q 268 883 254 883 q 299 884 283 883 q 328 886 315 885 q 354 889 343 888 q 488 624 422 750 q 606 400 553 499 q 722 186 667 285 l 728 186 m 358 -129 q 394 -106 372 -118 q 439 -93 415 -93 q 492 -119 471 -93 q 514 -192 514 -146 q 497 -262 514 -229 q 453 -322 479 -294 q 397 -370 428 -349 q 336 -407 365 -392 l 311 -386 l 311 -372 q 382 -308 353 -346 q 411 -235 411 -271 q 395 -185 411 -207 q 356 -149 379 -162 l 358 -129 z "},"Ñ":{"ha":960,"x_min":47,"x_max":985,"o":"m 728 186 l 800 767 q 763 826 806 826 q 728 826 744 826 q 713 825 711 825 l 710 831 l 729 889 q 774 886 751 888 q 815 884 793 885 q 853 883 836 883 q 897 885 874 883 q 939 889 919 886 q 985 896 963 892 l 971 835 q 899 808 924 828 q 868 747 875 788 l 754 -39 l 719 -58 q 567 247 640 104 q 436 496 493 389 q 313 725 369 621 l 307 725 l 224 113 q 227 69 219 81 q 258 58 235 58 l 326 58 l 329 54 l 310 -6 q 263 -3 288 -4 q 217 -1 242 -1 q 171 0 193 0 q 131 -1 151 0 q 90 -6 110 -3 q 47 -11 68 -8 l 63 49 q 126 74 104 54 q 156 136 149 93 l 249 751 q 231 811 254 793 q 142 836 208 829 q 141 840 142 839 q 140 843 140 840 l 156 890 q 199 886 178 888 q 235 884 217 885 q 268 883 254 883 q 299 884 283 883 q 328 886 315 885 q 354 889 343 888 q 488 624 422 750 q 606 400 553 499 q 722 186 667 285 l 728 186 m 385 971 l 357 1000 l 358 1007 l 474 1117 l 494 1122 q 538 1115 511 1122 q 592 1099 564 1108 q 646 1083 621 1090 q 685 1076 671 1076 q 711 1086 696 1076 q 742 1107 726 1096 q 776 1139 758 1121 l 785 1139 l 811 1110 l 811 1103 l 696 993 l 674 988 q 631 994 657 988 q 576 1010 604 1001 q 524 1026 549 1019 q 485 1033 499 1033 q 457 1023 472 1033 q 426 1001 442 1013 q 393 971 410 988 l 385 971 z "},"O":{"ha":924,"x_min":63,"x_max":894,"o":"m 432 49 q 568 81 506 49 q 676 170 631 113 q 748 306 722 228 q 774 476 774 385 q 755 619 774 556 q 701 728 736 683 q 619 799 667 774 q 511 824 571 824 q 378 791 439 824 q 272 701 317 758 q 201 565 226 643 q 176 396 176 488 q 194 253 176 317 q 246 144 213 189 q 326 74 279 99 q 432 49 374 49 m 397 -17 q 262 10 324 -17 q 156 86 200 38 q 87 203 111 135 q 63 353 63 271 q 101 565 63 465 q 207 739 140 664 q 363 857 274 814 q 551 900 451 900 q 691 873 628 900 q 799 797 754 846 q 869 679 844 747 q 894 531 894 611 q 855 318 894 418 q 748 144 815 218 q 590 26 681 69 q 397 -17 499 -17 z "},"Œ":{"ha":1282,"x_min":63,"x_max":1258,"o":"m 758 146 q 756 101 754 118 q 766 76 757 85 q 796 65 775 68 q 853 63 817 63 q 978 67 931 63 q 1053 90 1025 72 q 1097 141 1081 107 q 1128 232 1113 175 l 1190 239 l 1193 232 q 1171 160 1182 197 q 1150 85 1161 128 q 1129 -1 1139 43 l 1121 -10 q 967 -4 1042 -7 q 833 0 903 -1 q 715 1 764 1 q 620 -1 664 1 q 537 -8 576 -4 q 460 -14 497 -11 q 389 -17 424 -17 q 257 10 317 -17 q 154 86 197 38 q 87 202 111 135 q 63 351 63 269 q 100 566 63 465 q 203 741 138 667 q 356 858 268 815 q 542 901 443 901 q 687 892 611 901 q 846 882 763 882 q 1084 886 988 882 q 1254 901 1181 890 l 1258 893 q 1238 825 1249 861 q 1217 752 1228 793 q 1199 663 1207 711 l 1131 657 q 1136 688 1133 672 q 1141 716 1139 701 q 1143 744 1143 731 q 1135 782 1143 768 q 1106 803 1128 796 q 1047 813 1085 811 q 950 815 1010 815 q 899 814 918 815 q 872 808 881 813 q 858 792 863 803 q 851 761 854 781 l 807 492 l 944 490 q 991 492 963 490 q 1046 497 1019 494 q 1110 506 1076 501 l 1114 499 l 1085 417 q 1019 418 1053 417 q 959 420 992 419 q 900 421 926 421 l 794 411 l 776 278 l 758 146 m 425 56 q 533 68 488 56 q 610 108 579 81 q 659 181 640 136 q 686 289 678 225 l 732 649 q 731 733 738 700 q 700 786 725 767 q 631 813 675 806 q 515 821 586 821 q 386 789 446 821 q 282 700 326 757 q 213 564 238 643 q 188 389 188 485 q 204 253 188 314 q 251 148 221 192 q 326 80 282 104 q 425 56 369 56 z "},"Ó":{"ha":921,"x_min":63,"x_max":894,"o":"m 432 49 q 568 81 506 49 q 676 170 631 113 q 748 306 722 228 q 774 476 774 385 q 755 619 774 556 q 701 728 736 683 q 619 799 667 774 q 511 824 571 824 q 378 791 439 824 q 272 701 317 758 q 201 565 226 643 q 176 396 176 488 q 194 253 176 317 q 246 144 213 189 q 326 74 279 99 q 432 49 374 49 m 397 -17 q 262 10 324 -17 q 156 86 200 38 q 87 203 111 135 q 63 353 63 271 q 101 565 63 465 q 207 739 140 664 q 363 857 274 814 q 551 900 451 900 q 691 873 628 900 q 799 797 754 846 q 869 679 844 747 q 894 531 894 611 q 855 318 894 418 q 748 144 815 218 q 590 26 681 69 q 397 -17 499 -17 m 729 1079 q 640 1049 686 1064 q 549 1015 600 1033 q 443 976 497 997 l 432 983 l 424 1017 q 522 1069 472 1042 q 611 1118 571 1096 q 700 1168 657 1143 l 713 1160 l 735 1093 l 729 1079 z "},"Ô":{"ha":921,"x_min":63,"x_max":894,"o":"m 432 49 q 568 81 506 49 q 676 170 631 113 q 748 306 722 228 q 774 476 774 385 q 755 619 774 556 q 701 728 736 683 q 619 799 667 774 q 511 824 571 824 q 378 791 439 824 q 272 701 317 758 q 201 565 226 643 q 176 396 176 488 q 194 253 176 317 q 246 144 213 189 q 326 74 279 99 q 432 49 374 49 m 397 -17 q 262 10 324 -17 q 156 86 200 38 q 87 203 111 135 q 63 353 63 271 q 101 565 63 465 q 207 739 140 664 q 363 857 274 814 q 551 900 451 900 q 691 873 628 900 q 799 797 754 846 q 869 679 844 747 q 894 531 894 611 q 855 318 894 418 q 748 144 815 218 q 590 26 681 69 q 397 -17 499 -17 m 343 1021 l 547 1175 l 567 1175 l 733 1021 l 710 990 l 697 989 l 544 1079 l 371 989 l 358 990 l 343 1021 z "},"Ö":{"ha":921,"x_min":63,"x_max":894,"o":"m 432 49 q 568 81 506 49 q 676 170 631 113 q 748 306 722 228 q 774 476 774 385 q 755 619 774 556 q 701 728 736 683 q 619 799 667 774 q 511 824 571 824 q 378 791 439 824 q 272 701 317 758 q 201 565 226 643 q 176 396 176 488 q 194 253 176 317 q 246 144 213 189 q 326 74 279 99 q 432 49 374 49 m 397 -17 q 262 10 324 -17 q 156 86 200 38 q 87 203 111 135 q 63 353 63 271 q 101 565 63 465 q 207 739 140 664 q 363 857 274 814 q 551 900 451 900 q 691 873 628 900 q 799 797 754 846 q 869 679 844 747 q 894 531 894 611 q 855 318 894 418 q 748 144 815 218 q 590 26 681 69 q 397 -17 499 -17 m 640 1007 q 603 1024 615 1007 q 592 1060 592 1040 q 614 1113 592 1090 q 668 1136 636 1136 q 706 1120 693 1136 q 718 1083 718 1104 q 695 1030 718 1053 q 640 1007 672 1007 m 418 1007 q 381 1024 393 1007 q 369 1060 369 1040 q 392 1113 369 1090 q 446 1136 414 1136 q 483 1120 471 1136 q 496 1083 496 1104 q 473 1030 496 1053 q 418 1007 450 1007 z "},"Ò":{"ha":921,"x_min":63,"x_max":894,"o":"m 432 49 q 568 81 506 49 q 676 170 631 113 q 748 306 722 228 q 774 476 774 385 q 755 619 774 556 q 701 728 736 683 q 619 799 667 774 q 511 824 571 824 q 378 791 439 824 q 272 701 317 758 q 201 565 226 643 q 176 396 176 488 q 194 253 176 317 q 246 144 213 189 q 326 74 279 99 q 432 49 374 49 m 397 -17 q 262 10 324 -17 q 156 86 200 38 q 87 203 111 135 q 63 353 63 271 q 101 565 63 465 q 207 739 140 664 q 363 857 274 814 q 551 900 451 900 q 691 873 628 900 q 799 797 754 846 q 869 679 844 747 q 894 531 894 611 q 855 318 894 418 q 748 144 815 218 q 590 26 681 69 q 397 -17 499 -17 m 350 1093 l 372 1160 l 385 1168 q 474 1118 428 1143 q 563 1069 514 1096 q 661 1017 613 1042 l 653 983 l 642 976 q 535 1015 586 997 q 444 1049 485 1033 q 356 1079 399 1064 l 350 1093 z "},"Ő":{"ha":921,"x_min":63,"x_max":894,"o":"m 432 49 q 568 81 506 49 q 676 170 631 113 q 748 306 722 228 q 774 476 774 385 q 755 619 774 556 q 701 728 736 683 q 619 799 667 774 q 511 824 571 824 q 378 791 439 824 q 272 701 317 758 q 201 565 226 643 q 176 396 176 488 q 194 253 176 317 q 246 144 213 189 q 326 74 279 99 q 432 49 374 49 m 397 -17 q 262 10 324 -17 q 156 86 200 38 q 87 203 111 135 q 63 353 63 271 q 101 565 63 465 q 207 739 140 664 q 363 857 274 814 q 551 900 451 900 q 691 873 628 900 q 799 797 754 846 q 869 679 844 747 q 894 531 894 611 q 855 318 894 418 q 748 144 815 218 q 590 26 681 69 q 397 -17 499 -17 m 614 1085 q 543 1049 579 1068 q 471 1010 511 1032 q 386 964 431 988 l 375 971 l 363 1000 q 438 1056 400 1028 q 506 1108 475 1085 q 575 1163 542 1136 l 588 1157 l 618 1097 l 614 1085 m 808 1072 q 738 1036 774 1056 q 665 997 706 1019 q 581 951 625 975 l 571 957 l 557 986 q 632 1043 594 1014 q 700 1096 669 1072 q 769 1150 736 1124 l 782 1143 l 813 1085 l 808 1072 z "},"Ō":{"ha":921,"x_min":63,"x_max":894,"o":"m 432 49 q 568 81 506 49 q 676 170 631 113 q 748 306 722 228 q 774 476 774 385 q 755 619 774 556 q 701 728 736 683 q 619 799 667 774 q 511 824 571 824 q 378 791 439 824 q 272 701 317 758 q 201 565 226 643 q 176 396 176 488 q 194 253 176 317 q 246 144 213 189 q 326 74 279 99 q 432 49 374 49 m 397 -17 q 262 10 324 -17 q 156 86 200 38 q 87 203 111 135 q 63 353 63 271 q 101 565 63 465 q 207 739 140 664 q 363 857 274 814 q 551 900 451 900 q 691 873 628 900 q 799 797 754 846 q 869 679 844 747 q 894 531 894 611 q 855 318 894 418 q 748 144 815 218 q 590 26 681 69 q 397 -17 499 -17 m 757 1081 l 739 1015 l 549 1014 q 485 1013 519 1014 q 424 1013 451 1013 l 357 1013 l 350 1025 l 372 1088 q 444 1086 408 1086 l 576 1086 q 631 1087 601 1086 q 688 1090 661 1088 q 750 1094 718 1092 l 757 1081 z "},"Ø":{"ha":921,"x_min":63,"x_max":894,"o":"m 224 29 q 106 159 149 75 q 63 353 63 243 q 101 565 63 465 q 207 739 140 664 q 363 857 274 814 q 551 900 451 900 q 669 881 614 900 l 724 983 l 764 974 l 768 957 l 715 860 q 847 729 799 815 q 894 531 894 643 q 855 318 894 418 q 748 144 815 218 q 590 26 681 69 q 397 -17 499 -17 q 329 -10 361 -17 q 267 8 297 -3 l 190 -136 l 153 -128 l 150 -114 l 224 29 m 432 49 q 568 81 506 49 q 676 170 631 113 q 748 306 722 228 q 774 476 774 385 q 745 648 774 574 q 665 767 717 722 l 307 85 q 432 49 363 49 m 176 396 q 201 233 176 304 q 269 117 225 161 l 625 794 q 572 816 600 808 q 511 824 543 824 q 378 791 439 824 q 272 701 317 758 q 201 565 226 643 q 176 396 176 488 z "},"Õ":{"ha":921,"x_min":63,"x_max":894,"o":"m 432 49 q 568 81 506 49 q 676 170 631 113 q 748 306 722 228 q 774 476 774 385 q 755 619 774 556 q 701 728 736 683 q 619 799 667 774 q 511 824 571 824 q 378 791 439 824 q 272 701 317 758 q 201 565 226 643 q 176 396 176 488 q 194 253 176 317 q 246 144 213 189 q 326 74 279 99 q 432 49 374 49 m 397 -17 q 262 10 324 -17 q 156 86 200 38 q 87 203 111 135 q 63 353 63 271 q 101 565 63 465 q 207 739 140 664 q 363 857 274 814 q 551 900 451 900 q 691 873 628 900 q 799 797 754 846 q 869 679 844 747 q 894 531 894 611 q 855 318 894 418 q 748 144 815 218 q 590 26 681 69 q 397 -17 499 -17 m 358 971 l 331 1000 l 332 1007 l 447 1117 l 468 1122 q 511 1115 485 1122 q 566 1099 538 1108 q 619 1083 594 1090 q 658 1076 644 1076 q 685 1086 669 1076 q 715 1107 700 1096 q 750 1139 732 1121 l 758 1139 l 785 1110 l 785 1103 l 669 993 l 647 988 q 604 994 631 988 q 550 1010 578 1001 q 497 1026 522 1019 q 458 1033 472 1033 q 431 1023 446 1033 q 400 1001 415 1013 q 367 971 383 988 l 358 971 z "},"P":{"ha":733,"x_min":47,"x_max":743,"o":"m 176 889 q 191 888 175 889 q 230 886 207 888 q 278 884 253 885 q 322 883 303 883 q 362 884 336 883 q 413 886 388 885 q 475 889 442 888 q 672 835 601 889 q 743 679 743 782 q 716 553 743 614 q 643 445 689 492 q 538 370 597 399 q 415 342 479 342 l 288 342 l 256 128 q 261 72 249 88 q 308 57 274 57 q 331 58 318 57 q 356 60 344 58 q 382 63 369 61 q 383 60 382 61 q 383 57 383 58 l 364 -4 q 351 -3 364 -4 q 321 -2 339 -3 q 282 -1 303 -1 q 246 0 261 0 q 184 -1 218 0 q 120 -4 150 -3 q 69 -8 90 -6 q 47 -11 49 -10 l 64 49 q 114 62 94 54 q 146 82 133 69 q 165 114 158 94 q 175 163 171 133 l 247 753 q 244 813 253 797 q 207 828 236 828 q 193 827 200 828 q 179 826 186 826 q 163 825 171 825 l 160 831 l 176 889 m 440 397 q 585 478 535 413 q 635 651 635 543 q 578 785 635 743 q 403 828 522 828 q 372 825 375 828 q 365 808 368 822 q 331 619 347 721 q 301 418 315 518 l 440 397 z "},"Q":{"ha":931,"x_min":63,"x_max":1022,"o":"m 397 -17 q 262 10 324 -17 q 156 86 200 38 q 87 203 111 135 q 63 353 63 271 q 101 565 63 465 q 207 739 140 664 q 363 857 274 814 q 551 900 451 900 q 691 873 628 900 q 799 797 754 846 q 869 679 844 747 q 894 531 894 611 q 866 348 894 435 q 786 191 838 261 q 665 72 735 121 q 515 0 596 22 l 515 -8 q 635 -96 581 -60 q 735 -154 689 -132 q 823 -186 782 -176 q 904 -196 864 -196 q 982 -189 950 -196 q 1013 -182 999 -186 l 1018 -185 l 1022 -206 q 965 -251 992 -232 q 920 -283 942 -269 q 889 -297 899 -297 q 798 -287 840 -297 q 703 -247 756 -276 q 578 -162 650 -217 q 399 -17 506 -107 l 397 -17 m 432 49 q 568 81 506 49 q 676 170 631 113 q 748 306 722 228 q 774 476 774 385 q 755 619 774 556 q 701 728 736 683 q 619 799 667 774 q 511 824 571 824 q 378 791 439 824 q 272 701 317 758 q 201 565 226 643 q 176 396 176 488 q 194 253 176 317 q 246 144 213 189 q 326 74 279 99 q 432 49 374 49 z "},"R":{"ha":813,"x_min":39,"x_max":782,"o":"m 294 383 l 264 169 q 258 109 258 132 q 267 74 258 86 q 295 58 276 61 q 346 54 314 54 l 347 50 l 329 -6 q 283 -4 307 -6 q 239 -3 264 -3 q 190 -1 214 -3 q 139 -1 165 -1 q 90 -3 113 -1 q 39 -6 65 -4 l 58 54 q 111 64 90 58 q 145 81 132 69 q 165 113 158 93 q 175 163 171 132 l 247 751 q 244 813 253 797 q 207 828 236 828 q 193 827 200 828 q 179 826 186 826 q 163 825 171 825 l 160 831 l 176 889 q 231 886 204 888 q 278 884 254 885 q 322 883 303 883 q 364 884 339 883 q 413 886 389 885 q 471 889 440 888 q 574 876 526 889 q 654 838 621 863 q 706 777 688 813 q 725 699 725 742 q 671 531 725 607 q 507 407 617 456 l 625 160 q 690 67 657 93 q 778 42 722 42 l 782 38 l 769 -7 l 657 -22 q 590 14 624 -22 q 532 110 557 50 l 421 383 l 294 383 m 443 442 q 469 451 442 442 q 528 486 496 460 q 588 558 561 513 q 615 675 615 603 q 390 836 615 836 q 372 830 376 836 q 361 804 367 824 q 328 612 339 693 q 307 456 317 531 l 443 442 z "},"Ŕ":{"ha":818,"x_min":39,"x_max":782,"o":"m 294 383 l 264 169 q 258 109 258 132 q 267 74 258 86 q 295 58 276 61 q 346 54 314 54 l 347 50 l 329 -6 q 283 -4 307 -6 q 239 -3 264 -3 q 190 -1 214 -3 q 139 -1 165 -1 q 90 -3 113 -1 q 39 -6 65 -4 l 58 54 q 111 64 90 58 q 145 81 132 69 q 165 113 158 93 q 175 163 171 132 l 247 751 q 244 813 253 797 q 207 828 236 828 q 193 827 200 828 q 179 826 186 826 q 163 825 171 825 l 160 831 l 176 889 q 231 886 204 888 q 278 884 254 885 q 322 883 303 883 q 364 884 339 883 q 413 886 389 885 q 471 889 440 888 q 574 876 526 889 q 654 838 621 863 q 706 777 688 813 q 725 699 725 742 q 671 531 725 607 q 507 407 617 456 l 625 160 q 690 67 657 93 q 778 42 722 42 l 782 38 l 769 -7 l 657 -22 q 590 14 624 -22 q 532 110 557 50 l 421 383 l 294 383 m 443 442 q 469 451 442 442 q 528 486 496 460 q 588 558 561 513 q 615 675 615 603 q 390 836 615 836 q 372 830 376 836 q 361 804 367 824 q 328 612 339 693 q 307 456 317 531 l 443 442 m 706 1079 q 617 1049 663 1064 q 525 1015 576 1033 q 419 976 474 997 l 408 983 l 400 1017 q 498 1069 449 1042 q 588 1118 547 1096 q 676 1168 633 1143 l 689 1160 l 711 1093 l 706 1079 z "},"Ř":{"ha":818,"x_min":39,"x_max":782,"o":"m 294 383 l 264 169 q 258 109 258 132 q 267 74 258 86 q 295 58 276 61 q 346 54 314 54 l 347 50 l 329 -6 q 283 -4 307 -6 q 239 -3 264 -3 q 190 -1 214 -3 q 139 -1 165 -1 q 90 -3 113 -1 q 39 -6 65 -4 l 58 54 q 111 64 90 58 q 145 81 132 69 q 165 113 158 93 q 175 163 171 132 l 247 751 q 244 813 253 797 q 207 828 236 828 q 193 827 200 828 q 179 826 186 826 q 163 825 171 825 l 160 831 l 176 889 q 231 886 204 888 q 278 884 254 885 q 322 883 303 883 q 364 884 339 883 q 413 886 389 885 q 471 889 440 888 q 574 876 526 889 q 654 838 621 863 q 706 777 688 813 q 725 699 725 742 q 671 531 725 607 q 507 407 617 456 l 625 160 q 690 67 657 93 q 778 42 722 42 l 782 38 l 769 -7 l 657 -22 q 590 14 624 -22 q 532 110 557 50 l 421 383 l 294 383 m 443 442 q 469 451 442 442 q 528 486 496 460 q 588 558 561 513 q 615 675 615 603 q 390 836 615 836 q 372 830 376 836 q 361 804 367 824 q 328 612 339 693 q 307 456 317 531 l 443 442 m 696 1132 l 490 978 l 472 978 l 306 1132 l 328 1163 l 342 1164 l 493 1074 l 667 1164 l 679 1163 l 696 1132 z "},"Ŗ":{"ha":818,"x_min":39,"x_max":782,"o":"m 294 383 l 264 169 q 258 109 258 132 q 267 74 258 86 q 295 58 276 61 q 346 54 314 54 l 347 50 l 329 -6 q 283 -4 307 -6 q 239 -3 264 -3 q 190 -1 214 -3 q 139 -1 165 -1 q 90 -3 113 -1 q 39 -6 65 -4 l 58 54 q 111 64 90 58 q 145 81 132 69 q 165 113 158 93 q 175 163 171 132 l 247 751 q 244 813 253 797 q 207 828 236 828 q 193 827 200 828 q 179 826 186 826 q 163 825 171 825 l 160 831 l 176 889 q 231 886 204 888 q 278 884 254 885 q 322 883 303 883 q 364 884 339 883 q 413 886 389 885 q 471 889 440 888 q 574 876 526 889 q 654 838 621 863 q 706 777 688 813 q 725 699 725 742 q 671 531 725 607 q 507 407 617 456 l 625 160 q 690 67 657 93 q 778 42 722 42 l 782 38 l 769 -7 l 657 -22 q 590 14 624 -22 q 532 110 557 50 l 421 383 l 294 383 m 443 442 q 469 451 442 442 q 528 486 496 460 q 588 558 561 513 q 615 675 615 603 q 390 836 615 836 q 372 830 376 836 q 361 804 367 824 q 328 612 339 693 q 307 456 317 531 l 443 442 m 294 -129 q 330 -106 308 -118 q 375 -93 351 -93 q 428 -119 407 -93 q 450 -192 450 -146 q 433 -262 450 -229 q 390 -322 415 -294 q 333 -370 364 -349 q 272 -407 301 -392 l 247 -386 l 247 -372 q 318 -308 289 -346 q 347 -235 347 -271 q 331 -185 347 -207 q 292 -149 315 -162 l 294 -129 z "},"S":{"ha":704,"x_min":44,"x_max":669,"o":"m 267 -17 q 180 -10 219 -17 q 111 6 140 -3 q 50 29 76 15 l 44 43 q 61 113 53 75 q 76 188 68 144 q 92 285 85 232 l 149 292 q 140 166 139 214 q 157 91 142 118 q 206 54 172 64 q 293 44 239 44 q 443 91 385 44 q 501 214 501 138 q 490 265 501 242 q 458 308 478 288 q 410 347 438 329 q 354 383 383 365 q 276 430 315 406 q 206 483 238 454 q 153 546 174 511 q 133 625 133 581 q 158 732 133 682 q 226 819 183 782 q 328 878 269 857 q 456 900 388 900 q 539 895 500 900 q 606 883 578 890 q 667 867 639 876 l 669 860 q 650 790 660 828 q 631 716 642 758 q 613 625 621 674 l 563 619 l 556 626 q 563 663 558 644 q 568 696 565 678 q 571 729 571 714 q 538 810 571 788 q 425 832 506 832 q 351 821 385 832 q 291 790 317 810 q 251 742 265 769 q 236 683 236 715 q 265 606 236 639 q 338 542 294 572 q 428 487 379 514 q 517 428 476 460 q 586 359 558 397 q 614 271 614 321 q 588 157 614 210 q 517 66 563 104 q 407 6 471 28 q 267 -17 343 -17 z "},"Ś":{"ha":707,"x_min":44,"x_max":669,"o":"m 267 -17 q 180 -10 219 -17 q 111 6 140 -3 q 50 29 76 15 l 44 43 q 61 113 53 75 q 76 188 68 144 q 92 285 85 232 l 149 292 q 140 166 139 214 q 157 91 142 118 q 206 54 172 64 q 293 44 239 44 q 443 91 385 44 q 501 214 501 138 q 490 265 501 242 q 458 308 478 288 q 410 347 438 329 q 354 383 383 365 q 276 430 315 406 q 206 483 238 454 q 153 546 174 511 q 133 625 133 581 q 158 732 133 682 q 226 819 183 782 q 328 878 269 857 q 456 900 388 900 q 539 895 500 900 q 606 883 578 890 q 667 867 639 876 l 669 860 q 650 790 660 828 q 631 716 642 758 q 613 625 621 674 l 563 619 l 556 626 q 563 663 558 644 q 568 696 565 678 q 571 729 571 714 q 538 810 571 788 q 425 832 506 832 q 351 821 385 832 q 291 790 317 810 q 251 742 265 769 q 236 683 236 715 q 265 606 236 639 q 338 542 294 572 q 428 487 379 514 q 517 428 476 460 q 586 359 558 397 q 614 271 614 321 q 588 157 614 210 q 517 66 563 104 q 407 6 471 28 q 267 -17 343 -17 m 660 1079 q 571 1049 617 1064 q 479 1015 531 1033 q 374 976 428 997 l 363 983 l 354 1017 q 452 1069 403 1042 q 542 1118 501 1096 q 631 1168 588 1143 l 643 1160 l 665 1093 l 660 1079 z "},"Š":{"ha":707,"x_min":44,"x_max":669,"o":"m 267 -17 q 180 -10 219 -17 q 111 6 140 -3 q 50 29 76 15 l 44 43 q 61 113 53 75 q 76 188 68 144 q 92 285 85 232 l 149 292 q 140 166 139 214 q 157 91 142 118 q 206 54 172 64 q 293 44 239 44 q 443 91 385 44 q 501 214 501 138 q 490 265 501 242 q 458 308 478 288 q 410 347 438 329 q 354 383 383 365 q 276 430 315 406 q 206 483 238 454 q 153 546 174 511 q 133 625 133 581 q 158 732 133 682 q 226 819 183 782 q 328 878 269 857 q 456 900 388 900 q 539 895 500 900 q 606 883 578 890 q 667 867 639 876 l 669 860 q 650 790 660 828 q 631 716 642 758 q 613 625 621 674 l 563 619 l 556 626 q 563 663 558 644 q 568 696 565 678 q 571 729 571 714 q 538 810 571 788 q 425 832 506 832 q 351 821 385 832 q 291 790 317 810 q 251 742 265 769 q 236 683 236 715 q 265 606 236 639 q 338 542 294 572 q 428 487 379 514 q 517 428 476 460 q 586 359 558 397 q 614 271 614 321 q 588 157 614 210 q 517 66 563 104 q 407 6 471 28 q 267 -17 343 -17 m 664 1132 l 458 978 l 440 978 l 274 1132 l 296 1163 l 310 1164 l 461 1074 l 635 1164 l 647 1163 l 664 1132 z "},"Ş":{"ha":707,"x_min":44,"x_max":669,"o":"m 265 -17 q 179 -10 218 -17 q 111 6 140 -3 q 50 29 76 15 l 44 43 q 61 113 53 75 q 76 188 68 144 q 92 285 85 232 l 149 292 q 140 166 139 214 q 157 91 142 118 q 206 54 172 64 q 293 44 239 44 q 443 91 385 44 q 501 214 501 138 q 490 265 501 242 q 458 308 478 288 q 410 347 438 329 q 354 383 383 365 q 276 430 315 406 q 206 483 238 454 q 153 546 174 511 q 133 625 133 581 q 158 732 133 682 q 226 819 183 782 q 328 878 269 857 q 456 900 388 900 q 539 895 500 900 q 606 883 578 890 q 667 867 639 876 l 669 860 q 650 790 660 828 q 631 716 642 758 q 613 625 621 674 l 563 619 l 556 626 q 563 663 558 644 q 568 696 565 678 q 571 729 571 714 q 538 810 571 788 q 425 832 506 832 q 351 821 385 832 q 291 790 317 810 q 251 742 265 769 q 236 683 236 715 q 265 606 236 639 q 338 542 294 572 q 428 487 379 514 q 517 428 476 460 q 586 359 558 397 q 614 271 614 321 q 593 167 614 215 q 534 81 572 118 q 442 19 496 43 q 324 -12 389 -6 l 299 -69 q 331 -94 313 -81 q 363 -122 349 -107 q 388 -153 378 -136 q 399 -187 399 -169 q 382 -240 399 -215 q 339 -283 365 -264 q 281 -312 313 -301 q 221 -324 250 -324 q 163 -312 192 -324 q 135 -276 135 -300 q 150 -238 135 -262 q 179 -196 165 -214 l 190 -196 q 205 -255 188 -235 q 254 -275 222 -275 q 303 -259 282 -275 q 325 -219 325 -243 q 316 -194 325 -207 q 292 -169 307 -182 q 260 -142 278 -156 q 224 -118 242 -129 l 265 -17 z "},"Ș":{"ha":707,"x_min":44,"x_max":669,"o":"m 267 -17 q 180 -10 219 -17 q 111 6 140 -3 q 50 29 76 15 l 44 43 q 61 113 53 75 q 76 188 68 144 q 92 285 85 232 l 149 292 q 140 166 139 214 q 157 91 142 118 q 206 54 172 64 q 293 44 239 44 q 443 91 385 44 q 501 214 501 138 q 490 265 501 242 q 458 308 478 288 q 410 347 438 329 q 354 383 383 365 q 276 430 315 406 q 206 483 238 454 q 153 546 174 511 q 133 625 133 581 q 158 732 133 682 q 226 819 183 782 q 328 878 269 857 q 456 900 388 900 q 539 895 500 900 q 606 883 578 890 q 667 867 639 876 l 669 860 q 650 790 660 828 q 631 716 642 758 q 613 625 621 674 l 563 619 l 556 626 q 563 663 558 644 q 568 696 565 678 q 571 729 571 714 q 538 810 571 788 q 425 832 506 832 q 351 821 385 832 q 291 790 317 810 q 251 742 265 769 q 236 683 236 715 q 265 606 236 639 q 338 542 294 572 q 428 487 379 514 q 517 428 476 460 q 586 359 558 397 q 614 271 614 321 q 588 157 614 210 q 517 66 563 104 q 407 6 471 28 q 267 -17 343 -17 m 201 -129 q 237 -106 215 -118 q 282 -93 258 -93 q 335 -119 314 -93 q 357 -192 357 -146 q 340 -262 357 -229 q 297 -322 322 -294 q 240 -370 271 -349 q 179 -407 208 -392 l 154 -386 l 154 -372 q 225 -308 196 -346 q 254 -235 254 -271 q 238 -185 254 -207 q 199 -149 222 -162 l 201 -129 z "},"T":{"ha":726,"x_min":56,"x_max":763,"o":"m 376 836 q 251 827 296 832 q 181 806 206 822 q 144 756 157 789 q 117 663 132 722 l 56 657 q 74 731 65 692 q 89 805 81 764 q 104 890 97 846 l 118 900 l 224 885 l 638 885 l 751 900 l 763 890 q 756 806 758 846 q 754 733 754 765 q 754 663 753 696 l 693 657 q 687 753 692 719 q 663 805 682 788 q 602 827 643 822 q 488 836 561 832 q 470 742 481 803 q 447 606 460 681 q 423 453 435 532 q 401 306 411 374 q 385 189 392 238 q 379 128 379 140 q 394 74 379 90 q 444 57 410 57 q 477 57 463 57 q 501 58 492 57 q 521 61 513 60 l 524 56 l 504 -4 q 431 -3 467 -4 q 367 -1 400 -1 q 310 0 333 0 q 255 -1 286 0 q 196 -3 224 -1 q 131 -6 163 -4 l 147 50 q 222 61 194 54 q 265 86 249 68 q 288 136 281 104 q 303 225 296 168 l 376 836 z "},"Ŧ":{"ha":731,"x_min":56,"x_max":763,"o":"m 326 429 l 203 428 l 190 440 l 200 494 l 335 493 l 376 836 q 251 827 296 832 q 181 806 206 822 q 144 756 157 789 q 117 663 132 722 l 56 657 q 74 731 65 692 q 89 805 81 764 q 104 890 97 846 l 118 900 l 224 885 l 638 885 l 751 900 l 763 890 q 756 806 758 846 q 754 733 754 765 q 754 663 753 696 l 693 657 q 687 753 692 719 q 663 805 682 788 q 602 827 643 822 q 488 836 561 832 q 476 778 483 814 q 462 697 469 742 q 446 599 454 651 q 429 494 438 547 l 540 500 l 558 482 l 553 431 l 419 429 q 403 324 411 375 q 391 233 396 274 q 383 165 386 193 q 379 128 379 138 q 394 74 379 90 q 444 57 410 57 q 477 57 463 57 q 501 58 492 57 q 521 61 513 60 l 524 56 l 504 -4 q 431 -3 467 -4 q 367 -1 400 -1 q 310 0 333 0 q 255 -1 286 0 q 196 -3 224 -1 q 131 -6 163 -4 l 147 50 q 222 61 194 54 q 265 86 249 68 q 288 136 281 104 q 303 225 296 168 l 326 429 z "},"Ť":{"ha":731,"x_min":56,"x_max":763,"o":"m 376 836 q 251 827 296 832 q 181 806 206 822 q 144 756 157 789 q 117 663 132 722 l 56 657 q 74 731 65 692 q 89 805 81 764 q 104 890 97 846 l 118 900 l 224 885 l 638 885 l 751 900 l 763 890 q 756 806 758 846 q 754 733 754 765 q 754 663 753 696 l 693 657 q 687 753 692 719 q 663 805 682 788 q 602 827 643 822 q 488 836 561 832 q 470 742 481 803 q 447 606 460 681 q 423 453 435 532 q 401 306 411 374 q 385 189 392 238 q 379 128 379 140 q 394 74 379 90 q 444 57 410 57 q 477 57 463 57 q 501 58 492 57 q 521 61 513 60 l 524 56 l 504 -4 q 431 -3 467 -4 q 367 -1 400 -1 q 310 0 333 0 q 255 -1 286 0 q 196 -3 224 -1 q 131 -6 163 -4 l 147 50 q 222 61 194 54 q 265 86 249 68 q 288 136 281 104 q 303 225 296 168 l 376 836 m 669 1132 l 464 978 l 446 978 l 279 1132 l 301 1163 l 315 1164 l 467 1074 l 640 1164 l 653 1163 l 669 1132 z "},"Ţ":{"ha":731,"x_min":56,"x_max":763,"o":"m 303 0 q 249 -1 279 0 q 193 -3 219 -1 q 131 -6 163 -4 l 147 50 q 222 61 194 54 q 265 86 249 68 q 288 136 281 104 q 303 225 296 168 l 376 836 q 251 827 296 832 q 181 806 206 822 q 144 756 157 789 q 117 663 132 722 l 56 657 q 74 731 65 692 q 89 805 81 764 q 104 890 97 846 l 118 900 l 224 885 l 638 885 l 751 900 l 763 890 q 756 806 758 846 q 754 733 754 765 q 754 663 753 696 l 693 657 q 687 753 692 719 q 663 805 682 788 q 602 827 643 822 q 488 836 561 832 q 470 742 481 803 q 447 606 460 681 q 423 453 435 532 q 401 306 411 374 q 385 189 392 238 q 379 128 379 140 q 394 74 379 90 q 444 57 410 57 q 477 57 463 57 q 501 58 492 57 q 521 61 513 60 l 524 56 l 504 -4 q 457 -3 482 -4 q 410 -1 436 -1 q 360 0 383 -1 l 329 -69 q 361 -94 343 -81 q 394 -122 379 -107 q 419 -153 408 -136 q 429 -187 429 -169 q 413 -240 429 -215 q 369 -283 396 -264 q 312 -312 343 -301 q 251 -324 281 -324 q 194 -312 222 -324 q 165 -276 165 -300 q 181 -238 165 -262 q 210 -196 196 -214 l 221 -196 q 235 -255 218 -235 q 285 -275 253 -275 q 334 -259 313 -275 q 356 -219 356 -243 q 347 -194 356 -207 q 323 -169 338 -182 q 290 -142 308 -156 q 254 -118 272 -129 l 303 0 z "},"Þ":{"ha":726,"x_min":33,"x_max":721,"o":"m 351 699 l 460 699 q 654 647 588 699 q 721 500 721 596 q 691 387 721 440 q 613 293 661 333 q 500 229 564 253 q 369 206 436 206 l 275 206 l 268 156 q 270 80 261 99 q 315 61 279 61 q 339 61 326 61 q 363 63 351 61 q 386 65 375 64 l 388 60 l 368 -4 q 303 -3 335 -4 q 245 -1 275 -1 q 192 0 215 0 q 138 -3 165 0 q 88 -8 111 -6 q 33 -17 61 -12 l 50 47 q 103 62 82 53 q 139 84 125 71 q 160 117 153 97 q 171 167 167 138 l 243 750 q 241 810 249 794 q 203 825 233 825 q 186 824 196 825 q 168 824 176 824 q 147 822 158 822 l 144 828 l 163 889 q 180 888 163 889 q 222 887 197 888 q 274 885 247 886 q 322 885 301 885 q 373 886 346 885 q 424 890 400 888 q 479 897 451 893 l 465 835 q 419 826 438 831 q 388 812 400 821 q 370 789 376 803 q 361 756 364 775 l 351 699 m 338 619 q 306 421 318 499 q 286 290 293 343 q 314 282 297 286 q 349 275 331 278 q 386 269 368 272 q 418 267 404 267 q 555 331 510 278 q 600 474 600 383 q 546 592 600 554 q 374 631 492 631 q 346 628 351 631 q 338 619 340 626 z "},"U":{"ha":910,"x_min":113,"x_max":938,"o":"m 247 350 q 243 281 243 313 q 292 115 243 172 q 438 57 342 57 q 615 119 550 57 q 694 299 681 181 q 699 346 696 317 q 707 410 703 375 q 715 485 711 446 q 724 563 719 525 q 743 753 733 651 q 739 814 746 800 q 703 828 732 828 q 686 827 696 828 q 667 826 676 826 q 643 825 656 825 l 643 831 l 658 888 q 714 885 688 886 q 763 883 738 883 q 807 883 788 883 q 851 885 828 883 q 893 890 874 888 q 938 897 915 893 l 924 838 q 876 829 894 833 q 846 817 857 825 q 830 794 835 808 q 822 758 825 781 l 764 286 q 650 63 746 142 q 397 -17 554 -17 q 205 49 271 -17 q 140 236 139 114 q 144 292 140 263 l 201 753 q 199 813 207 797 q 160 828 192 828 q 145 827 153 828 q 131 826 138 826 q 114 825 122 825 l 113 831 l 129 888 q 183 885 157 886 q 232 883 207 883 q 276 883 257 883 q 322 885 297 883 q 368 890 347 888 q 417 897 393 893 l 404 838 q 334 815 353 831 q 308 758 315 799 l 247 350 z "},"Ú":{"ha":906,"x_min":113,"x_max":938,"o":"m 247 350 q 243 281 243 313 q 292 115 243 172 q 438 57 342 57 q 615 119 550 57 q 694 299 681 181 q 699 346 696 317 q 707 410 703 375 q 715 485 711 446 q 724 563 719 525 q 743 753 733 651 q 739 814 746 800 q 703 828 732 828 q 686 827 696 828 q 667 826 676 826 q 643 825 656 825 l 643 831 l 658 888 q 714 885 688 886 q 763 883 738 883 q 807 883 788 883 q 851 885 828 883 q 893 890 874 888 q 938 897 915 893 l 924 838 q 876 829 894 833 q 846 817 857 825 q 830 794 835 808 q 822 758 825 781 l 764 286 q 650 63 746 142 q 397 -17 554 -17 q 205 49 271 -17 q 140 236 139 114 q 144 292 140 263 l 201 753 q 199 813 207 797 q 160 828 192 828 q 145 827 153 828 q 131 826 138 826 q 114 825 122 825 l 113 831 l 129 888 q 183 885 157 886 q 232 883 207 883 q 276 883 257 883 q 322 885 297 883 q 368 890 347 888 q 417 897 393 893 l 404 838 q 334 815 353 831 q 308 758 315 799 l 247 350 m 778 1079 q 689 1049 735 1064 q 597 1015 649 1033 q 492 976 546 997 l 481 983 l 472 1017 q 570 1069 521 1042 q 660 1118 619 1096 q 749 1168 706 1143 l 761 1160 l 783 1093 l 778 1079 z "},"Û":{"ha":906,"x_min":113,"x_max":938,"o":"m 247 350 q 243 281 243 313 q 292 115 243 172 q 438 57 342 57 q 615 119 550 57 q 694 299 681 181 q 699 346 696 317 q 707 410 703 375 q 715 485 711 446 q 724 563 719 525 q 743 753 733 651 q 739 814 746 800 q 703 828 732 828 q 686 827 696 828 q 667 826 676 826 q 643 825 656 825 l 643 831 l 658 888 q 714 885 688 886 q 763 883 738 883 q 807 883 788 883 q 851 885 828 883 q 893 890 874 888 q 938 897 915 893 l 924 838 q 876 829 894 833 q 846 817 857 825 q 830 794 835 808 q 822 758 825 781 l 764 286 q 650 63 746 142 q 397 -17 554 -17 q 205 49 271 -17 q 140 236 139 114 q 144 292 140 263 l 201 753 q 199 813 207 797 q 160 828 192 828 q 145 827 153 828 q 131 826 138 826 q 114 825 122 825 l 113 831 l 129 888 q 183 885 157 886 q 232 883 207 883 q 276 883 257 883 q 322 885 297 883 q 368 890 347 888 q 417 897 393 893 l 404 838 q 334 815 353 831 q 308 758 315 799 l 247 350 m 364 1021 l 568 1175 l 588 1175 l 754 1021 l 731 990 l 718 989 l 565 1079 l 392 989 l 379 990 l 364 1021 z "},"Ü":{"ha":906,"x_min":113,"x_max":938,"o":"m 247 350 q 243 281 243 313 q 292 115 243 172 q 438 57 342 57 q 615 119 550 57 q 694 299 681 181 q 699 346 696 317 q 707 410 703 375 q 715 485 711 446 q 724 563 719 525 q 743 753 733 651 q 739 814 746 800 q 703 828 732 828 q 686 827 696 828 q 667 826 676 826 q 643 825 656 825 l 643 831 l 658 888 q 714 885 688 886 q 763 883 738 883 q 807 883 788 883 q 851 885 828 883 q 893 890 874 888 q 938 897 915 893 l 924 838 q 876 829 894 833 q 846 817 857 825 q 830 794 835 808 q 822 758 825 781 l 764 286 q 650 63 746 142 q 397 -17 554 -17 q 205 49 271 -17 q 140 236 139 114 q 144 292 140 263 l 201 753 q 199 813 207 797 q 160 828 192 828 q 145 827 153 828 q 131 826 138 826 q 114 825 122 825 l 113 831 l 129 888 q 183 885 157 886 q 232 883 207 883 q 276 883 257 883 q 322 885 297 883 q 368 890 347 888 q 417 897 393 893 l 404 838 q 334 815 353 831 q 308 758 315 799 l 247 350 m 661 1007 q 624 1024 636 1007 q 613 1060 613 1040 q 635 1113 613 1090 q 689 1136 657 1136 q 726 1120 714 1136 q 739 1083 739 1104 q 716 1030 739 1053 q 661 1007 693 1007 m 439 1007 q 402 1024 414 1007 q 390 1060 390 1040 q 413 1113 390 1090 q 467 1136 435 1136 q 504 1120 492 1136 q 517 1083 517 1104 q 494 1030 517 1053 q 439 1007 471 1007 z "},"Ù":{"ha":906,"x_min":113,"x_max":938,"o":"m 247 350 q 243 281 243 313 q 292 115 243 172 q 438 57 342 57 q 615 119 550 57 q 694 299 681 181 q 699 346 696 317 q 707 410 703 375 q 715 485 711 446 q 724 563 719 525 q 743 753 733 651 q 739 814 746 800 q 703 828 732 828 q 686 827 696 828 q 667 826 676 826 q 643 825 656 825 l 643 831 l 658 888 q 714 885 688 886 q 763 883 738 883 q 807 883 788 883 q 851 885 828 883 q 893 890 874 888 q 938 897 915 893 l 924 838 q 876 829 894 833 q 846 817 857 825 q 830 794 835 808 q 822 758 825 781 l 764 286 q 650 63 746 142 q 397 -17 554 -17 q 205 49 271 -17 q 140 236 139 114 q 144 292 140 263 l 201 753 q 199 813 207 797 q 160 828 192 828 q 145 827 153 828 q 131 826 138 826 q 114 825 122 825 l 113 831 l 129 888 q 183 885 157 886 q 232 883 207 883 q 276 883 257 883 q 322 885 297 883 q 368 890 347 888 q 417 897 393 893 l 404 838 q 334 815 353 831 q 308 758 315 799 l 247 350 m 357 1093 l 379 1160 l 392 1168 q 481 1118 435 1143 q 570 1069 521 1096 q 668 1017 619 1042 l 660 983 l 649 976 q 542 1015 593 997 q 451 1049 492 1033 q 363 1079 406 1064 l 357 1093 z "},"Ű":{"ha":906,"x_min":113,"x_max":938,"o":"m 247 350 q 243 281 243 313 q 292 115 243 172 q 438 57 342 57 q 615 119 550 57 q 694 299 681 181 q 699 346 696 317 q 707 410 703 375 q 715 485 711 446 q 724 563 719 525 q 743 753 733 651 q 739 814 746 800 q 703 828 732 828 q 686 827 696 828 q 667 826 676 826 q 643 825 656 825 l 643 831 l 658 888 q 714 885 688 886 q 763 883 738 883 q 807 883 788 883 q 851 885 828 883 q 893 890 874 888 q 938 897 915 893 l 924 838 q 876 829 894 833 q 846 817 857 825 q 830 794 835 808 q 822 758 825 781 l 764 286 q 650 63 746 142 q 397 -17 554 -17 q 205 49 271 -17 q 140 236 139 114 q 144 292 140 263 l 201 753 q 199 813 207 797 q 160 828 192 828 q 145 827 153 828 q 131 826 138 826 q 114 825 122 825 l 113 831 l 129 888 q 183 885 157 886 q 232 883 207 883 q 276 883 257 883 q 322 885 297 883 q 368 890 347 888 q 417 897 393 893 l 404 838 q 334 815 353 831 q 308 758 315 799 l 247 350 m 663 1085 q 592 1049 628 1068 q 519 1010 560 1032 q 435 964 479 988 l 424 971 l 411 1000 q 486 1056 449 1028 q 554 1108 524 1085 q 624 1163 590 1136 l 636 1157 l 667 1097 l 663 1085 m 857 1072 q 786 1036 822 1056 q 714 997 754 1019 q 629 951 674 975 l 619 957 l 606 986 q 681 1043 643 1014 q 749 1096 718 1072 q 818 1150 785 1124 l 831 1143 l 861 1085 l 857 1072 z "},"Ū":{"ha":906,"x_min":113,"x_max":938,"o":"m 247 350 q 243 281 243 313 q 292 115 243 172 q 438 57 342 57 q 615 119 550 57 q 694 299 681 181 q 699 346 696 317 q 707 410 703 375 q 715 485 711 446 q 724 563 719 525 q 743 753 733 651 q 739 814 746 800 q 703 828 732 828 q 686 827 696 828 q 667 826 676 826 q 643 825 656 825 l 643 831 l 658 888 q 714 885 688 886 q 763 883 738 883 q 807 883 788 883 q 851 885 828 883 q 893 890 874 888 q 938 897 915 893 l 924 838 q 876 829 894 833 q 846 817 857 825 q 830 794 835 808 q 822 758 825 781 l 764 286 q 650 63 746 142 q 397 -17 554 -17 q 205 49 271 -17 q 140 236 139 114 q 144 292 140 263 l 201 753 q 199 813 207 797 q 160 828 192 828 q 145 827 153 828 q 131 826 138 826 q 114 825 122 825 l 113 831 l 129 888 q 183 885 157 886 q 232 883 207 883 q 276 883 257 883 q 322 885 297 883 q 368 890 347 888 q 417 897 393 893 l 404 838 q 334 815 353 831 q 308 758 315 799 l 247 350 m 764 1081 l 746 1015 l 556 1014 q 492 1013 526 1014 q 431 1013 458 1013 l 364 1013 l 357 1025 l 379 1088 q 451 1086 415 1086 l 583 1086 q 638 1087 608 1086 q 694 1090 668 1088 q 757 1094 725 1092 l 764 1081 z "},"Ų":{"ha":906,"x_min":113,"x_max":938,"o":"m 663 -247 q 617 -282 642 -265 q 570 -312 596 -297 q 518 -335 544 -326 q 420 -303 456 -335 q 385 -219 385 -272 q 418 -126 385 -178 q 526 0 451 -75 q 397 -17 468 -17 q 205 49 271 -17 q 140 236 139 114 q 144 292 140 263 l 201 753 q 199 813 207 799 q 160 828 190 828 q 145 827 153 828 q 131 826 138 826 q 114 825 122 825 l 113 831 l 129 888 q 183 885 157 886 q 232 883 207 883 q 276 883 257 883 q 322 885 297 883 q 368 890 347 888 q 417 897 393 893 l 404 838 q 333 814 353 831 q 308 758 314 797 l 247 350 q 243 281 243 313 q 292 114 243 171 q 438 57 342 57 q 614 118 549 57 q 694 299 679 179 q 699 346 696 317 q 707 410 703 375 q 715 485 711 446 q 724 563 719 525 q 743 753 733 651 q 739 815 746 801 q 703 828 732 828 q 686 827 696 828 q 667 826 676 826 q 643 825 656 825 l 643 831 l 658 888 q 714 885 688 886 q 763 883 738 883 q 807 883 788 883 q 851 885 828 883 q 893 890 874 888 q 938 897 915 893 l 924 838 q 873 828 892 833 q 843 814 854 822 q 828 792 832 806 q 822 758 824 779 l 764 286 q 728 163 756 219 q 657 63 700 106 q 563 -35 599 4 q 508 -102 528 -75 q 481 -148 488 -129 q 474 -186 474 -167 q 492 -235 474 -217 q 542 -253 511 -253 q 580 -249 561 -253 q 614 -237 599 -244 q 649 -221 632 -231 l 663 -247 z "},"Ů":{"ha":906,"x_min":113,"x_max":938,"o":"m 247 350 q 243 281 243 313 q 292 115 243 172 q 438 57 342 57 q 615 119 550 57 q 694 299 681 181 q 699 346 696 317 q 707 410 703 375 q 715 485 711 446 q 724 563 719 525 q 743 753 733 651 q 739 814 746 800 q 703 828 732 828 q 686 827 696 828 q 667 826 676 826 q 643 825 656 825 l 643 831 l 658 888 q 714 885 688 886 q 763 883 738 883 q 807 883 788 883 q 851 885 828 883 q 893 890 874 888 q 938 897 915 893 l 924 838 q 876 829 894 833 q 846 817 857 825 q 830 794 835 808 q 822 758 825 781 l 764 286 q 650 63 746 142 q 397 -17 554 -17 q 205 49 271 -17 q 140 236 139 114 q 144 292 140 263 l 201 753 q 199 813 207 797 q 160 828 192 828 q 145 827 153 828 q 131 826 138 826 q 114 825 122 825 l 113 831 l 129 888 q 183 885 157 886 q 232 883 207 883 q 276 883 257 883 q 322 885 297 883 q 368 890 347 888 q 417 897 393 893 l 404 838 q 334 815 353 831 q 308 758 315 799 l 247 350 m 557 989 q 577 991 565 989 q 599 999 589 993 q 617 1018 610 1006 q 624 1051 624 1031 q 608 1094 624 1078 q 563 1110 593 1110 q 514 1092 531 1110 q 497 1047 497 1075 q 517 1002 497 1015 q 557 989 538 989 m 542 936 q 474 963 497 936 q 451 1031 451 989 q 488 1126 451 1089 q 581 1164 524 1164 q 651 1136 631 1164 q 672 1072 672 1108 q 663 1022 672 1046 q 637 978 654 997 q 595 948 619 960 q 542 936 571 936 z "},"V":{"ha":811,"x_min":53,"x_max":885,"o":"m 169 747 q 54 826 156 825 l 53 832 l 69 888 q 128 885 100 886 q 178 883 151 883 q 221 883 204 883 q 281 886 247 883 q 347 892 315 889 q 422 900 383 896 l 425 890 l 413 839 q 346 832 371 836 q 308 821 321 828 q 290 803 294 814 q 286 778 286 793 q 290 731 286 765 q 301 649 294 697 q 315 544 307 601 q 332 429 324 488 q 378 129 351 293 l 389 129 q 444 242 413 178 q 510 376 476 307 q 576 515 543 446 q 635 640 610 583 q 677 734 661 696 q 693 782 693 772 q 607 832 693 832 l 536 832 l 533 838 l 549 894 q 610 889 578 892 q 671 885 638 886 q 738 883 704 883 q 787 884 761 883 q 835 886 813 885 q 885 889 860 888 l 867 826 q 832 822 846 825 q 807 812 818 819 q 787 792 796 804 q 768 760 778 779 l 396 7 l 315 -24 q 269 222 294 94 q 222 469 249 332 q 169 747 196 606 z "},"W":{"ha":1240,"x_min":56,"x_max":1308,"o":"m 743 -24 l 649 576 l 640 576 l 378 7 l 296 -24 q 257 222 278 94 q 216 469 239 332 q 168 747 193 607 q 135 806 161 788 q 58 826 108 825 l 56 832 l 71 888 q 129 885 101 886 q 178 883 153 883 q 218 883 203 883 q 288 886 254 883 q 350 892 322 889 q 413 900 382 896 l 415 890 l 406 839 q 340 832 365 836 q 302 821 315 828 q 285 803 289 814 q 281 776 281 793 q 284 726 281 761 q 294 642 288 690 q 308 538 300 594 q 324 424 315 481 q 368 129 343 289 l 376 129 q 503 397 439 265 q 633 667 567 528 q 624 704 626 683 q 618 744 621 725 q 581 806 608 788 q 506 826 554 824 l 504 832 l 521 888 q 578 885 550 886 q 626 883 601 883 q 668 883 651 883 q 731 886 697 883 q 794 892 765 889 q 863 900 829 896 l 864 890 l 853 839 q 787 832 811 836 q 749 821 763 828 q 732 803 736 814 q 728 778 728 793 q 731 731 728 765 q 741 648 735 696 q 756 543 747 600 q 772 428 764 486 q 817 129 792 292 l 825 129 q 878 242 847 176 q 943 376 910 307 q 1008 515 976 446 q 1066 642 1040 585 q 1108 740 1092 700 q 1124 789 1124 779 q 1038 832 1124 832 l 971 832 l 968 838 l 985 894 q 1044 889 1014 892 q 1103 885 1071 886 q 1168 883 1136 883 q 1215 884 1190 883 q 1261 886 1240 885 q 1308 889 1286 888 l 1292 826 q 1259 822 1272 825 q 1235 813 1246 819 q 1216 793 1225 806 q 1197 760 1207 781 l 822 7 l 743 -24 z "},"Ẃ":{"ha":1246,"x_min":56,"x_max":1308,"o":"m 743 -24 l 649 576 l 640 576 l 378 7 l 296 -24 q 257 222 278 94 q 216 469 239 332 q 168 747 193 607 q 135 806 161 788 q 58 826 108 825 l 56 832 l 71 888 q 129 885 101 886 q 178 883 153 883 q 218 883 203 883 q 288 886 254 883 q 350 892 322 889 q 413 900 382 896 l 415 890 l 406 839 q 340 832 365 836 q 302 821 315 828 q 285 803 289 814 q 281 776 281 793 q 284 726 281 761 q 294 642 288 690 q 308 538 300 594 q 324 424 315 481 q 368 129 343 289 l 376 129 q 503 397 439 265 q 633 667 567 528 q 624 704 626 683 q 618 744 621 725 q 581 806 608 788 q 506 826 554 824 l 504 832 l 521 888 q 578 885 550 886 q 626 883 601 883 q 668 883 651 883 q 731 886 697 883 q 794 892 765 889 q 863 900 829 896 l 864 890 l 853 839 q 787 832 811 836 q 749 821 763 828 q 732 803 736 814 q 728 778 728 793 q 731 731 728 765 q 741 648 735 696 q 756 543 747 600 q 772 428 764 486 q 817 129 792 292 l 825 129 q 878 242 847 176 q 943 376 910 307 q 1008 515 976 446 q 1066 642 1040 585 q 1108 740 1092 700 q 1124 789 1124 779 q 1038 832 1124 832 l 971 832 l 968 838 l 985 894 q 1044 889 1014 892 q 1103 885 1071 886 q 1168 883 1136 883 q 1215 884 1190 883 q 1261 886 1240 885 q 1308 889 1286 888 l 1292 826 q 1259 822 1272 825 q 1235 813 1246 819 q 1216 793 1225 806 q 1197 760 1207 781 l 822 7 l 743 -24 m 943 1079 q 854 1049 900 1064 q 763 1015 814 1033 q 657 976 711 997 l 646 983 l 638 1017 q 735 1069 686 1042 q 825 1118 785 1096 q 914 1168 871 1143 l 926 1160 l 949 1093 l 943 1079 z "},"Ŵ":{"ha":1246,"x_min":56,"x_max":1308,"o":"m 743 -24 l 649 576 l 640 576 l 378 7 l 296 -24 q 257 222 278 94 q 216 469 239 332 q 168 747 193 607 q 135 806 161 788 q 58 826 108 825 l 56 832 l 71 888 q 129 885 101 886 q 178 883 153 883 q 218 883 203 883 q 288 886 254 883 q 350 892 322 889 q 413 900 382 896 l 415 890 l 406 839 q 340 832 365 836 q 302 821 315 828 q 285 803 289 814 q 281 776 281 793 q 284 726 281 761 q 294 642 288 690 q 308 538 300 594 q 324 424 315 481 q 368 129 343 289 l 376 129 q 503 397 439 265 q 633 667 567 528 q 624 704 626 683 q 618 744 621 725 q 581 806 608 788 q 506 826 554 824 l 504 832 l 521 888 q 578 885 550 886 q 626 883 601 883 q 668 883 651 883 q 731 886 697 883 q 794 892 765 889 q 863 900 829 896 l 864 890 l 853 839 q 787 832 811 836 q 749 821 763 828 q 732 803 736 814 q 728 778 728 793 q 731 731 728 765 q 741 648 735 696 q 756 543 747 600 q 772 428 764 486 q 817 129 792 292 l 825 129 q 878 242 847 176 q 943 376 910 307 q 1008 515 976 446 q 1066 642 1040 585 q 1108 740 1092 700 q 1124 789 1124 779 q 1038 832 1124 832 l 971 832 l 968 838 l 985 894 q 1044 889 1014 892 q 1103 885 1071 886 q 1168 883 1136 883 q 1215 884 1190 883 q 1261 886 1240 885 q 1308 889 1286 888 l 1292 826 q 1259 822 1272 825 q 1235 813 1246 819 q 1216 793 1225 806 q 1197 760 1207 781 l 822 7 l 743 -24 m 529 1021 l 733 1175 l 753 1175 l 919 1021 l 896 990 l 883 989 l 731 1079 l 557 989 l 544 990 l 529 1021 z "},"Ẅ":{"ha":1246,"x_min":56,"x_max":1308,"o":"m 743 -24 l 649 576 l 640 576 l 378 7 l 296 -24 q 257 222 278 94 q 216 469 239 332 q 168 747 193 607 q 135 806 161 788 q 58 826 108 825 l 56 832 l 71 888 q 129 885 101 886 q 178 883 153 883 q 218 883 203 883 q 288 886 254 883 q 350 892 322 889 q 413 900 382 896 l 415 890 l 406 839 q 340 832 365 836 q 302 821 315 828 q 285 803 289 814 q 281 776 281 793 q 284 726 281 761 q 294 642 288 690 q 308 538 300 594 q 324 424 315 481 q 368 129 343 289 l 376 129 q 503 397 439 265 q 633 667 567 528 q 624 704 626 683 q 618 744 621 725 q 581 806 608 788 q 506 826 554 824 l 504 832 l 521 888 q 578 885 550 886 q 626 883 601 883 q 668 883 651 883 q 731 886 697 883 q 794 892 765 889 q 863 900 829 896 l 864 890 l 853 839 q 787 832 811 836 q 749 821 763 828 q 732 803 736 814 q 728 778 728 793 q 731 731 728 765 q 741 648 735 696 q 756 543 747 600 q 772 428 764 486 q 817 129 792 292 l 825 129 q 878 242 847 176 q 943 376 910 307 q 1008 515 976 446 q 1066 642 1040 585 q 1108 740 1092 700 q 1124 789 1124 779 q 1038 832 1124 832 l 971 832 l 968 838 l 985 894 q 1044 889 1014 892 q 1103 885 1071 886 q 1168 883 1136 883 q 1215 884 1190 883 q 1261 886 1240 885 q 1308 889 1286 888 l 1292 826 q 1259 822 1272 825 q 1235 813 1246 819 q 1216 793 1225 806 q 1197 760 1207 781 l 822 7 l 743 -24 m 826 1007 q 790 1024 801 1007 q 778 1060 778 1040 q 800 1113 778 1090 q 854 1136 822 1136 q 892 1120 879 1136 q 904 1083 904 1104 q 881 1030 904 1053 q 826 1007 858 1007 m 604 1007 q 567 1024 579 1007 q 556 1060 556 1040 q 578 1113 556 1090 q 632 1136 600 1136 q 669 1120 657 1136 q 682 1083 682 1104 q 659 1030 682 1053 q 604 1007 636 1007 z "},"Ẁ":{"ha":1246,"x_min":56,"x_max":1308,"o":"m 743 -24 l 649 576 l 640 576 l 378 7 l 296 -24 q 257 222 278 94 q 216 469 239 332 q 168 747 193 607 q 135 806 161 788 q 58 826 108 825 l 56 832 l 71 888 q 129 885 101 886 q 178 883 153 883 q 218 883 203 883 q 288 886 254 883 q 350 892 322 889 q 413 900 382 896 l 415 890 l 406 839 q 340 832 365 836 q 302 821 315 828 q 285 803 289 814 q 281 776 281 793 q 284 726 281 761 q 294 642 288 690 q 308 538 300 594 q 324 424 315 481 q 368 129 343 289 l 376 129 q 503 397 439 265 q 633 667 567 528 q 624 704 626 683 q 618 744 621 725 q 581 806 608 788 q 506 826 554 824 l 504 832 l 521 888 q 578 885 550 886 q 626 883 601 883 q 668 883 651 883 q 731 886 697 883 q 794 892 765 889 q 863 900 829 896 l 864 890 l 853 839 q 787 832 811 836 q 749 821 763 828 q 732 803 736 814 q 728 778 728 793 q 731 731 728 765 q 741 648 735 696 q 756 543 747 600 q 772 428 764 486 q 817 129 792 292 l 825 129 q 878 242 847 176 q 943 376 910 307 q 1008 515 976 446 q 1066 642 1040 585 q 1108 740 1092 700 q 1124 789 1124 779 q 1038 832 1124 832 l 971 832 l 968 838 l 985 894 q 1044 889 1014 892 q 1103 885 1071 886 q 1168 883 1136 883 q 1215 884 1190 883 q 1261 886 1240 885 q 1308 889 1286 888 l 1292 826 q 1259 822 1272 825 q 1235 813 1246 819 q 1216 793 1225 806 q 1197 760 1207 781 l 822 7 l 743 -24 m 522 1093 l 544 1160 l 557 1168 q 646 1118 600 1143 q 735 1069 686 1096 q 833 1017 785 1042 l 825 983 l 814 976 q 708 1015 758 997 q 617 1049 657 1033 q 528 1079 571 1064 l 522 1093 z "},"X":{"ha":871,"x_min":-19,"x_max":906,"o":"m 407 439 l 264 718 q 197 797 238 768 q 94 833 157 825 l 94 839 l 107 889 q 181 886 144 888 q 243 884 211 885 q 297 883 275 883 q 371 885 338 883 q 428 889 404 886 q 478 896 456 892 l 481 886 l 471 840 q 385 824 411 836 q 358 789 358 813 q 390 698 358 769 q 475 519 422 626 q 539 595 501 553 q 610 678 576 638 q 667 751 643 718 q 690 800 690 785 q 672 825 690 817 q 617 838 654 833 q 616 840 617 839 q 615 843 615 842 l 628 894 q 643 892 628 894 q 681 888 658 890 q 730 885 704 886 q 774 883 756 883 q 815 884 793 883 q 857 886 838 885 q 901 889 879 888 l 906 881 l 892 832 q 838 817 861 826 q 794 792 815 808 q 749 750 772 775 q 693 689 725 725 l 503 475 l 664 172 q 731 91 693 118 q 833 57 769 64 l 818 -4 q 758 -3 788 -4 q 706 -1 733 -1 q 654 0 678 0 q 591 -1 626 0 q 524 -6 556 -3 q 449 -11 488 -8 l 446 -1 l 457 49 q 569 103 569 54 q 564 128 569 114 q 550 161 558 143 l 435 394 l 285 221 q 242 169 258 190 q 216 134 225 149 q 203 109 207 119 q 200 89 200 99 q 272 51 200 57 l 275 47 l 258 -10 q 204 -6 229 -8 q 157 -1 181 -3 q 114 0 133 0 q 72 -1 94 0 q 31 -3 50 -1 q -15 -6 7 -4 l -19 4 l -6 57 q 111 124 57 76 q 236 250 165 171 l 407 439 z "},"Y":{"ha":711,"x_min":39,"x_max":811,"o":"m 271 788 q 278 743 271 775 q 299 670 286 711 q 324 585 311 629 q 350 505 338 542 q 370 444 363 468 q 378 422 378 421 l 383 422 l 576 725 q 606 799 606 769 q 526 838 606 832 l 524 843 l 539 894 q 554 892 539 894 q 592 888 569 890 q 640 885 615 886 q 683 883 665 883 q 724 884 703 883 q 764 886 744 885 q 807 889 786 888 l 811 881 l 796 832 q 738 815 760 825 q 696 786 715 806 q 654 734 676 767 q 599 651 632 701 l 436 408 q 414 369 422 389 q 400 320 406 349 q 389 251 394 292 q 375 153 383 211 q 376 78 368 99 q 421 57 385 57 q 442 57 431 57 q 464 58 454 57 q 486 61 475 60 l 489 56 l 469 -4 q 408 -3 439 -4 q 353 -1 382 -1 q 304 0 325 0 q 252 -3 279 0 q 203 -8 225 -6 q 153 -17 178 -12 l 168 43 q 226 61 204 51 q 261 88 249 71 q 280 131 274 106 q 290 196 286 157 l 297 258 q 299 333 301 300 q 278 418 296 367 l 190 671 q 165 744 175 714 q 140 792 154 774 q 103 820 126 811 q 42 833 81 829 l 39 839 l 54 889 q 103 886 78 888 q 149 884 124 885 q 197 883 174 883 q 259 885 225 883 q 321 889 293 886 q 388 896 354 892 l 390 886 l 379 840 q 324 833 344 838 q 291 823 303 829 q 275 808 279 817 q 271 788 271 800 z "},"Ý":{"ha":722,"x_min":39,"x_max":811,"o":"m 271 788 q 278 743 271 775 q 299 670 286 711 q 324 585 311 629 q 350 505 338 542 q 370 444 363 468 q 378 422 378 421 l 383 422 l 576 725 q 606 799 606 769 q 526 838 606 832 l 524 843 l 539 894 q 554 892 539 894 q 592 888 569 890 q 640 885 615 886 q 683 883 665 883 q 724 884 703 883 q 764 886 744 885 q 807 889 786 888 l 811 881 l 796 832 q 738 815 760 825 q 696 786 715 806 q 654 734 676 767 q 599 651 632 701 l 436 408 q 414 369 422 389 q 400 320 406 349 q 389 251 394 292 q 375 153 383 211 q 376 78 368 99 q 421 57 385 57 q 442 57 431 57 q 464 58 454 57 q 486 61 475 60 l 489 56 l 469 -4 q 408 -3 439 -4 q 353 -1 382 -1 q 304 0 325 0 q 252 -3 279 0 q 203 -8 225 -6 q 153 -17 178 -12 l 168 43 q 226 61 204 51 q 261 88 249 71 q 280 131 274 106 q 290 196 286 157 l 297 258 q 299 333 301 300 q 278 418 296 367 l 190 671 q 165 744 175 714 q 140 792 154 774 q 103 820 126 811 q 42 833 81 829 l 39 839 l 54 889 q 103 886 78 888 q 149 884 124 885 q 197 883 174 883 q 259 885 225 883 q 321 889 293 886 q 388 896 354 892 l 390 886 l 379 840 q 324 833 344 838 q 291 823 303 829 q 275 808 279 817 q 271 788 271 800 m 692 1079 q 603 1049 649 1064 q 511 1015 563 1033 q 406 976 460 997 l 394 983 l 386 1017 q 484 1069 435 1042 q 574 1118 533 1096 q 663 1168 619 1143 l 675 1160 l 697 1093 l 692 1079 z "},"Ŷ":{"ha":722,"x_min":39,"x_max":811,"o":"m 271 788 q 278 743 271 775 q 299 670 286 711 q 324 585 311 629 q 350 505 338 542 q 370 444 363 468 q 378 422 378 421 l 383 422 l 576 725 q 606 799 606 769 q 526 838 606 832 l 524 843 l 539 894 q 554 892 539 894 q 592 888 569 890 q 640 885 615 886 q 683 883 665 883 q 724 884 703 883 q 764 886 744 885 q 807 889 786 888 l 811 881 l 796 832 q 738 815 760 825 q 696 786 715 806 q 654 734 676 767 q 599 651 632 701 l 436 408 q 414 369 422 389 q 400 320 406 349 q 389 251 394 292 q 375 153 383 211 q 376 78 368 99 q 421 57 385 57 q 442 57 431 57 q 464 58 454 57 q 486 61 475 60 l 489 56 l 469 -4 q 408 -3 439 -4 q 353 -1 382 -1 q 304 0 325 0 q 252 -3 279 0 q 203 -8 225 -6 q 153 -17 178 -12 l 168 43 q 226 61 204 51 q 261 88 249 71 q 280 131 274 106 q 290 196 286 157 l 297 258 q 299 333 301 300 q 278 418 296 367 l 190 671 q 165 744 175 714 q 140 792 154 774 q 103 820 126 811 q 42 833 81 829 l 39 839 l 54 889 q 103 886 78 888 q 149 884 124 885 q 197 883 174 883 q 259 885 225 883 q 321 889 293 886 q 388 896 354 892 l 390 886 l 379 840 q 324 833 344 838 q 291 823 303 829 q 275 808 279 817 q 271 788 271 800 m 278 1021 l 482 1175 l 501 1175 l 668 1021 l 644 990 l 632 989 l 479 1079 l 306 989 l 293 990 l 278 1021 z "},"Ÿ":{"ha":722,"x_min":39,"x_max":811,"o":"m 271 788 q 278 743 271 775 q 299 670 286 711 q 324 585 311 629 q 350 505 338 542 q 370 444 363 468 q 378 422 378 421 l 383 422 l 576 725 q 606 799 606 769 q 526 838 606 832 l 524 843 l 539 894 q 554 892 539 894 q 592 888 569 890 q 640 885 615 886 q 683 883 665 883 q 724 884 703 883 q 764 886 744 885 q 807 889 786 888 l 811 881 l 796 832 q 738 815 760 825 q 696 786 715 806 q 654 734 676 767 q 599 651 632 701 l 436 408 q 414 369 422 389 q 400 320 406 349 q 389 251 394 292 q 375 153 383 211 q 376 78 368 99 q 421 57 385 57 q 442 57 431 57 q 464 58 454 57 q 486 61 475 60 l 489 56 l 469 -4 q 408 -3 439 -4 q 353 -1 382 -1 q 304 0 325 0 q 252 -3 279 0 q 203 -8 225 -6 q 153 -17 178 -12 l 168 43 q 226 61 204 51 q 261 88 249 71 q 280 131 274 106 q 290 196 286 157 l 297 258 q 299 333 301 300 q 278 418 296 367 l 190 671 q 165 744 175 714 q 140 792 154 774 q 103 820 126 811 q 42 833 81 829 l 39 839 l 54 889 q 103 886 78 888 q 149 884 124 885 q 197 883 174 883 q 259 885 225 883 q 321 889 293 886 q 388 896 354 892 l 390 886 l 379 840 q 324 833 344 838 q 291 823 303 829 q 275 808 279 817 q 271 788 271 800 m 575 1007 q 538 1024 550 1007 q 526 1060 526 1040 q 549 1113 526 1090 q 603 1136 571 1136 q 640 1120 628 1136 q 653 1083 653 1104 q 630 1030 653 1053 q 575 1007 607 1007 m 353 1007 q 316 1024 328 1007 q 304 1060 304 1040 q 326 1113 304 1090 q 381 1136 349 1136 q 418 1120 406 1136 q 431 1083 431 1104 q 408 1030 431 1053 q 353 1007 385 1007 z "},"Ỳ":{"ha":722,"x_min":39,"x_max":811,"o":"m 271 788 q 278 743 271 775 q 299 670 286 711 q 324 585 311 629 q 350 505 338 542 q 370 444 363 468 q 378 422 378 421 l 383 422 l 576 725 q 606 799 606 769 q 526 838 606 832 l 524 843 l 539 894 q 554 892 539 894 q 592 888 569 890 q 640 885 615 886 q 683 883 665 883 q 724 884 703 883 q 764 886 744 885 q 807 889 786 888 l 811 881 l 796 832 q 738 815 760 825 q 696 786 715 806 q 654 734 676 767 q 599 651 632 701 l 436 408 q 414 369 422 389 q 400 320 406 349 q 389 251 394 292 q 375 153 383 211 q 376 78 368 99 q 421 57 385 57 q 442 57 431 57 q 464 58 454 57 q 486 61 475 60 l 489 56 l 469 -4 q 408 -3 439 -4 q 353 -1 382 -1 q 304 0 325 0 q 252 -3 279 0 q 203 -8 225 -6 q 153 -17 178 -12 l 168 43 q 226 61 204 51 q 261 88 249 71 q 280 131 274 106 q 290 196 286 157 l 297 258 q 299 333 301 300 q 278 418 296 367 l 190 671 q 165 744 175 714 q 140 792 154 774 q 103 820 126 811 q 42 833 81 829 l 39 839 l 54 889 q 103 886 78 888 q 149 884 124 885 q 197 883 174 883 q 259 885 225 883 q 321 889 293 886 q 388 896 354 892 l 390 886 l 379 840 q 324 833 344 838 q 291 823 303 829 q 275 808 279 817 q 271 788 271 800 m 271 1093 l 293 1160 l 306 1168 q 394 1118 349 1143 q 484 1069 435 1096 q 582 1017 533 1042 l 574 983 l 563 976 q 456 1015 507 997 q 365 1049 406 1033 q 276 1079 319 1064 l 271 1093 z "},"Z":{"ha":756,"x_min":14,"x_max":761,"o":"m 599 -4 l 121 4 l 25 -4 l 14 39 l 610 828 l 374 819 q 294 808 328 818 q 238 775 261 797 q 198 716 214 753 q 169 626 182 679 l 108 621 q 131 707 119 661 q 149 792 140 746 q 165 888 158 839 l 181 900 l 413 885 l 751 875 l 761 836 q 549 578 650 704 q 368 346 449 451 q 230 163 288 240 q 147 50 172 85 l 424 60 q 542 116 493 61 q 629 292 592 171 l 689 299 q 663 208 675 256 q 640 117 651 168 q 621 18 629 67 l 599 -4 z "},"Ź":{"ha":758,"x_min":14,"x_max":761,"o":"m 599 -4 l 121 4 l 25 -4 l 14 39 l 610 828 l 374 819 q 294 808 328 818 q 238 775 261 797 q 198 716 214 753 q 169 626 182 679 l 108 621 q 131 707 119 661 q 149 792 140 746 q 165 888 158 839 l 181 900 l 413 885 l 751 875 l 761 836 q 549 578 650 704 q 368 346 449 451 q 230 163 288 240 q 147 50 172 85 l 424 60 q 542 116 493 61 q 629 292 592 171 l 689 299 q 663 208 675 256 q 640 117 651 168 q 621 18 629 67 l 599 -4 m 701 1079 q 613 1049 658 1064 q 521 1015 572 1033 q 415 976 469 997 l 404 983 l 396 1017 q 494 1069 444 1042 q 583 1118 543 1096 q 672 1168 629 1143 l 685 1160 l 707 1093 l 701 1079 z "},"Ž":{"ha":758,"x_min":14,"x_max":761,"o":"m 599 -4 l 121 4 l 25 -4 l 14 39 l 610 828 l 374 819 q 294 808 328 818 q 238 775 261 797 q 198 716 214 753 q 169 626 182 679 l 108 621 q 131 707 119 661 q 149 792 140 746 q 165 888 158 839 l 181 900 l 413 885 l 751 875 l 761 836 q 549 578 650 704 q 368 346 449 451 q 230 163 288 240 q 147 50 172 85 l 424 60 q 542 116 493 61 q 629 292 592 171 l 689 299 q 663 208 675 256 q 640 117 651 168 q 621 18 629 67 l 599 -4 m 692 1132 l 486 978 l 468 978 l 301 1132 l 324 1163 l 338 1164 l 489 1074 l 663 1164 l 675 1163 l 692 1132 z "},"Ż":{"ha":758,"x_min":14,"x_max":761,"o":"m 599 -4 l 121 4 l 25 -4 l 14 39 l 610 828 l 374 819 q 294 808 328 818 q 238 775 261 797 q 198 716 214 753 q 169 626 182 679 l 108 621 q 131 707 119 661 q 149 792 140 746 q 165 888 158 839 l 181 900 l 413 885 l 751 875 l 761 836 q 549 578 650 704 q 368 346 449 451 q 230 163 288 240 q 147 50 172 85 l 424 60 q 542 116 493 61 q 629 292 592 171 l 689 299 q 663 208 675 256 q 640 117 651 168 q 621 18 629 67 l 599 -4 m 474 999 q 428 1018 442 999 q 414 1061 414 1038 q 440 1124 414 1097 q 506 1151 467 1151 q 549 1132 535 1151 q 564 1089 564 1113 q 538 1026 564 1053 q 474 999 511 999 z "},"a":{"ha":640,"x_min":44,"x_max":608,"o":"m 464 83 q 475 86 469 83 q 492 97 481 89 q 523 122 504 106 q 574 165 542 138 l 590 164 l 608 131 q 480 17 524 50 q 414 -17 436 -17 q 364 24 364 -17 q 366 45 364 29 q 372 83 368 61 q 382 130 376 104 q 393 181 388 156 q 424 313 407 240 l 415 315 q 285 110 347 189 q 156 -17 222 31 q 74 33 103 -17 q 44 172 44 82 q 72 341 44 257 q 145 491 100 425 q 247 598 190 557 q 363 639 304 639 l 501 617 l 514 651 l 521 653 l 564 632 l 575 615 q 531 449 551 535 q 492 280 511 374 q 460 89 474 186 l 464 83 m 182 96 q 233 129 201 96 q 302 220 264 163 q 381 354 340 278 q 460 518 422 431 q 386 551 425 539 q 319 564 347 564 q 254 537 286 564 q 197 465 222 510 q 157 361 172 419 q 142 240 142 303 q 153 138 142 179 q 182 96 165 96 z "},"á":{"ha":640,"x_min":44,"x_max":608,"o":"m 464 83 q 475 86 469 83 q 492 97 481 89 q 523 122 504 106 q 574 165 542 138 l 590 164 l 608 131 q 480 17 524 50 q 414 -17 436 -17 q 364 24 364 -17 q 366 45 364 29 q 372 83 368 61 q 382 130 376 104 q 393 181 388 156 q 424 313 407 240 l 415 315 q 285 110 347 189 q 156 -17 222 31 q 74 33 103 -17 q 44 172 44 82 q 72 341 44 257 q 145 491 100 425 q 247 598 190 557 q 363 639 304 639 l 501 617 l 514 651 l 521 653 l 564 632 l 575 615 q 531 449 551 535 q 492 280 511 374 q 460 89 474 186 l 464 83 m 182 96 q 233 129 201 96 q 302 220 264 163 q 381 354 340 278 q 460 518 422 431 q 386 551 425 539 q 319 564 347 564 q 254 537 286 564 q 197 465 222 510 q 157 361 172 419 q 142 240 142 303 q 153 138 142 179 q 182 96 165 96 m 557 918 q 483 860 521 890 q 409 798 450 832 q 324 724 368 764 l 311 726 l 283 753 q 358 835 321 793 q 425 914 394 878 q 492 993 460 954 l 506 990 l 558 933 l 557 918 z "},"´":{"ha":531,"x_min":233,"x_max":508,"o":"m 507 918 q 433 860 471 890 q 359 798 400 832 q 274 724 318 764 l 261 726 l 233 753 q 308 835 271 793 q 375 914 344 878 q 442 993 410 954 l 456 990 l 508 933 l 507 918 z "},"ă":{"ha":640,"x_min":44,"x_max":608,"o":"m 464 83 q 475 86 469 83 q 492 97 481 89 q 523 122 504 106 q 574 165 542 138 l 590 164 l 608 131 q 480 17 524 50 q 414 -17 436 -17 q 364 24 364 -17 q 366 45 364 29 q 372 83 368 61 q 382 130 376 104 q 393 181 388 156 q 424 313 407 240 l 415 315 q 285 110 347 189 q 156 -17 222 31 q 74 33 103 -17 q 44 172 44 82 q 72 341 44 257 q 145 491 100 425 q 247 598 190 557 q 363 639 304 639 l 501 617 l 514 651 l 521 653 l 564 632 l 575 615 q 531 449 551 535 q 492 280 511 374 q 460 89 474 186 l 464 83 m 182 96 q 233 129 201 96 q 302 220 264 163 q 381 354 340 278 q 460 518 422 431 q 386 551 425 539 q 319 564 347 564 q 254 537 286 564 q 197 465 222 510 q 157 361 172 419 q 142 240 142 303 q 153 138 142 179 q 182 96 165 96 m 390 856 q 469 878 432 856 q 529 947 507 901 l 542 947 l 561 933 q 534 876 550 904 q 495 825 518 847 q 444 789 472 803 q 381 775 415 775 q 319 789 344 775 q 277 825 294 803 q 250 876 260 847 q 238 933 240 904 l 261 947 l 272 947 q 315 878 283 901 q 390 856 347 856 z "},"˘":{"ha":531,"x_min":181,"x_max":504,"o":"m 333 856 q 413 878 375 856 q 472 947 450 901 l 485 947 l 504 933 q 477 876 493 904 q 438 825 461 847 q 387 789 415 803 q 324 775 358 775 q 263 789 288 775 q 220 825 238 803 q 193 876 203 847 q 181 933 183 904 l 204 947 l 215 947 q 258 878 226 901 q 333 856 290 856 z "},"â":{"ha":640,"x_min":44,"x_max":608,"o":"m 464 83 q 475 86 469 83 q 492 97 481 89 q 523 122 504 106 q 574 165 542 138 l 590 164 l 608 131 q 480 17 524 50 q 414 -17 436 -17 q 364 24 364 -17 q 366 45 364 29 q 372 83 368 61 q 382 130 376 104 q 393 181 388 156 q 424 313 407 240 l 415 315 q 285 110 347 189 q 156 -17 222 31 q 74 33 103 -17 q 44 172 44 82 q 72 341 44 257 q 145 491 100 425 q 247 598 190 557 q 363 639 304 639 l 501 617 l 514 651 l 521 653 l 564 632 l 575 615 q 531 449 551 535 q 492 280 511 374 q 460 89 474 186 l 464 83 m 182 96 q 233 129 201 96 q 302 220 264 163 q 381 354 340 278 q 460 518 422 431 q 386 551 425 539 q 319 564 347 564 q 254 537 286 564 q 197 465 222 510 q 157 361 172 419 q 142 240 142 303 q 153 138 142 179 q 182 96 165 96 m 181 764 l 392 976 l 411 976 l 571 764 l 547 733 l 535 732 l 389 867 l 210 732 l 197 733 l 181 764 z "},"ˆ":{"ha":531,"x_min":126,"x_max":517,"o":"m 126 764 l 338 976 l 357 976 l 517 764 l 493 733 l 481 732 l 335 867 l 156 732 l 143 733 l 126 764 z "},"ä":{"ha":640,"x_min":44,"x_max":608,"o":"m 464 83 q 475 86 469 83 q 492 97 481 89 q 523 122 504 106 q 574 165 542 138 l 590 164 l 608 131 q 480 17 524 50 q 414 -17 436 -17 q 364 24 364 -17 q 366 45 364 29 q 372 83 368 61 q 382 130 376 104 q 393 181 388 156 q 424 313 407 240 l 415 315 q 285 110 347 189 q 156 -17 222 31 q 74 33 103 -17 q 44 172 44 82 q 72 341 44 257 q 145 491 100 425 q 247 598 190 557 q 363 639 304 639 l 501 617 l 514 651 l 521 653 l 564 632 l 575 615 q 531 449 551 535 q 492 280 511 374 q 460 89 474 186 l 464 83 m 182 96 q 233 129 201 96 q 302 220 264 163 q 381 354 340 278 q 460 518 422 431 q 386 551 425 539 q 319 564 347 564 q 254 537 286 564 q 197 465 222 510 q 157 361 172 419 q 142 240 142 303 q 153 138 142 179 q 182 96 165 96 m 496 786 q 458 803 471 786 q 446 839 446 819 q 469 892 446 869 q 524 915 492 915 q 560 899 549 915 q 572 863 572 883 q 550 809 572 832 q 496 786 528 786 m 274 786 q 236 803 249 786 q 224 839 224 819 q 247 892 224 869 q 301 915 269 915 q 338 899 326 915 q 350 863 350 883 q 328 809 350 832 q 274 786 306 786 z "},"¨":{"ha":531,"x_min":157,"x_max":506,"o":"m 429 786 q 392 803 404 786 q 379 839 379 819 q 402 892 379 869 q 457 915 425 915 q 494 899 482 915 q 506 863 506 883 q 483 809 506 832 q 429 786 461 786 m 207 786 q 169 803 182 786 q 157 839 157 819 q 180 892 157 869 q 235 915 203 915 q 272 899 260 915 q 283 863 283 883 q 261 809 283 832 q 207 786 239 786 z "},"à":{"ha":640,"x_min":44,"x_max":608,"o":"m 464 83 q 475 86 469 83 q 492 97 481 89 q 523 122 504 106 q 574 165 542 138 l 590 164 l 608 131 q 480 17 524 50 q 414 -17 436 -17 q 364 24 364 -17 q 366 45 364 29 q 372 83 368 61 q 382 130 376 104 q 393 181 388 156 q 424 313 407 240 l 415 315 q 285 110 347 189 q 156 -17 222 31 q 74 33 103 -17 q 44 172 44 82 q 72 341 44 257 q 145 491 100 425 q 247 598 190 557 q 363 639 304 639 l 501 617 l 514 651 l 521 653 l 564 632 l 575 615 q 531 449 551 535 q 492 280 511 374 q 460 89 474 186 l 464 83 m 182 96 q 233 129 201 96 q 302 220 264 163 q 381 354 340 278 q 460 518 422 431 q 386 551 425 539 q 319 564 347 564 q 254 537 286 564 q 197 465 222 510 q 157 361 172 419 q 142 240 142 303 q 153 138 142 179 q 182 96 165 96 m 215 932 l 268 989 l 282 992 q 349 913 313 953 q 415 835 378 878 q 490 753 453 793 l 463 726 l 450 724 q 363 799 406 764 q 289 860 321 833 q 217 917 250 890 l 215 932 z "},"`":{"ha":531,"x_min":158,"x_max":433,"o":"m 158 932 l 211 989 l 225 992 q 292 913 256 953 q 358 835 321 878 q 433 753 396 793 l 406 726 l 393 724 q 306 799 349 764 q 232 860 264 833 q 160 917 193 890 l 158 932 z "},"ā":{"ha":640,"x_min":44,"x_max":608,"o":"m 464 83 q 475 86 469 83 q 492 97 481 89 q 523 122 504 106 q 574 165 542 138 l 590 164 l 608 131 q 480 17 524 50 q 414 -17 436 -17 q 364 24 364 -17 q 366 45 364 29 q 372 83 368 61 q 382 130 376 104 q 393 181 388 156 q 424 313 407 240 l 415 315 q 285 110 347 189 q 156 -17 222 31 q 74 33 103 -17 q 44 172 44 82 q 72 341 44 257 q 145 491 100 425 q 247 598 190 557 q 363 639 304 639 l 501 617 l 514 651 l 521 653 l 564 632 l 575 615 q 531 449 551 535 q 492 280 511 374 q 460 89 474 186 l 464 83 m 182 96 q 233 129 201 96 q 302 220 264 163 q 381 354 340 278 q 460 518 422 431 q 386 551 425 539 q 319 564 347 564 q 254 537 286 564 q 197 465 222 510 q 157 361 172 419 q 142 240 142 303 q 153 138 142 179 q 182 96 165 96 m 590 893 l 572 828 l 383 826 q 319 826 353 826 q 258 825 286 825 l 192 825 l 185 838 l 206 900 q 279 899 243 899 l 411 899 q 466 899 436 899 q 522 903 496 900 q 585 907 553 904 l 590 893 z "},"¯":{"ha":531,"x_min":132,"x_max":538,"o":"m 538 893 l 519 828 l 331 826 q 267 826 300 826 q 206 825 233 825 l 139 825 l 132 838 l 153 900 q 226 899 190 899 l 358 899 q 413 899 383 899 q 469 903 443 900 q 532 907 500 904 l 538 893 z "},"ą":{"ha":640,"x_min":44,"x_max":613,"o":"m 535 -247 q 489 -282 514 -265 q 442 -312 468 -297 q 390 -335 417 -326 q 294 -305 331 -335 q 257 -219 257 -275 q 296 -119 257 -168 q 393 -14 335 -69 q 364 24 364 -8 q 366 45 364 29 q 372 83 368 61 q 382 130 376 104 q 393 181 388 156 q 424 313 407 240 l 415 315 q 285 110 347 189 q 156 -17 222 31 q 74 33 103 -17 q 44 172 44 82 q 72 341 44 257 q 145 491 100 425 q 247 598 190 557 q 363 639 304 639 l 501 617 l 514 651 l 521 653 l 564 632 l 575 615 q 531 449 551 535 q 492 280 511 374 q 460 89 474 186 l 464 83 q 475 86 469 83 q 492 97 481 89 q 523 122 504 106 q 574 165 542 138 l 590 164 l 613 125 q 488 19 539 64 q 406 -62 438 -26 q 360 -126 375 -97 q 346 -186 346 -156 q 364 -234 346 -215 q 414 -253 382 -253 q 452 -249 433 -253 q 486 -237 471 -244 q 521 -221 504 -231 l 535 -247 m 182 96 q 233 129 201 96 q 302 220 264 163 q 381 354 340 278 q 460 518 422 431 q 386 551 425 539 q 319 564 347 564 q 254 537 286 564 q 197 465 222 510 q 157 361 172 419 q 142 240 142 303 q 153 138 142 179 q 182 96 165 96 z "},"å":{"ha":640,"x_min":44,"x_max":608,"o":"m 464 83 q 475 86 469 83 q 492 97 481 89 q 523 122 504 106 q 574 165 542 138 l 590 164 l 608 131 q 480 17 524 50 q 414 -17 436 -17 q 364 24 364 -17 q 366 45 364 29 q 372 83 368 61 q 382 130 376 104 q 393 181 388 156 q 424 313 407 240 l 415 315 q 285 110 347 189 q 156 -17 222 31 q 74 33 103 -17 q 44 172 44 82 q 72 341 44 257 q 145 491 100 425 q 247 598 190 557 q 363 639 304 639 l 501 617 l 514 651 l 521 653 l 564 632 l 575 615 q 531 449 551 535 q 492 280 511 374 q 460 89 474 186 l 464 83 m 182 96 q 233 129 201 96 q 302 220 264 163 q 381 354 340 278 q 460 518 422 431 q 386 551 425 539 q 319 564 347 564 q 254 537 286 564 q 197 465 222 510 q 157 361 172 419 q 142 240 142 303 q 153 138 142 179 q 182 96 165 96 m 356 808 q 376 810 364 808 q 398 819 388 813 q 415 838 408 825 q 422 871 422 850 q 407 913 422 897 q 361 929 392 929 q 313 912 329 929 q 296 867 296 894 q 316 822 296 835 q 356 808 336 808 m 340 756 q 273 782 296 756 q 250 850 250 808 q 286 946 250 908 q 379 983 322 983 q 450 956 429 983 q 471 892 471 928 q 462 841 471 865 q 435 798 453 817 q 394 767 418 779 q 340 756 369 756 z "},"˚":{"ha":531,"x_min":224,"x_max":444,"o":"m 329 808 q 349 810 338 808 q 372 819 361 813 q 389 838 382 825 q 396 871 396 850 q 381 913 396 897 q 335 929 365 929 q 286 912 303 929 q 269 867 269 894 q 290 822 269 835 q 329 808 310 808 m 314 756 q 247 782 269 756 q 224 850 224 808 q 260 946 224 908 q 353 983 296 983 q 424 956 403 983 q 444 892 444 928 q 435 841 444 865 q 409 798 426 817 q 367 767 392 779 q 314 756 343 756 z "},"ã":{"ha":640,"x_min":44,"x_max":631,"o":"m 464 83 q 475 86 469 83 q 492 97 481 89 q 523 122 504 106 q 574 165 542 138 l 590 164 l 608 131 q 480 17 524 50 q 414 -17 436 -17 q 364 24 364 -17 q 366 45 364 29 q 372 83 368 61 q 382 130 376 104 q 393 181 388 156 q 424 313 407 240 l 415 315 q 285 110 347 189 q 156 -17 222 31 q 74 33 103 -17 q 44 172 44 82 q 72 341 44 257 q 145 491 100 425 q 247 598 190 557 q 363 639 304 639 l 501 617 l 514 651 l 521 653 l 564 632 l 575 615 q 531 449 551 535 q 492 280 511 374 q 460 89 474 186 l 464 83 m 182 96 q 233 129 201 96 q 302 220 264 163 q 381 354 340 278 q 460 518 422 431 q 386 551 425 539 q 319 564 347 564 q 254 537 286 564 q 197 465 222 510 q 157 361 172 419 q 142 240 142 303 q 153 138 142 179 q 182 96 165 96 m 199 765 l 172 794 l 174 801 l 290 925 l 311 931 q 354 924 328 931 q 409 908 381 917 q 463 892 438 899 q 501 885 488 885 q 528 896 513 885 q 560 922 544 907 q 594 961 576 939 l 603 961 l 631 932 l 629 925 l 513 801 l 490 796 q 447 803 474 796 q 393 819 421 810 q 340 835 365 828 q 301 842 315 842 q 274 830 289 842 q 243 803 258 818 q 208 765 226 786 l 199 765 z "},"˜":{"ha":531,"x_min":106,"x_max":564,"o":"m 132 765 l 106 794 l 107 801 l 224 925 l 244 931 q 288 924 261 931 q 342 908 314 917 q 396 892 371 899 q 435 885 421 885 q 462 896 446 885 q 493 922 478 907 q 528 961 510 939 l 536 961 l 564 932 l 563 925 l 446 801 l 424 796 q 381 803 407 796 q 326 819 354 810 q 274 835 299 828 q 235 842 249 842 q 207 830 222 842 q 176 803 192 818 q 142 765 160 786 l 132 765 z "},"b":{"ha":629,"x_min":79,"x_max":583,"o":"m 79 49 q 143 454 115 272 q 167 608 156 532 q 187 745 178 683 q 201 849 196 807 q 207 903 207 892 q 194 944 207 931 q 149 957 181 957 l 92 957 l 100 1010 q 170 1010 132 1010 q 243 1014 208 1011 q 324 1018 283 1015 l 336 1001 q 285 771 310 890 q 239 539 263 667 q 196 281 215 411 l 200 278 q 264 407 233 350 q 324 508 294 464 q 381 586 353 553 q 442 644 410 619 q 544 584 504 644 q 583 426 583 524 q 557 263 583 342 q 488 123 531 183 q 388 26 444 63 q 271 -11 331 -11 q 202 -6 235 -11 q 146 6 169 -1 q 93 22 118 13 l 79 49 m 424 529 q 381 499 407 529 q 323 413 356 469 q 251 276 290 357 q 168 96 211 196 q 206 83 185 89 q 249 74 228 78 q 290 67 271 69 q 324 64 310 64 q 384 89 354 64 q 437 155 414 114 q 474 249 460 196 q 488 360 488 303 q 482 424 488 393 q 468 478 476 454 q 448 515 460 501 q 424 529 436 529 z "},"c":{"ha":478,"x_min":47,"x_max":486,"o":"m 318 563 q 253 536 285 563 q 198 467 222 510 q 159 368 174 424 q 144 254 144 313 q 170 116 144 167 q 240 65 196 65 q 324 99 282 65 q 392 186 367 133 l 411 185 l 432 151 q 330 31 392 78 q 208 -17 268 -17 q 90 44 133 -17 q 47 213 47 106 q 74 372 47 294 q 145 510 101 450 q 245 608 189 571 q 361 644 301 644 q 428 637 397 644 q 479 615 460 629 l 486 600 l 439 507 l 419 503 q 318 563 376 563 z "},"ć":{"ha":478,"x_min":47,"x_max":544,"o":"m 318 563 q 253 536 285 563 q 198 467 222 510 q 159 368 174 424 q 144 254 144 313 q 170 116 144 167 q 240 65 196 65 q 324 99 282 65 q 392 186 367 133 l 411 185 l 432 151 q 330 31 392 78 q 208 -17 268 -17 q 90 44 133 -17 q 47 213 47 106 q 74 372 47 294 q 145 510 101 450 q 245 608 189 571 q 361 644 301 644 q 428 637 397 644 q 479 615 460 629 l 486 600 l 439 507 l 419 503 q 318 563 376 563 m 543 918 q 469 860 507 890 q 395 798 436 832 q 310 724 354 764 l 297 726 l 269 753 q 344 835 307 793 q 411 914 381 878 q 478 993 446 954 l 492 990 l 544 933 l 543 918 z "},"č":{"ha":478,"x_min":47,"x_max":585,"o":"m 318 563 q 253 536 285 563 q 198 467 222 510 q 159 368 174 424 q 144 254 144 313 q 170 116 144 167 q 240 65 196 65 q 324 99 282 65 q 392 186 367 133 l 411 185 l 432 151 q 330 31 392 78 q 208 -17 268 -17 q 90 44 133 -17 q 47 213 47 106 q 74 372 47 294 q 145 510 101 450 q 245 608 189 571 q 361 644 301 644 q 428 637 397 644 q 479 615 460 629 l 486 600 l 439 507 l 419 503 q 318 563 376 563 m 204 985 l 215 986 q 301 904 260 940 q 368 846 342 868 q 449 905 399 868 q 556 986 500 942 l 567 985 l 585 953 q 506 876 544 915 q 435 804 467 836 q 363 731 397 767 l 344 731 q 290 804 318 767 q 237 876 267 836 q 178 953 207 915 l 204 985 z "},"ˇ":{"ha":531,"x_min":142,"x_max":549,"o":"m 168 985 l 179 986 q 265 904 224 940 q 332 846 306 868 q 413 905 363 868 q 519 986 464 942 l 531 985 l 549 953 q 469 876 508 915 q 399 804 431 836 q 326 731 361 767 l 308 731 q 254 804 282 767 q 201 876 231 836 q 142 953 171 915 l 168 985 z "},"ç":{"ha":478,"x_min":47,"x_max":486,"o":"m 189 -15 q 85 53 122 -7 q 47 213 47 113 q 74 372 47 294 q 145 510 101 450 q 245 608 189 571 q 361 644 301 644 q 428 637 397 644 q 479 615 460 629 l 486 600 l 439 507 l 419 503 q 318 563 376 563 q 253 536 285 563 q 198 467 222 510 q 159 368 174 424 q 144 254 144 313 q 170 116 144 167 q 240 65 196 65 q 324 99 282 65 q 392 186 367 133 l 411 185 l 432 151 q 349 46 399 89 q 249 -11 300 3 l 222 -69 q 254 -94 236 -81 q 287 -122 272 -107 q 312 -153 301 -136 q 322 -187 322 -169 q 306 -240 322 -215 q 263 -283 289 -264 q 205 -312 236 -301 q 144 -324 174 -324 q 87 -312 115 -324 q 58 -276 58 -300 q 74 -238 58 -262 q 103 -196 89 -214 l 114 -196 q 128 -255 111 -235 q 178 -275 146 -275 q 227 -259 206 -275 q 249 -219 249 -243 q 240 -194 249 -207 q 216 -169 231 -182 q 183 -142 201 -156 q 147 -118 165 -129 l 189 -15 z "},"ċ":{"ha":478,"x_min":47,"x_max":486,"o":"m 318 563 q 253 536 285 563 q 198 467 222 510 q 159 368 174 424 q 144 254 144 313 q 170 116 144 167 q 240 65 196 65 q 324 99 282 65 q 392 186 367 133 l 411 185 l 432 151 q 330 31 392 78 q 208 -17 268 -17 q 90 44 133 -17 q 47 213 47 106 q 74 372 47 294 q 145 510 101 450 q 245 608 189 571 q 361 644 301 644 q 428 637 397 644 q 479 615 460 629 l 486 600 l 439 507 l 419 503 q 318 563 376 563 m 344 836 q 300 856 314 836 q 286 899 286 875 q 313 962 286 935 q 376 989 339 989 q 422 969 407 989 q 436 926 436 950 q 409 863 436 890 q 344 836 382 836 z "},"˙":{"ha":531,"x_min":265,"x_max":415,"o":"m 324 836 q 279 856 293 836 q 265 899 265 875 q 292 962 265 935 q 356 989 318 989 q 401 969 386 989 q 415 926 415 950 q 388 863 415 890 q 324 836 361 836 z "},"d":{"ha":643,"x_min":44,"x_max":629,"o":"m 464 83 q 474 85 468 83 q 490 96 479 88 q 520 120 500 104 q 574 165 540 136 l 590 164 l 608 131 q 479 16 522 49 q 414 -17 436 -17 q 364 24 364 -17 q 373 80 364 35 q 393 178 382 125 q 424 313 407 238 l 414 315 q 284 109 346 189 q 156 -17 222 29 q 74 33 103 -17 q 44 172 44 82 q 72 341 44 257 q 145 491 100 425 q 247 598 190 557 q 363 639 304 639 l 463 622 l 499 896 q 442 957 507 957 l 385 957 l 393 1010 q 463 1010 425 1010 q 536 1014 501 1011 q 617 1018 576 1015 l 629 1001 q 560 664 593 831 q 531 517 546 593 q 503 365 517 440 q 479 219 490 290 q 460 89 468 149 l 464 83 m 182 96 q 232 128 201 96 q 300 219 263 161 q 378 353 338 276 q 456 519 418 431 q 385 551 422 539 q 319 564 347 564 q 254 537 286 564 q 197 465 222 510 q 157 361 172 419 q 142 240 142 303 q 153 138 142 179 q 182 96 165 96 z "},"ı":{"ha":367,"x_min":49,"x_max":329,"o":"m 185 83 q 197 86 190 83 q 215 98 203 89 q 246 123 226 107 q 294 165 265 139 l 311 164 l 329 131 q 208 21 257 58 q 135 -17 158 -17 q 102 -4 111 -17 q 93 32 93 8 q 128 251 113 153 q 141 335 135 293 q 153 413 147 378 q 161 474 158 449 q 164 508 164 499 q 151 553 164 540 q 106 567 138 567 l 49 567 l 58 619 q 129 620 90 619 q 203 624 168 621 q 283 628 243 625 l 296 611 q 251 447 272 533 q 213 279 232 372 q 181 89 194 186 l 185 83 z "},"e":{"ha":499,"x_min":47,"x_max":472,"o":"m 472 536 q 454 455 472 492 q 397 385 436 418 q 294 323 357 353 q 142 264 231 293 q 163 121 136 175 q 239 67 190 67 q 322 99 281 67 q 392 186 364 132 l 411 185 l 432 151 q 330 31 392 78 q 208 -17 268 -17 q 90 44 133 -17 q 47 213 47 106 q 74 370 47 293 q 147 508 101 447 q 248 607 192 569 q 363 644 304 644 q 444 617 415 644 q 472 536 472 589 m 318 564 q 263 544 290 564 q 213 492 236 525 q 173 416 190 460 q 147 322 156 372 q 321 401 268 360 q 374 500 374 443 q 318 564 374 564 z "},"ě":{"ha":499,"x_min":47,"x_max":568,"o":"m 472 536 q 454 455 472 492 q 397 385 436 418 q 294 323 357 353 q 142 264 231 293 q 163 121 136 175 q 239 67 190 67 q 322 99 281 67 q 392 186 364 132 l 411 185 l 432 151 q 330 31 392 78 q 208 -17 268 -17 q 90 44 133 -17 q 47 213 47 106 q 74 370 47 293 q 147 508 101 447 q 248 607 192 569 q 363 644 304 644 q 444 617 415 644 q 472 536 472 589 m 318 564 q 263 544 290 564 q 213 492 236 525 q 173 416 190 460 q 147 322 156 372 q 321 401 268 360 q 374 500 374 443 q 318 564 374 564 m 188 985 l 199 986 q 284 904 243 940 q 351 846 325 868 q 433 905 382 868 q 539 986 483 942 l 550 985 l 568 953 q 489 876 528 915 q 418 804 450 836 q 346 731 381 767 l 328 731 q 274 804 301 767 q 220 876 250 836 q 161 953 190 915 l 188 985 z "},"ê":{"ha":499,"x_min":47,"x_max":535,"o":"m 472 536 q 454 455 472 492 q 397 385 436 418 q 294 323 357 353 q 142 264 231 293 q 163 121 136 175 q 239 67 190 67 q 322 99 281 67 q 392 186 364 132 l 411 185 l 432 151 q 330 31 392 78 q 208 -17 268 -17 q 90 44 133 -17 q 47 213 47 106 q 74 370 47 293 q 147 508 101 447 q 248 607 192 569 q 363 644 304 644 q 444 617 415 644 q 472 536 472 589 m 318 564 q 263 544 290 564 q 213 492 236 525 q 173 416 190 460 q 147 322 156 372 q 321 401 268 360 q 374 500 374 443 q 318 564 374 564 m 144 764 l 356 976 l 375 976 l 535 764 l 511 733 l 499 732 l 353 867 l 174 732 l 161 733 l 144 764 z "},"ë":{"ha":499,"x_min":47,"x_max":522,"o":"m 472 536 q 454 455 472 492 q 397 385 436 418 q 294 323 357 353 q 142 264 231 293 q 163 121 136 175 q 239 67 190 67 q 322 99 281 67 q 392 186 364 132 l 411 185 l 432 151 q 330 31 392 78 q 208 -17 268 -17 q 90 44 133 -17 q 47 213 47 106 q 74 370 47 293 q 147 508 101 447 q 248 607 192 569 q 363 644 304 644 q 444 617 415 644 q 472 536 472 589 m 318 564 q 263 544 290 564 q 213 492 236 525 q 173 416 190 460 q 147 322 156 372 q 321 401 268 360 q 374 500 374 443 q 318 564 374 564 m 446 786 q 408 803 421 786 q 396 839 396 819 q 419 892 396 869 q 474 915 442 915 q 510 899 499 915 q 522 863 522 883 q 500 809 522 832 q 446 786 478 786 m 224 786 q 186 803 199 786 q 174 839 174 819 q 197 892 174 869 q 251 915 219 915 q 288 899 276 915 q 300 863 300 883 q 278 809 300 832 q 224 786 256 786 z "},"ė":{"ha":499,"x_min":47,"x_max":472,"o":"m 472 536 q 454 455 472 492 q 397 385 436 418 q 294 323 357 353 q 142 264 231 293 q 163 121 136 175 q 239 67 190 67 q 322 99 281 67 q 392 186 364 132 l 411 185 l 432 151 q 330 31 392 78 q 208 -17 268 -17 q 90 44 133 -17 q 47 213 47 106 q 74 370 47 293 q 147 508 101 447 q 248 607 192 569 q 363 644 304 644 q 444 617 415 644 q 472 536 472 589 m 318 564 q 263 544 290 564 q 213 492 236 525 q 173 416 190 460 q 147 322 156 372 q 321 401 268 360 q 374 500 374 443 q 318 564 374 564 m 342 836 q 297 856 311 836 q 283 899 283 875 q 310 962 283 935 q 374 989 336 989 q 419 969 404 989 q 433 926 433 950 q 406 863 433 890 q 342 836 379 836 z "},"è":{"ha":499,"x_min":47,"x_max":472,"o":"m 472 536 q 454 455 472 492 q 397 385 436 418 q 294 323 357 353 q 142 264 231 293 q 163 121 136 175 q 239 67 190 67 q 322 99 281 67 q 392 186 364 132 l 411 185 l 432 151 q 330 31 392 78 q 208 -17 268 -17 q 90 44 133 -17 q 47 213 47 106 q 74 370 47 293 q 147 508 101 447 q 248 607 192 569 q 363 644 304 644 q 444 617 415 644 q 472 536 472 589 m 318 564 q 263 544 290 564 q 213 492 236 525 q 173 416 190 460 q 147 322 156 372 q 321 401 268 360 q 374 500 374 443 q 318 564 374 564 m 179 932 l 232 989 l 246 992 q 313 913 276 953 q 379 835 342 878 q 454 753 417 793 l 426 726 l 414 724 q 327 799 369 764 q 253 860 285 833 q 181 917 214 890 l 179 932 z "},"ē":{"ha":499,"x_min":47,"x_max":554,"o":"m 472 536 q 454 455 472 492 q 397 385 436 418 q 294 323 357 353 q 142 264 231 293 q 163 121 136 175 q 239 67 190 67 q 322 99 281 67 q 392 186 364 132 l 411 185 l 432 151 q 330 31 392 78 q 208 -17 268 -17 q 90 44 133 -17 q 47 213 47 106 q 74 370 47 293 q 147 508 101 447 q 248 607 192 569 q 363 644 304 644 q 444 617 415 644 q 472 536 472 589 m 318 564 q 263 544 290 564 q 213 492 236 525 q 173 416 190 460 q 147 322 156 372 q 321 401 268 360 q 374 500 374 443 q 318 564 374 564 m 554 893 l 536 828 l 347 826 q 283 826 317 826 q 222 825 250 825 l 156 825 l 149 838 l 169 900 q 243 899 207 899 l 375 899 q 430 899 400 899 q 486 903 460 900 q 549 907 517 904 l 554 893 z "},"ę":{"ha":499,"x_min":47,"x_max":472,"o":"m 369 -247 q 324 -282 349 -265 q 277 -312 303 -297 q 225 -335 251 -326 q 128 -305 165 -335 q 92 -219 92 -275 q 131 -119 92 -168 q 228 -14 169 -69 q 218 -16 222 -15 q 208 -17 214 -17 q 90 44 133 -17 q 47 213 47 106 q 74 370 47 293 q 147 508 101 447 q 248 607 192 569 q 363 644 304 644 q 444 617 415 644 q 472 536 472 589 q 454 455 472 492 q 397 385 436 418 q 294 323 357 353 q 142 264 231 293 q 163 121 136 175 q 239 67 190 67 q 322 99 281 67 q 392 186 364 132 l 411 185 l 432 151 q 344 39 389 85 q 263 -44 300 -7 q 203 -113 226 -81 q 181 -186 181 -146 q 199 -234 181 -215 q 249 -253 217 -253 q 287 -249 268 -253 q 321 -237 306 -244 q 356 -221 339 -231 l 369 -247 m 318 564 q 263 544 290 564 q 213 492 236 525 q 173 416 190 460 q 147 322 156 372 q 321 401 268 360 q 374 500 374 443 q 318 564 374 564 z "},"ð":{"ha":678,"x_min":50,"x_max":638,"o":"m 636 954 l 638 914 l 467 832 q 589 632 547 743 q 631 401 631 521 q 602 235 631 311 q 526 102 574 158 q 416 15 479 46 q 285 -17 353 -17 q 188 3 231 -17 q 114 56 144 22 q 67 138 83 90 q 50 244 50 186 q 78 393 50 324 q 155 515 107 463 q 264 599 203 568 q 392 629 325 629 q 423 624 407 629 q 453 611 439 618 q 476 599 467 604 q 485 593 485 593 l 488 596 q 388 794 456 707 l 199 706 l 188 710 l 186 751 l 351 832 q 151 978 272 915 l 179 1024 l 193 1029 q 431 868 331 963 l 626 961 l 636 954 m 513 383 q 511 442 513 410 q 507 497 510 474 q 460 533 493 513 q 364 554 426 554 q 220 481 274 554 q 167 281 167 407 q 210 115 167 178 q 329 51 254 51 q 461 135 410 51 q 513 383 513 219 z "},"f":{"ha":357,"x_min":-162,"x_max":614,"o":"m 47 569 l 53 610 l 163 626 l 175 738 q 209 855 183 801 q 274 947 235 908 q 363 1008 313 986 q 468 1031 413 1031 q 543 1025 504 1031 q 608 1010 582 1019 l 614 994 l 571 907 l 544 903 q 407 949 467 949 q 278 790 296 949 l 257 624 l 458 625 l 464 621 l 453 565 l 264 567 l 250 558 l 178 -104 q 108 -276 165 -215 q -37 -336 51 -336 q -117 -318 -82 -336 q -162 -272 -153 -300 q -154 -244 -160 -260 q -142 -212 -149 -228 q -128 -181 -135 -196 q -115 -156 -121 -165 l -96 -156 q -70 -240 -97 -208 q 1 -271 -43 -271 q 66 -240 38 -271 q 101 -161 94 -208 q 112 -35 110 -93 q 118 79 114 22 l 157 551 l 147 558 l 51 563 l 47 569 z "},"g":{"ha":617,"x_min":-117,"x_max":600,"o":"m 228 121 q 326 226 260 121 q 479 521 392 331 q 339 564 393 564 q 278 539 307 564 q 226 473 249 514 q 189 380 203 432 q 175 272 175 328 q 179 215 175 242 q 191 167 183 188 q 208 133 199 146 q 228 121 217 121 m 210 11 q 139 -37 176 -12 q 69 -83 101 -61 q 17 -122 38 -104 q -4 -149 -4 -139 q 10 -185 -4 -167 q 48 -219 25 -204 q 99 -244 71 -235 q 154 -254 126 -254 q 306 -191 243 -254 q 382 -15 368 -128 l 417 272 l 406 275 q 348 174 374 215 q 300 101 322 132 q 256 50 278 71 q 210 11 235 29 m 468 0 q 426 -121 461 -61 q 339 -228 390 -181 q 227 -305 288 -275 q 108 -335 167 -335 q 24 -319 65 -335 q -48 -279 -17 -304 q -98 -223 -79 -254 q -114 -160 -117 -192 l -111 -153 q -7 -79 -75 -124 q 149 17 61 -35 l 150 29 q 98 96 117 49 q 79 207 79 143 q 106 362 79 285 q 176 501 133 439 q 274 601 219 563 q 382 639 328 639 l 524 617 l 539 651 l 546 653 l 589 632 l 600 619 q 524 456 550 526 q 490 331 497 386 q 483 248 486 296 q 478 152 481 200 q 473 63 475 104 q 468 0 471 21 z "},"ğ":{"ha":617,"x_min":-117,"x_max":600,"o":"m 228 121 q 326 226 260 121 q 479 521 392 331 q 339 564 393 564 q 278 539 307 564 q 226 473 249 514 q 189 380 203 432 q 175 272 175 328 q 179 215 175 242 q 191 167 183 188 q 208 133 199 146 q 228 121 217 121 m 210 11 q 139 -37 176 -12 q 69 -83 101 -61 q 17 -122 38 -104 q -4 -149 -4 -139 q 10 -185 -4 -167 q 48 -219 25 -204 q 99 -244 71 -235 q 154 -254 126 -254 q 306 -191 243 -254 q 382 -15 368 -128 l 417 272 l 406 275 q 348 174 374 215 q 300 101 322 132 q 256 50 278 71 q 210 11 235 29 m 468 0 q 426 -121 461 -61 q 339 -228 390 -181 q 227 -305 288 -275 q 108 -335 167 -335 q 24 -319 65 -335 q -48 -279 -17 -304 q -98 -223 -79 -254 q -114 -160 -117 -192 l -111 -153 q -7 -79 -75 -124 q 149 17 61 -35 l 150 29 q 98 96 117 49 q 79 207 79 143 q 106 362 79 285 q 176 501 133 439 q 274 601 219 563 q 382 639 328 639 l 524 617 l 539 651 l 546 653 l 589 632 l 600 619 q 524 456 550 526 q 490 331 497 386 q 483 248 486 296 q 478 152 481 200 q 473 63 475 104 q 468 0 471 21 m 417 856 q 496 878 458 856 q 556 947 533 901 l 568 947 l 588 933 q 560 876 576 904 q 522 825 544 847 q 470 789 499 803 q 407 775 442 775 q 346 789 371 775 q 303 825 321 803 q 276 876 286 847 q 264 933 267 904 l 288 947 l 299 947 q 342 878 310 901 q 417 856 374 856 z "},"ģ":{"ha":617,"x_min":-117,"x_max":600,"o":"m 228 121 q 326 226 260 121 q 479 521 392 331 q 339 564 393 564 q 278 539 307 564 q 226 473 249 514 q 189 380 203 432 q 175 272 175 328 q 179 215 175 242 q 191 167 183 188 q 208 133 199 146 q 228 121 217 121 m 210 11 q 139 -37 176 -12 q 69 -83 101 -61 q 17 -122 38 -104 q -4 -149 -4 -139 q 10 -185 -4 -167 q 48 -219 25 -204 q 99 -244 71 -235 q 154 -254 126 -254 q 306 -191 243 -254 q 382 -15 368 -128 l 417 272 l 406 275 q 348 174 374 215 q 300 101 322 132 q 256 50 278 71 q 210 11 235 29 m 468 0 q 426 -121 461 -61 q 339 -228 390 -181 q 227 -305 288 -275 q 108 -335 167 -335 q 24 -319 65 -335 q -48 -279 -17 -304 q -98 -223 -79 -254 q -114 -160 -117 -192 l -111 -153 q -7 -79 -75 -124 q 149 17 61 -35 l 150 29 q 98 96 117 49 q 79 207 79 143 q 106 362 79 285 q 176 501 133 439 q 274 601 219 563 q 382 639 328 639 l 524 617 l 539 651 l 546 653 l 589 632 l 600 619 q 524 456 550 526 q 490 331 497 386 q 483 248 486 296 q 478 152 481 200 q 473 63 475 104 q 468 0 471 21 m 494 750 q 459 726 481 739 q 414 714 438 714 q 360 740 382 714 q 339 812 339 767 q 356 883 339 850 q 399 942 374 915 q 456 991 425 969 q 517 1028 488 1012 l 542 1007 l 542 993 q 471 929 500 967 q 442 856 442 892 q 458 806 442 828 q 497 769 474 783 l 494 750 z "},"ġ":{"ha":617,"x_min":-117,"x_max":600,"o":"m 228 121 q 326 226 260 121 q 479 521 392 331 q 339 564 393 564 q 278 539 307 564 q 226 473 249 514 q 189 380 203 432 q 175 272 175 328 q 179 215 175 242 q 191 167 183 188 q 208 133 199 146 q 228 121 217 121 m 210 11 q 139 -37 176 -12 q 69 -83 101 -61 q 17 -122 38 -104 q -4 -149 -4 -139 q 10 -185 -4 -167 q 48 -219 25 -204 q 99 -244 71 -235 q 154 -254 126 -254 q 306 -191 243 -254 q 382 -15 368 -128 l 417 272 l 406 275 q 348 174 374 215 q 300 101 322 132 q 256 50 278 71 q 210 11 235 29 m 468 0 q 426 -121 461 -61 q 339 -228 390 -181 q 227 -305 288 -275 q 108 -335 167 -335 q 24 -319 65 -335 q -48 -279 -17 -304 q -98 -223 -79 -254 q -114 -160 -117 -192 l -111 -153 q -7 -79 -75 -124 q 149 17 61 -35 l 150 29 q 98 96 117 49 q 79 207 79 143 q 106 362 79 285 q 176 501 133 439 q 274 601 219 563 q 382 639 328 639 l 524 617 l 539 651 l 546 653 l 589 632 l 600 619 q 524 456 550 526 q 490 331 497 386 q 483 248 486 296 q 478 152 481 200 q 473 63 475 104 q 468 0 471 21 m 389 836 q 344 856 358 836 q 331 899 331 875 q 357 962 331 935 q 421 989 383 989 q 466 969 451 989 q 481 926 481 950 q 453 863 481 890 q 389 836 426 836 z "},"ß":{"ha":763,"x_min":-162,"x_max":740,"o":"m 47 569 l 53 610 l 163 626 l 175 738 q 210 856 183 801 q 277 949 236 910 q 369 1009 318 988 q 479 1031 421 1031 q 565 1018 525 1031 q 635 985 606 1006 q 681 935 664 964 q 699 874 699 907 q 683 797 699 831 q 644 738 668 764 q 594 688 621 711 q 543 643 567 665 q 504 597 519 621 q 489 544 489 574 q 508 494 489 517 q 554 449 526 471 q 615 404 582 426 q 675 356 647 382 q 722 297 703 329 q 740 222 740 264 q 719 131 740 174 q 664 55 699 88 q 583 3 629 22 q 486 -17 536 -17 q 422 -10 453 -17 q 370 6 392 -4 q 336 28 349 15 q 325 57 324 42 q 333 83 326 67 q 350 117 340 99 q 371 151 360 135 q 392 176 382 167 l 411 176 q 431 79 403 114 q 519 44 460 44 q 561 56 540 44 q 599 84 582 67 q 625 124 615 101 q 635 171 635 147 q 616 229 635 203 q 569 278 597 256 q 510 324 542 301 q 450 374 478 347 q 403 433 422 400 q 385 507 385 465 q 401 574 385 544 q 440 631 417 604 q 491 680 464 657 q 542 726 518 703 q 581 775 565 750 q 597 831 597 800 q 550 917 597 885 q 421 949 503 949 q 278 790 299 949 l 260 626 l 178 -104 q 109 -275 165 -214 q -37 -336 53 -336 q -118 -318 -82 -336 q -162 -272 -154 -300 q -154 -244 -160 -260 q -142 -212 -149 -228 q -128 -181 -135 -196 q -115 -156 -121 -165 l -96 -156 q -70 -240 -97 -208 q 1 -271 -43 -271 q 60 -246 33 -271 q 97 -181 86 -221 q 105 -79 100 -142 q 118 79 110 -17 l 157 551 l 147 558 l 51 563 l 47 569 m 101 -161 q 100 -169 100 -164 q 101 -161 100 -164 m 92 -236 l 92 -244 l 92 -236 z "},"h":{"ha":681,"x_min":72,"x_max":621,"o":"m 476 83 q 488 86 482 83 q 505 97 493 89 q 535 122 517 106 q 586 165 554 138 l 603 164 l 621 131 q 497 19 543 54 q 426 -17 450 -17 q 383 24 383 -17 q 400 114 383 56 q 436 237 417 172 q 472 362 456 301 q 489 458 489 422 q 476 499 489 483 q 442 515 463 515 q 390 488 419 515 q 327 410 361 460 q 256 290 293 360 q 183 136 219 221 l 168 19 q 158 11 168 17 q 133 0 147 6 q 105 -9 119 -6 q 82 -12 90 -12 l 72 0 q 139 431 110 238 q 163 592 151 513 q 185 738 175 672 q 200 848 194 804 q 206 903 206 892 q 192 944 206 931 q 147 957 179 957 l 90 957 l 99 1010 q 169 1010 131 1010 q 242 1014 207 1011 q 322 1018 282 1015 l 335 1001 q 283 771 308 890 q 238 539 261 667 q 194 281 214 411 l 201 276 q 346 513 274 418 q 483 644 418 607 q 526 634 506 644 q 560 605 546 624 q 584 562 575 586 q 593 510 593 538 q 578 420 593 474 q 542 308 563 367 q 502 190 522 249 q 472 89 482 132 l 476 83 z "},"ħ":{"ha":681,"x_min":44,"x_max":621,"o":"m 476 83 q 488 86 482 83 q 505 97 493 89 q 535 122 517 106 q 586 165 554 138 l 603 164 l 621 131 q 497 19 543 54 q 426 -17 450 -17 q 383 24 383 -17 q 400 114 383 56 q 436 237 417 172 q 472 362 456 301 q 489 458 489 422 q 476 499 489 483 q 442 515 463 515 q 390 488 419 515 q 327 410 361 460 q 256 290 293 360 q 183 136 219 221 l 168 19 q 158 11 168 17 q 133 0 147 6 q 105 -9 119 -6 q 82 -12 90 -12 l 72 0 q 113 264 93 133 q 130 380 121 319 q 148 501 139 440 q 166 618 157 561 q 182 725 175 675 l 57 724 l 44 736 l 54 790 l 192 789 q 202 865 199 835 q 206 903 206 894 q 192 944 206 931 q 147 957 179 957 l 90 957 l 99 1010 q 169 1010 131 1010 q 242 1014 207 1011 q 322 1018 282 1015 l 335 1001 q 321 943 328 976 q 306 876 314 915 q 288 790 297 838 l 394 796 l 413 778 l 407 726 l 274 725 q 233 513 254 628 q 194 281 211 399 l 201 276 q 346 513 274 418 q 483 644 418 607 q 526 634 506 644 q 560 605 546 624 q 584 562 575 586 q 593 510 593 538 q 578 420 593 474 q 542 308 563 367 q 502 190 522 249 q 472 89 482 132 l 476 83 z "},"i":{"ha":367,"x_min":49,"x_max":335,"o":"m 247 822 q 203 841 218 822 q 189 883 189 860 q 214 947 189 919 q 278 975 239 975 q 320 956 306 975 q 335 914 335 938 q 310 850 335 878 q 247 822 285 822 m 185 83 q 197 86 190 83 q 215 98 203 89 q 246 123 226 107 q 294 165 265 139 l 311 164 l 329 131 q 208 21 257 58 q 135 -17 158 -17 q 102 -4 111 -17 q 93 32 93 8 q 128 251 113 153 q 141 335 135 293 q 153 413 147 378 q 161 474 158 449 q 164 508 164 499 q 151 553 164 540 q 106 567 138 567 l 49 567 l 58 619 q 129 620 90 619 q 203 624 168 621 q 283 628 243 625 l 296 611 q 251 447 272 533 q 213 279 232 372 q 181 89 194 186 l 185 83 z "},"j":{"ha":340,"x_min":-87,"x_max":332,"o":"m 172 29 q 142 -99 163 -43 q 92 -199 122 -156 q 23 -276 63 -243 q -67 -335 -17 -310 l -87 -308 l -83 -297 q -14 -237 -43 -268 q 36 -167 15 -207 q 71 -74 57 -126 q 94 53 85 -21 q 129 261 114 167 q 141 341 135 301 q 153 415 147 381 q 161 473 158 449 q 164 507 164 497 q 103 567 164 567 l 46 567 l 57 619 q 127 620 89 619 q 199 624 165 621 q 278 628 238 625 l 292 611 q 243 403 267 507 q 223 310 233 358 q 203 213 213 261 q 185 117 193 164 q 172 29 178 71 m 243 822 q 201 839 217 822 q 185 883 185 856 q 211 948 185 921 q 274 975 238 975 q 316 958 300 975 q 332 914 332 942 q 306 849 332 876 q 243 822 279 822 z "},"į":{"ha":392,"x_min":-22,"x_max":335,"o":"m 256 -247 q 210 -282 235 -265 q 163 -312 189 -297 q 111 -335 138 -326 q 15 -305 51 -335 q -22 -219 -22 -275 q 17 -119 -22 -168 q 114 -14 56 -69 q 93 32 93 -4 q 128 251 113 153 q 141 335 135 293 q 153 413 147 378 q 161 474 158 449 q 164 508 164 499 q 151 553 164 540 q 106 567 138 567 l 49 567 l 58 619 q 129 620 90 619 q 203 624 168 621 q 283 628 243 625 l 296 611 q 251 447 272 533 q 213 279 232 372 q 181 89 194 186 l 185 83 q 197 86 190 83 q 215 98 203 89 q 246 123 226 107 q 294 165 265 139 l 311 164 l 329 131 q 213 24 263 68 q 131 -56 164 -21 q 83 -122 99 -92 q 67 -186 67 -153 q 85 -234 67 -215 q 135 -253 103 -253 q 173 -249 154 -253 q 207 -237 192 -244 q 242 -221 225 -231 l 256 -247 m 247 822 q 203 841 218 822 q 189 883 189 860 q 214 947 189 919 q 278 975 239 975 q 320 956 306 975 q 335 914 335 938 q 310 850 335 878 q 247 822 285 822 z "},"k":{"ha":600,"x_min":72,"x_max":589,"o":"m 294 249 l 300 269 q 443 365 397 318 q 489 464 489 413 q 476 501 489 488 q 443 515 463 515 q 391 488 421 515 q 326 409 361 460 q 255 288 292 358 q 183 135 218 218 l 168 19 q 158 11 168 17 q 133 0 147 6 q 105 -9 119 -6 q 82 -12 90 -12 l 72 0 q 139 431 110 238 q 163 592 151 513 q 185 738 175 672 q 200 848 194 804 q 206 903 206 892 q 192 944 206 931 q 147 957 179 957 l 90 957 l 99 1010 q 169 1010 131 1010 q 242 1014 207 1011 q 322 1018 282 1015 l 335 1001 q 283 771 308 890 q 238 539 261 667 q 194 281 214 411 l 201 276 q 346 513 274 418 q 483 644 418 607 q 524 635 506 644 q 558 608 543 625 q 581 567 572 590 q 589 517 589 543 q 534 386 589 451 q 375 258 479 321 q 438 164 407 206 q 493 92 469 122 q 544 28 521 56 l 547 11 l 463 -33 l 444 -24 l 294 249 z "},"ķ":{"ha":600,"x_min":72,"x_max":589,"o":"m 294 249 l 300 269 q 443 365 397 318 q 489 464 489 413 q 476 501 489 488 q 443 515 463 515 q 391 488 421 515 q 326 409 361 460 q 255 288 292 358 q 183 135 218 218 l 168 19 q 158 11 168 17 q 133 0 147 6 q 105 -9 119 -6 q 82 -12 90 -12 l 72 0 q 139 431 110 238 q 163 592 151 513 q 185 738 175 672 q 200 848 194 804 q 206 903 206 892 q 192 944 206 931 q 147 957 179 957 l 90 957 l 99 1010 q 169 1010 131 1010 q 242 1014 207 1011 q 322 1018 282 1015 l 335 1001 q 283 771 308 890 q 238 539 261 667 q 194 281 214 411 l 201 276 q 346 513 274 418 q 483 644 418 607 q 524 635 506 644 q 558 608 543 625 q 581 567 572 590 q 589 517 589 543 q 534 386 589 451 q 375 258 479 321 q 438 164 407 206 q 493 92 469 122 q 544 28 521 56 l 547 11 l 463 -33 l 444 -24 l 294 249 m 214 -129 q 249 -106 228 -118 q 294 -93 271 -93 q 348 -119 326 -93 q 369 -192 369 -146 q 352 -262 369 -229 q 309 -322 335 -294 q 252 -370 283 -349 q 192 -407 221 -392 l 167 -386 l 167 -372 q 238 -308 208 -346 q 267 -235 267 -271 q 251 -185 267 -207 q 211 -149 235 -162 l 214 -129 z "},"l":{"ha":347,"x_min":75,"x_max":335,"o":"m 168 83 q 180 86 174 83 q 198 98 186 89 q 229 123 210 107 q 278 165 249 139 l 294 164 l 313 131 q 191 21 240 58 q 118 -17 142 -17 q 75 24 75 -17 q 81 66 75 28 q 95 163 86 104 q 116 297 104 222 q 140 451 128 372 q 165 606 153 529 q 185 744 176 682 q 200 849 194 807 q 206 901 206 890 q 192 944 206 931 q 147 957 179 957 l 90 957 l 99 1010 q 169 1010 131 1010 q 242 1014 207 1011 q 322 1018 282 1015 l 335 1001 q 267 679 299 840 q 238 535 253 610 q 210 383 224 460 q 184 231 196 306 q 164 89 172 156 l 168 83 z "},"ĺ":{"ha":347,"x_min":75,"x_max":407,"o":"m 168 83 q 180 86 174 83 q 198 98 186 89 q 229 123 210 107 q 278 165 249 139 l 294 164 l 313 131 q 191 21 240 58 q 118 -17 142 -17 q 75 24 75 -17 q 81 66 75 28 q 95 163 86 104 q 116 297 104 222 q 140 451 128 372 q 165 606 153 529 q 185 744 176 682 q 200 849 194 807 q 206 901 206 890 q 192 944 206 931 q 147 957 179 957 l 90 957 l 99 1010 q 169 1010 131 1010 q 242 1014 207 1011 q 322 1018 282 1015 l 335 1001 q 267 679 299 840 q 238 535 253 610 q 210 383 224 460 q 184 231 196 306 q 164 89 172 156 l 168 83 m 406 1238 q 332 1179 369 1210 q 258 1117 299 1151 q 172 1043 217 1083 l 160 1046 l 132 1072 q 206 1155 169 1113 q 274 1233 243 1197 q 340 1313 308 1274 l 354 1310 l 407 1253 l 406 1238 z "},"ľ":{"ha":453,"x_min":75,"x_max":522,"o":"m 168 83 q 180 86 174 83 q 198 98 186 89 q 229 123 210 107 q 278 165 249 139 l 294 164 l 313 131 q 191 21 240 58 q 118 -17 142 -17 q 75 24 75 -17 q 81 66 75 28 q 95 163 86 104 q 116 297 104 222 q 140 451 128 372 q 165 606 153 529 q 185 744 176 682 q 200 849 194 807 q 206 901 206 890 q 192 944 206 931 q 147 957 179 957 l 90 957 l 99 1010 q 169 1010 131 1010 q 242 1014 207 1011 q 322 1018 282 1015 l 335 1001 q 267 679 299 840 q 238 535 253 610 q 210 383 224 460 q 184 231 196 306 q 164 89 172 156 l 168 83 m 522 974 q 497 879 511 928 q 472 785 486 838 q 440 679 457 732 l 401 660 l 388 663 q 402 774 396 721 q 411 871 408 828 q 417 965 415 921 l 515 985 l 522 974 z "},"ļ":{"ha":347,"x_min":-8,"x_max":335,"o":"m 168 83 q 180 86 174 83 q 198 98 186 89 q 229 123 210 107 q 278 165 249 139 l 294 164 l 313 131 q 191 21 240 58 q 118 -17 142 -17 q 75 24 75 -17 q 81 66 75 28 q 95 163 86 104 q 116 297 104 222 q 140 451 128 372 q 165 606 153 529 q 185 744 176 682 q 200 849 194 807 q 206 901 206 890 q 192 944 206 931 q 147 957 179 957 l 90 957 l 99 1010 q 169 1010 131 1010 q 242 1014 207 1011 q 322 1018 282 1015 l 335 1001 q 267 679 299 840 q 238 535 253 610 q 210 383 224 460 q 184 231 196 306 q 164 89 172 156 l 168 83 m 39 -129 q 74 -106 53 -118 q 119 -93 96 -93 q 173 -119 151 -93 q 194 -192 194 -146 q 177 -262 194 -229 q 134 -322 160 -294 q 77 -370 108 -349 q 17 -407 46 -392 l -8 -386 l -8 -372 q 63 -308 33 -346 q 92 -235 92 -271 q 76 -185 92 -207 q 36 -149 60 -162 l 39 -129 z "},"ŀ":{"ha":439,"x_min":75,"x_max":449,"o":"m 168 83 q 180 86 174 83 q 198 98 186 89 q 229 123 210 107 q 278 165 249 139 l 294 164 l 313 131 q 191 21 240 58 q 118 -17 142 -17 q 75 24 75 -17 q 81 66 75 28 q 95 163 86 104 q 116 297 104 222 q 140 451 128 372 q 165 606 153 529 q 185 744 176 682 q 200 849 194 807 q 206 901 206 890 q 192 944 206 931 q 147 957 179 957 l 90 957 l 99 1010 q 169 1010 131 1010 q 242 1014 207 1011 q 322 1018 282 1015 l 335 1001 q 267 679 299 840 q 238 535 253 610 q 210 383 224 460 q 184 231 196 306 q 164 89 172 156 l 168 83 m 351 304 q 299 325 315 304 q 283 374 283 346 q 310 441 283 413 q 379 469 338 469 q 431 449 414 469 q 449 400 449 429 q 422 333 449 361 q 351 304 394 304 z "},"ł":{"ha":347,"x_min":32,"x_max":364,"o":"m 168 83 q 180 86 174 83 q 198 98 186 89 q 229 123 210 107 q 278 165 249 139 l 294 164 l 313 131 q 191 21 240 58 q 118 -17 142 -17 q 75 24 75 -17 q 81 69 75 28 q 97 174 88 110 q 119 317 107 238 q 144 478 132 396 l 53 428 l 40 431 l 32 475 l 154 543 q 174 670 164 610 q 190 779 183 731 q 201 860 197 828 q 206 901 206 893 q 192 944 206 931 q 147 957 179 957 l 90 957 l 99 1010 q 169 1010 131 1010 q 242 1014 207 1011 q 322 1018 282 1015 l 335 1001 q 308 881 322 947 q 281 749 296 824 q 249 590 265 675 l 344 643 l 356 638 l 364 594 l 236 524 q 196 300 215 413 q 164 89 176 188 l 168 83 z "},"m":{"ha":1022,"x_min":49,"x_max":963,"o":"m 817 83 q 828 86 822 83 q 845 97 833 89 q 876 122 857 106 q 928 165 896 138 l 944 164 l 963 131 q 835 19 883 54 q 765 -17 788 -17 q 722 24 722 -17 q 731 78 722 44 q 751 153 739 113 q 779 237 764 193 q 807 322 794 281 q 828 399 819 364 q 836 458 836 435 q 823 499 836 483 q 789 515 810 515 q 735 485 767 515 q 668 402 704 456 q 593 274 632 349 q 517 110 554 200 l 500 19 q 490 11 500 17 q 465 0 479 6 q 437 -9 451 -6 q 414 -12 422 -12 l 404 0 q 450 210 429 114 q 467 290 458 250 q 483 365 476 331 q 493 424 489 399 q 497 458 497 449 q 484 499 497 483 q 450 515 471 515 q 401 488 429 515 q 339 411 372 461 q 270 292 306 361 q 200 138 235 222 l 185 19 q 174 11 185 17 q 150 0 164 6 q 122 -9 136 -6 q 99 -12 107 -12 l 89 0 q 126 239 110 132 q 140 330 133 285 q 153 413 147 375 q 162 476 158 450 q 165 511 165 503 q 151 553 165 540 q 106 567 138 567 l 49 567 l 58 619 q 129 620 90 619 q 203 624 168 621 q 283 628 243 625 l 296 611 q 264 507 279 563 q 235 401 250 460 q 211 281 221 342 l 215 276 q 357 513 286 419 q 492 644 428 607 q 533 634 514 644 q 567 606 553 624 q 590 565 582 589 q 599 515 599 542 q 590 459 599 497 q 569 381 581 421 q 542 281 557 335 l 546 276 q 690 508 615 413 q 833 644 765 604 q 907 608 878 644 q 936 515 936 571 q 921 424 936 478 q 885 310 906 369 q 843 192 864 250 q 813 89 822 133 l 817 83 z "},"n":{"ha":697,"x_min":49,"x_max":638,"o":"m 493 83 q 504 86 499 83 q 522 97 510 89 q 552 122 533 106 q 603 165 571 138 l 619 164 l 638 131 q 443 -17 490 -17 q 400 24 400 -17 q 417 114 400 56 q 453 237 433 172 q 489 362 472 301 q 506 458 506 422 q 492 499 506 483 q 458 515 479 515 q 407 488 436 515 q 344 410 378 460 q 273 289 310 360 q 200 133 236 218 l 185 19 q 174 11 185 17 q 150 0 164 6 q 122 -9 136 -6 q 99 -12 107 -12 l 89 0 q 126 239 110 132 q 140 330 133 285 q 153 413 147 375 q 162 476 158 450 q 165 511 165 503 q 151 553 165 540 q 106 567 138 567 l 49 567 l 58 619 q 129 620 90 619 q 203 624 168 621 q 283 628 243 625 l 296 611 q 264 507 279 563 q 235 401 250 460 q 211 281 221 342 l 218 276 q 363 513 290 418 q 500 644 435 607 q 575 606 544 644 q 606 511 606 568 q 591 421 606 475 q 557 308 576 367 q 518 190 538 249 q 489 89 499 132 l 493 83 z "},"ń":{"ha":697,"x_min":49,"x_max":638,"o":"m 493 83 q 504 86 499 83 q 522 97 510 89 q 552 122 533 106 q 603 165 571 138 l 619 164 l 638 131 q 443 -17 490 -17 q 400 24 400 -17 q 417 114 400 56 q 453 237 433 172 q 489 362 472 301 q 506 458 506 422 q 492 499 506 483 q 458 515 479 515 q 407 488 436 515 q 344 410 378 460 q 273 289 310 360 q 200 133 236 218 l 185 19 q 174 11 185 17 q 150 0 164 6 q 122 -9 136 -6 q 99 -12 107 -12 l 89 0 q 126 239 110 132 q 140 330 133 285 q 153 413 147 375 q 162 476 158 450 q 165 511 165 503 q 151 553 165 540 q 106 567 138 567 l 49 567 l 58 619 q 129 620 90 619 q 203 624 168 621 q 283 628 243 625 l 296 611 q 264 507 279 563 q 235 401 250 460 q 211 281 221 342 l 218 276 q 363 513 290 418 q 500 644 435 607 q 575 606 544 644 q 606 511 606 568 q 591 421 606 475 q 557 308 576 367 q 518 190 538 249 q 489 89 499 132 l 493 83 m 604 918 q 531 860 568 890 q 456 798 497 832 q 371 724 415 764 l 358 726 l 331 753 q 405 835 368 793 q 472 914 442 878 q 539 993 507 954 l 553 990 l 606 933 l 604 918 z "},"ň":{"ha":697,"x_min":49,"x_max":646,"o":"m 493 83 q 504 86 499 83 q 522 97 510 89 q 552 122 533 106 q 603 165 571 138 l 619 164 l 638 131 q 443 -17 490 -17 q 400 24 400 -17 q 417 114 400 56 q 453 237 433 172 q 489 362 472 301 q 506 458 506 422 q 492 499 506 483 q 458 515 479 515 q 407 488 436 515 q 344 410 378 460 q 273 289 310 360 q 200 133 236 218 l 185 19 q 174 11 185 17 q 150 0 164 6 q 122 -9 136 -6 q 99 -12 107 -12 l 89 0 q 126 239 110 132 q 140 330 133 285 q 153 413 147 375 q 162 476 158 450 q 165 511 165 503 q 151 553 165 540 q 106 567 138 567 l 49 567 l 58 619 q 129 620 90 619 q 203 624 168 621 q 283 628 243 625 l 296 611 q 264 507 279 563 q 235 401 250 460 q 211 281 221 342 l 218 276 q 363 513 290 418 q 500 644 435 607 q 575 606 544 644 q 606 511 606 568 q 591 421 606 475 q 557 308 576 367 q 518 190 538 249 q 489 89 499 132 l 493 83 m 265 985 l 276 986 q 362 904 321 940 q 429 846 403 868 q 510 905 460 868 q 617 986 561 942 l 628 985 l 646 953 q 567 876 606 915 q 496 804 528 836 q 424 731 458 767 l 406 731 q 351 804 379 767 q 298 876 328 836 q 239 953 268 915 l 265 985 z "},"ņ":{"ha":697,"x_min":49,"x_max":638,"o":"m 493 83 q 504 86 499 83 q 522 97 510 89 q 552 122 533 106 q 603 165 571 138 l 619 164 l 638 131 q 443 -17 490 -17 q 400 24 400 -17 q 417 114 400 56 q 453 237 433 172 q 489 362 472 301 q 506 458 506 422 q 492 499 506 483 q 458 515 479 515 q 407 488 436 515 q 344 410 378 460 q 273 289 310 360 q 200 133 236 218 l 185 19 q 174 11 185 17 q 150 0 164 6 q 122 -9 136 -6 q 99 -12 107 -12 l 89 0 q 126 239 110 132 q 140 330 133 285 q 153 413 147 375 q 162 476 158 450 q 165 511 165 503 q 151 553 165 540 q 106 567 138 567 l 49 567 l 58 619 q 129 620 90 619 q 203 624 168 621 q 283 628 243 625 l 296 611 q 264 507 279 563 q 235 401 250 460 q 211 281 221 342 l 218 276 q 363 513 290 418 q 500 644 435 607 q 575 606 544 644 q 606 511 606 568 q 591 421 606 475 q 557 308 576 367 q 518 190 538 249 q 489 89 499 132 l 493 83 m 238 -129 q 273 -106 251 -118 q 318 -93 294 -93 q 372 -119 350 -93 q 393 -192 393 -146 q 376 -262 393 -229 q 333 -322 358 -294 q 276 -370 307 -349 q 215 -407 244 -392 l 190 -386 l 190 -372 q 261 -308 232 -346 q 290 -235 290 -271 q 274 -185 290 -207 q 235 -149 258 -162 l 238 -129 z "},"ñ":{"ha":697,"x_min":49,"x_max":658,"o":"m 493 83 q 504 86 499 83 q 522 97 510 89 q 552 122 533 106 q 603 165 571 138 l 619 164 l 638 131 q 443 -17 490 -17 q 400 24 400 -17 q 417 114 400 56 q 453 237 433 172 q 489 362 472 301 q 506 458 506 422 q 492 499 506 483 q 458 515 479 515 q 407 488 436 515 q 344 410 378 460 q 273 289 310 360 q 200 133 236 218 l 185 19 q 174 11 185 17 q 150 0 164 6 q 122 -9 136 -6 q 99 -12 107 -12 l 89 0 q 126 239 110 132 q 140 330 133 285 q 153 413 147 375 q 162 476 158 450 q 165 511 165 503 q 151 553 165 540 q 106 567 138 567 l 49 567 l 58 619 q 129 620 90 619 q 203 624 168 621 q 283 628 243 625 l 296 611 q 264 507 279 563 q 235 401 250 460 q 211 281 221 342 l 218 276 q 363 513 290 418 q 500 644 435 607 q 575 606 544 644 q 606 511 606 568 q 591 421 606 475 q 557 308 576 367 q 518 190 538 249 q 489 89 499 132 l 493 83 m 226 765 l 200 794 l 201 801 l 318 925 l 339 931 q 382 924 356 931 q 437 908 408 917 q 490 892 465 899 q 529 885 515 885 q 556 896 540 885 q 588 922 572 907 q 622 961 604 939 l 631 961 l 658 932 l 657 925 l 540 801 l 518 796 q 475 803 501 796 q 421 819 449 810 q 368 835 393 828 q 329 842 343 842 q 301 830 317 842 q 271 803 286 818 q 236 765 254 786 l 226 765 z "},"o":{"ha":564,"x_min":47,"x_max":521,"o":"m 258 60 q 322 83 293 60 q 372 146 351 106 q 405 241 393 186 q 417 361 417 296 q 387 508 417 454 q 304 561 357 561 q 242 540 271 561 q 192 481 213 518 q 159 392 171 443 q 147 281 147 340 q 156 191 147 232 q 178 121 164 150 q 213 76 193 92 q 258 60 233 60 m 203 -17 q 90 45 133 -17 q 47 211 47 107 q 73 374 47 296 q 142 513 99 453 q 242 609 185 574 q 363 644 300 644 q 478 590 436 644 q 521 438 521 536 q 496 263 521 346 q 427 119 471 181 q 326 20 383 57 q 203 -17 268 -17 z "},"ó":{"ha":564,"x_min":47,"x_max":540,"o":"m 258 60 q 322 83 293 60 q 372 146 351 106 q 405 241 393 186 q 417 361 417 296 q 387 508 417 454 q 304 561 357 561 q 242 540 271 561 q 192 481 213 518 q 159 392 171 443 q 147 281 147 340 q 156 191 147 232 q 178 121 164 150 q 213 76 193 92 q 258 60 233 60 m 203 -17 q 90 45 133 -17 q 47 211 47 107 q 73 374 47 296 q 142 513 99 453 q 242 609 185 574 q 363 644 300 644 q 478 590 436 644 q 521 438 521 536 q 496 263 521 346 q 427 119 471 181 q 326 20 383 57 q 203 -17 268 -17 m 539 918 q 465 860 503 890 q 391 798 432 832 q 306 724 350 764 l 293 726 l 265 753 q 340 835 303 793 q 407 914 376 878 q 474 993 442 954 l 488 990 l 540 933 l 539 918 z "},"ô":{"ha":564,"x_min":47,"x_max":549,"o":"m 258 60 q 322 83 293 60 q 372 146 351 106 q 405 241 393 186 q 417 361 417 296 q 387 508 417 454 q 304 561 357 561 q 242 540 271 561 q 192 481 213 518 q 159 392 171 443 q 147 281 147 340 q 156 191 147 232 q 178 121 164 150 q 213 76 193 92 q 258 60 233 60 m 203 -17 q 90 45 133 -17 q 47 211 47 107 q 73 374 47 296 q 142 513 99 453 q 242 609 185 574 q 363 644 300 644 q 478 590 436 644 q 521 438 521 536 q 496 263 521 346 q 427 119 471 181 q 326 20 383 57 q 203 -17 268 -17 m 158 764 l 369 976 l 389 976 l 549 764 l 525 733 l 513 732 l 367 867 l 188 732 l 175 733 l 158 764 z "},"ö":{"ha":564,"x_min":47,"x_max":538,"o":"m 258 60 q 322 83 293 60 q 372 146 351 106 q 405 241 393 186 q 417 361 417 296 q 387 508 417 454 q 304 561 357 561 q 242 540 271 561 q 192 481 213 518 q 159 392 171 443 q 147 281 147 340 q 156 191 147 232 q 178 121 164 150 q 213 76 193 92 q 258 60 233 60 m 203 -17 q 90 45 133 -17 q 47 211 47 107 q 73 374 47 296 q 142 513 99 453 q 242 609 185 574 q 363 644 300 644 q 478 590 436 644 q 521 438 521 536 q 496 263 521 346 q 427 119 471 181 q 326 20 383 57 q 203 -17 268 -17 m 461 786 q 424 803 436 786 q 411 839 411 819 q 434 892 411 869 q 489 915 457 915 q 526 899 514 915 q 538 863 538 883 q 515 809 538 832 q 461 786 493 786 m 239 786 q 201 803 214 786 q 189 839 189 819 q 212 892 189 869 q 267 915 235 915 q 303 899 292 915 q 315 863 315 883 q 293 809 315 832 q 239 786 271 786 z "},"ò":{"ha":564,"x_min":47,"x_max":521,"o":"m 258 60 q 322 83 293 60 q 372 146 351 106 q 405 241 393 186 q 417 361 417 296 q 387 508 417 454 q 304 561 357 561 q 242 540 271 561 q 192 481 213 518 q 159 392 171 443 q 147 281 147 340 q 156 191 147 232 q 178 121 164 150 q 213 76 193 92 q 258 60 233 60 m 203 -17 q 90 45 133 -17 q 47 211 47 107 q 73 374 47 296 q 142 513 99 453 q 242 609 185 574 q 363 644 300 644 q 478 590 436 644 q 521 438 521 536 q 496 263 521 346 q 427 119 471 181 q 326 20 383 57 q 203 -17 268 -17 m 190 932 l 243 989 l 257 992 q 324 913 288 953 q 390 835 353 878 q 465 753 428 793 l 438 726 l 425 724 q 338 799 381 764 q 264 860 296 833 q 192 917 225 890 l 190 932 z "},"ő":{"ha":564,"x_min":47,"x_max":619,"o":"m 258 60 q 322 83 293 60 q 372 146 351 106 q 405 241 393 186 q 417 361 417 296 q 387 508 417 454 q 304 561 357 561 q 242 540 271 561 q 192 481 213 518 q 159 392 171 443 q 147 281 147 340 q 156 191 147 232 q 178 121 164 150 q 213 76 193 92 q 258 60 233 60 m 203 -17 q 90 45 133 -17 q 47 211 47 107 q 73 374 47 296 q 142 513 99 453 q 242 609 185 574 q 363 644 300 644 q 478 590 436 644 q 521 438 521 536 q 496 263 521 346 q 427 119 471 181 q 326 20 383 57 q 203 -17 268 -17 m 439 910 q 372 860 408 886 q 303 806 342 836 q 224 742 264 776 l 211 744 l 189 769 q 258 842 224 806 q 321 910 293 879 q 383 979 354 946 l 396 975 l 442 922 l 439 910 m 617 910 q 550 860 586 886 q 481 806 519 836 q 401 742 442 776 l 389 744 l 367 769 q 436 842 401 806 q 499 910 471 879 q 561 979 532 946 l 574 975 l 619 922 l 617 910 z "},"˝":{"ha":531,"x_min":157,"x_max":588,"o":"m 407 910 q 340 860 376 886 q 271 806 310 836 q 192 742 232 776 l 179 744 l 157 769 q 226 842 192 806 q 289 910 261 879 q 351 979 322 946 l 364 975 l 410 922 l 407 910 m 585 910 q 518 860 554 886 q 449 806 488 836 q 369 742 410 776 l 357 744 l 335 769 q 404 842 369 806 q 467 910 439 879 q 529 979 500 946 l 542 975 l 588 922 l 585 910 z "},"ō":{"ha":564,"x_min":47,"x_max":569,"o":"m 258 60 q 322 83 293 60 q 372 146 351 106 q 405 241 393 186 q 417 361 417 296 q 387 508 417 454 q 304 561 357 561 q 242 540 271 561 q 192 481 213 518 q 159 392 171 443 q 147 281 147 340 q 156 191 147 232 q 178 121 164 150 q 213 76 193 92 q 258 60 233 60 m 203 -17 q 90 45 133 -17 q 47 211 47 107 q 73 374 47 296 q 142 513 99 453 q 242 609 185 574 q 363 644 300 644 q 478 590 436 644 q 521 438 521 536 q 496 263 521 346 q 427 119 471 181 q 326 20 383 57 q 203 -17 268 -17 m 569 893 l 551 828 l 363 826 q 299 826 332 826 q 238 825 265 825 l 171 825 l 164 838 l 185 900 q 258 899 222 899 l 390 899 q 445 899 415 899 q 501 903 475 900 q 564 907 532 904 l 569 893 z "},"ø":{"ha":564,"x_min":31,"x_max":524,"o":"m 104 28 q 47 211 47 89 q 73 374 47 296 q 142 513 99 453 q 242 609 185 574 q 363 644 300 644 q 419 635 394 644 l 479 749 l 519 739 l 524 722 l 461 607 q 505 538 489 581 q 521 438 521 496 q 496 263 521 346 q 427 119 471 181 q 326 20 383 57 q 203 -17 268 -17 q 142 -1 169 -17 l 71 -136 l 33 -128 l 31 -114 l 104 28 m 258 60 q 322 83 293 60 q 372 146 351 106 q 405 241 393 186 q 417 361 417 296 q 397 485 417 433 l 193 96 q 258 60 221 60 m 147 281 q 167 149 147 204 l 367 533 q 304 561 339 561 q 242 540 271 561 q 192 481 213 518 q 159 392 171 443 q 147 281 147 340 z "},"õ":{"ha":564,"x_min":47,"x_max":596,"o":"m 258 60 q 322 83 293 60 q 372 146 351 106 q 405 241 393 186 q 417 361 417 296 q 387 508 417 454 q 304 561 357 561 q 242 540 271 561 q 192 481 213 518 q 159 392 171 443 q 147 281 147 340 q 156 191 147 232 q 178 121 164 150 q 213 76 193 92 q 258 60 233 60 m 203 -17 q 90 45 133 -17 q 47 211 47 107 q 73 374 47 296 q 142 513 99 453 q 242 609 185 574 q 363 644 300 644 q 478 590 436 644 q 521 438 521 536 q 496 263 521 346 q 427 119 471 181 q 326 20 383 57 q 203 -17 268 -17 m 164 765 l 138 794 l 139 801 l 256 925 l 276 931 q 319 924 293 931 q 374 908 346 917 q 428 892 403 899 q 467 885 453 885 q 494 896 478 885 q 525 922 510 907 q 560 961 542 939 l 568 961 l 596 932 l 594 925 l 478 801 l 456 796 q 413 803 439 796 q 358 819 386 810 q 306 835 331 828 q 267 842 281 842 q 239 830 254 842 q 208 803 224 818 q 174 765 192 786 l 164 765 z "},"p":{"ha":646,"x_min":-22,"x_max":600,"o":"m -14 -276 q 14 -270 3 -275 q 33 -255 25 -265 q 49 -228 42 -244 q 63 -185 56 -211 q 76 -112 67 -168 q 91 -26 86 -57 q 103 47 96 4 q 122 172 110 89 q 145 326 135 254 q 162 448 156 397 q 168 511 168 499 q 154 553 168 540 q 108 567 140 567 l 51 567 l 61 619 q 132 620 93 619 q 206 624 171 621 q 286 628 246 625 l 299 611 q 249 450 269 528 q 213 285 228 372 l 218 281 q 287 415 256 357 q 347 517 318 474 q 402 590 375 560 q 458 644 429 621 q 560 584 521 644 q 600 426 600 524 q 574 269 600 347 q 506 129 547 192 q 411 28 464 67 q 306 -11 358 -11 l 174 7 l 144 -194 q 151 -249 139 -235 q 203 -262 163 -262 l 260 -262 l 261 -271 l 253 -317 q 145 -318 194 -317 q 58 -322 96 -319 q -22 -326 14 -325 l -14 -276 m 440 529 q 398 499 424 529 q 339 413 372 468 q 267 278 306 357 q 189 104 229 200 q 275 75 229 86 q 351 64 321 64 q 407 90 379 64 q 456 158 435 115 q 491 253 478 200 q 504 360 504 306 q 499 424 504 393 q 485 478 493 454 q 465 515 476 501 q 440 529 453 529 z "},"q":{"ha":614,"x_min":47,"x_max":593,"o":"m 379 71 l 424 313 l 414 315 q 290 110 347 189 q 176 -17 233 31 q 83 41 118 -17 q 47 193 47 99 q 75 353 47 274 q 147 497 103 433 q 249 600 192 561 q 363 639 306 639 l 499 617 l 528 689 l 538 692 l 583 676 l 593 660 q 565 577 582 639 q 528 432 547 515 q 489 253 508 349 q 454 68 469 157 q 429 -92 439 -21 q 419 -200 419 -164 q 429 -247 419 -233 q 463 -260 439 -260 l 519 -260 l 522 -268 l 515 -315 q 408 -318 460 -315 q 317 -324 357 -321 q 226 -332 269 -328 l 235 -278 q 280 -269 263 -274 q 308 -252 297 -264 q 326 -222 319 -240 q 338 -171 332 -203 l 379 71 m 196 96 q 238 125 213 96 q 298 208 264 154 q 372 341 332 263 q 457 519 413 419 q 383 552 419 540 q 319 564 347 564 q 254 538 286 564 q 197 468 222 511 q 157 369 172 425 q 142 256 142 314 q 146 194 142 224 q 158 144 150 165 q 175 109 165 122 q 196 96 185 96 z "},"r":{"ha":481,"x_min":49,"x_max":518,"o":"m 89 0 q 126 232 110 126 q 140 321 133 276 q 153 403 147 365 q 162 467 158 440 q 165 506 165 494 q 152 553 165 539 q 106 567 139 567 l 49 567 l 58 619 q 129 620 90 619 q 203 624 168 621 q 283 628 243 625 l 296 611 q 268 519 282 567 q 244 427 257 479 q 221 324 231 375 l 226 322 q 290 445 256 388 q 358 546 324 503 q 423 614 392 589 q 478 639 454 639 q 518 543 518 604 q 516 520 518 532 q 511 494 514 508 l 500 490 q 489 493 494 492 q 476 496 483 494 q 461 497 469 497 q 399 474 432 497 q 332 410 365 451 q 267 309 299 368 q 206 176 235 250 l 185 19 q 174 11 185 17 q 150 0 164 6 q 122 -9 136 -6 q 99 -12 107 -12 l 89 0 l 89 0 z "},"ŕ":{"ha":481,"x_min":49,"x_max":518,"o":"m 89 0 q 126 232 110 126 q 140 321 133 276 q 153 403 147 365 q 162 467 158 440 q 165 506 165 494 q 152 553 165 539 q 106 567 139 567 l 49 567 l 58 619 q 129 620 90 619 q 203 624 168 621 q 283 628 243 625 l 296 611 q 268 519 282 567 q 244 427 257 479 q 221 324 231 375 l 226 322 q 290 445 256 388 q 358 546 324 503 q 423 614 392 589 q 478 639 454 639 q 518 543 518 604 q 516 520 518 532 q 511 494 514 508 l 500 490 q 489 493 494 492 q 476 496 483 494 q 461 497 469 497 q 399 474 432 497 q 332 410 365 451 q 267 309 299 368 q 206 176 235 250 l 185 19 q 174 11 185 17 q 150 0 164 6 q 122 -9 136 -6 q 99 -12 107 -12 l 89 0 l 89 0 m 432 918 q 358 860 396 890 q 284 798 325 832 q 199 724 243 764 l 186 726 l 158 753 q 233 835 196 793 q 300 914 269 878 q 367 993 335 954 l 381 990 l 433 933 l 432 918 z "},"ř":{"ha":481,"x_min":49,"x_max":518,"o":"m 89 0 q 126 232 110 126 q 140 321 133 276 q 153 403 147 365 q 162 467 158 440 q 165 506 165 494 q 152 553 165 539 q 106 567 139 567 l 49 567 l 58 619 q 129 620 90 619 q 203 624 168 621 q 283 628 243 625 l 296 611 q 268 519 282 567 q 244 427 257 479 q 221 324 231 375 l 226 322 q 290 445 256 388 q 358 546 324 503 q 423 614 392 589 q 478 639 454 639 q 518 543 518 604 q 516 520 518 532 q 511 494 514 508 l 500 490 q 489 493 494 492 q 476 496 483 494 q 461 497 469 497 q 399 474 432 497 q 332 410 365 451 q 267 309 299 368 q 206 176 235 250 l 185 19 q 174 11 185 17 q 150 0 164 6 q 122 -9 136 -6 q 99 -12 107 -12 l 89 0 l 89 0 m 93 985 l 104 986 q 190 904 149 940 q 257 846 231 868 q 338 905 288 868 q 444 986 389 942 l 456 985 l 474 953 q 394 876 433 915 q 324 804 356 836 q 251 731 286 767 l 233 731 q 179 804 207 767 q 126 876 156 836 q 67 953 96 915 l 93 985 z "},"ŗ":{"ha":481,"x_min":29,"x_max":518,"o":"m 89 0 q 126 232 110 126 q 140 321 133 276 q 153 403 147 365 q 162 467 158 440 q 165 506 165 494 q 152 553 165 539 q 106 567 139 567 l 49 567 l 58 619 q 129 620 90 619 q 203 624 168 621 q 283 628 243 625 l 296 611 q 268 519 282 567 q 244 427 257 479 q 221 324 231 375 l 226 322 q 290 445 256 388 q 358 546 324 503 q 423 614 392 589 q 478 639 454 639 q 518 543 518 604 q 516 520 518 532 q 511 494 514 508 l 500 490 q 489 493 494 492 q 476 496 483 494 q 461 497 469 497 q 399 474 432 497 q 332 410 365 451 q 267 309 299 368 q 206 176 235 250 l 185 19 q 174 11 185 17 q 150 0 164 6 q 122 -9 136 -6 q 99 -12 107 -12 l 89 0 l 89 0 m 76 -129 q 112 -106 90 -118 q 157 -93 133 -93 q 210 -119 189 -93 q 232 -192 232 -146 q 215 -262 232 -229 q 172 -322 197 -294 q 115 -370 146 -349 q 54 -407 83 -392 l 29 -386 l 29 -372 q 100 -308 71 -346 q 129 -235 129 -271 q 113 -185 129 -207 q 74 -149 97 -162 l 76 -129 z "},"s":{"ha":471,"x_min":10,"x_max":451,"o":"m 79 192 q 113 84 79 121 q 213 47 147 47 q 281 74 253 47 q 310 136 310 100 q 284 202 310 172 q 222 263 258 232 q 176 303 199 282 q 134 347 153 324 q 103 395 115 369 q 92 450 92 421 q 109 524 92 489 q 156 586 126 560 q 226 628 186 613 q 308 644 265 644 q 394 630 356 644 q 451 589 432 615 q 428 532 443 564 q 404 481 414 500 l 385 481 q 338 552 369 526 q 264 578 306 578 q 208 556 231 578 q 185 503 185 535 q 196 459 185 479 q 226 419 207 439 q 280 369 250 394 q 337 317 310 344 q 383 259 364 290 q 401 190 401 228 q 383 113 401 150 q 332 47 364 75 q 258 1 300 18 q 172 -17 217 -17 q 65 4 108 -17 q 10 61 21 25 q 20 95 14 76 q 33 132 26 114 q 47 166 40 150 q 60 192 54 182 l 79 192 z "},"ś":{"ha":471,"x_min":10,"x_max":513,"o":"m 79 192 q 113 84 79 121 q 213 47 147 47 q 281 74 253 47 q 310 136 310 100 q 284 202 310 172 q 222 263 258 232 q 176 303 199 282 q 134 347 153 324 q 103 395 115 369 q 92 450 92 421 q 109 524 92 489 q 156 586 126 560 q 226 628 186 613 q 308 644 265 644 q 394 630 356 644 q 451 589 432 615 q 428 532 443 564 q 404 481 414 500 l 385 481 q 338 552 369 526 q 264 578 306 578 q 208 556 231 578 q 185 503 185 535 q 196 459 185 479 q 226 419 207 439 q 280 369 250 394 q 337 317 310 344 q 383 259 364 290 q 401 190 401 228 q 383 113 401 150 q 332 47 364 75 q 258 1 300 18 q 172 -17 217 -17 q 65 4 108 -17 q 10 61 21 25 q 20 95 14 76 q 33 132 26 114 q 47 166 40 150 q 60 192 54 182 l 79 192 m 511 918 q 438 860 475 890 q 363 798 404 832 q 278 724 322 764 l 265 726 l 238 753 q 312 835 275 793 q 379 914 349 878 q 446 993 414 954 l 460 990 l 513 933 l 511 918 z "},"š":{"ha":471,"x_min":10,"x_max":553,"o":"m 79 192 q 113 84 79 121 q 213 47 147 47 q 281 74 253 47 q 310 136 310 100 q 284 202 310 172 q 222 263 258 232 q 176 303 199 282 q 134 347 153 324 q 103 395 115 369 q 92 450 92 421 q 109 524 92 489 q 156 586 126 560 q 226 628 186 613 q 308 644 265 644 q 394 630 356 644 q 451 589 432 615 q 428 532 443 564 q 404 481 414 500 l 385 481 q 338 552 369 526 q 264 578 306 578 q 208 556 231 578 q 185 503 185 535 q 196 459 185 479 q 226 419 207 439 q 280 369 250 394 q 337 317 310 344 q 383 259 364 290 q 401 190 401 228 q 383 113 401 150 q 332 47 364 75 q 258 1 300 18 q 172 -17 217 -17 q 65 4 108 -17 q 10 61 21 25 q 20 95 14 76 q 33 132 26 114 q 47 166 40 150 q 60 192 54 182 l 79 192 m 172 985 l 183 986 q 269 904 228 940 q 336 846 310 868 q 417 905 367 868 q 524 986 468 942 l 535 985 l 553 953 q 474 876 513 915 q 403 804 435 836 q 331 731 365 767 l 313 731 q 258 804 286 767 q 205 876 235 836 q 146 953 175 915 l 172 985 z "},"ş":{"ha":471,"x_min":10,"x_max":451,"o":"m 154 -17 q 59 6 97 -14 q 10 61 21 26 q 20 95 14 76 q 33 132 26 114 q 47 166 40 150 q 60 192 54 182 l 79 192 q 113 84 79 121 q 213 47 147 47 q 281 74 253 47 q 310 136 310 100 q 284 202 310 172 q 222 263 258 232 q 176 303 199 282 q 134 347 153 324 q 103 395 115 369 q 92 450 92 421 q 109 524 92 489 q 156 586 126 560 q 226 628 186 613 q 308 644 265 644 q 394 630 356 644 q 451 589 432 615 q 428 532 443 564 q 404 481 414 500 l 385 481 q 338 552 369 526 q 264 578 306 578 q 208 556 231 578 q 185 503 185 535 q 196 459 185 479 q 226 419 207 439 q 280 369 250 394 q 337 317 310 344 q 383 259 364 290 q 401 190 401 228 q 386 121 401 154 q 345 60 371 88 q 285 14 319 33 q 213 -12 251 -6 l 188 -69 q 219 -94 201 -81 q 252 -122 238 -107 q 277 -153 267 -136 q 288 -187 288 -169 q 271 -240 288 -215 q 228 -283 254 -264 q 170 -312 201 -301 q 110 -324 139 -324 q 52 -312 81 -324 q 24 -276 24 -300 q 39 -238 24 -262 q 68 -196 54 -214 l 79 -196 q 94 -255 76 -235 q 143 -275 111 -275 q 192 -259 171 -275 q 214 -219 214 -243 q 205 -194 214 -207 q 181 -169 196 -182 q 149 -142 167 -156 q 113 -118 131 -129 l 154 -17 z "},"ș":{"ha":471,"x_min":10,"x_max":451,"o":"m 79 192 q 113 84 79 121 q 213 47 147 47 q 281 74 253 47 q 310 136 310 100 q 284 202 310 172 q 222 263 258 232 q 176 303 199 282 q 134 347 153 324 q 103 395 115 369 q 92 450 92 421 q 109 524 92 489 q 156 586 126 560 q 226 628 186 613 q 308 644 265 644 q 394 630 356 644 q 451 589 432 615 q 428 532 443 564 q 404 481 414 500 l 385 481 q 338 552 369 526 q 264 578 306 578 q 208 556 231 578 q 185 503 185 535 q 196 459 185 479 q 226 419 207 439 q 280 369 250 394 q 337 317 310 344 q 383 259 364 290 q 401 190 401 228 q 383 113 401 150 q 332 47 364 75 q 258 1 300 18 q 172 -17 217 -17 q 65 4 108 -17 q 10 61 21 25 q 20 95 14 76 q 33 132 26 114 q 47 166 40 150 q 60 192 54 182 l 79 192 m 132 -129 q 167 -106 146 -118 q 213 -93 189 -93 q 266 -119 244 -93 q 288 -192 288 -146 q 270 -262 288 -229 q 227 -322 253 -294 q 170 -370 201 -349 q 110 -407 139 -392 l 85 -386 l 85 -372 q 156 -308 126 -346 q 185 -235 185 -271 q 169 -185 185 -207 q 129 -149 153 -162 l 132 -129 z "},"t":{"ha":396,"x_min":50,"x_max":442,"o":"m 354 178 l 371 144 q 311 82 342 111 q 253 31 281 53 q 201 -3 225 10 q 161 -17 178 -17 q 97 8 119 -17 q 81 76 75 33 l 157 553 l 150 558 l 54 563 l 50 569 l 56 610 l 167 628 q 175 687 171 657 q 182 740 179 717 q 189 794 186 768 l 314 843 l 322 826 q 304 765 314 799 q 286 701 296 738 q 267 624 276 664 l 436 625 l 442 621 l 431 565 l 267 567 l 251 558 l 167 132 q 199 83 160 83 q 249 105 218 83 q 336 179 279 126 l 354 178 z "},"ŧ":{"ha":396,"x_min":6,"x_max":442,"o":"m 354 178 l 371 144 q 311 82 342 111 q 253 31 281 53 q 201 -3 225 10 q 161 -17 178 -17 q 97 8 119 -17 q 81 76 75 33 l 121 331 l 18 331 l 6 343 l 15 397 l 132 396 l 157 553 l 150 558 l 54 563 l 50 569 l 56 610 l 167 628 q 175 687 171 657 q 182 740 179 717 q 189 794 186 768 l 314 843 l 322 826 q 304 765 314 799 q 286 701 296 738 q 267 624 276 664 l 436 625 l 442 621 l 431 565 l 267 567 l 251 558 l 219 396 l 356 403 l 374 385 l 368 333 l 206 332 l 167 132 q 199 83 160 83 q 249 105 218 83 q 336 179 279 126 l 354 178 z "},"ţ":{"ha":396,"x_min":31,"x_max":442,"o":"m 161 -17 q 97 8 119 -17 q 81 76 75 33 l 157 553 l 150 558 l 54 563 l 50 569 l 56 610 l 167 628 q 175 687 171 657 q 182 740 179 717 q 189 794 186 768 l 314 843 l 322 826 q 304 765 314 799 q 286 701 296 738 q 267 624 276 664 l 436 625 l 442 621 l 431 565 l 267 567 l 251 558 l 167 132 q 199 83 160 83 q 249 105 218 83 q 336 179 279 126 l 354 178 l 371 144 q 300 72 335 106 q 233 15 265 39 l 194 -69 q 226 -94 208 -81 q 259 -122 244 -107 q 284 -153 274 -136 q 294 -187 294 -169 q 278 -240 294 -215 q 235 -283 261 -264 q 177 -312 208 -301 q 117 -324 146 -324 q 59 -312 88 -324 q 31 -276 31 -300 q 46 -238 31 -262 q 75 -196 61 -214 l 86 -196 q 101 -255 83 -235 q 150 -275 118 -275 q 199 -259 178 -275 q 221 -219 221 -243 q 212 -194 221 -207 q 188 -169 203 -182 q 156 -142 174 -156 q 119 -118 138 -129 l 161 -17 z "},"u":{"ha":675,"x_min":58,"x_max":643,"o":"m 446 317 q 193 -17 322 79 q 103 15 136 -17 q 71 100 71 47 q 78 154 71 119 q 97 230 86 189 q 122 315 108 271 q 147 399 136 360 q 166 470 158 439 q 174 517 174 501 q 115 567 174 567 l 58 567 l 69 619 q 140 620 101 619 q 214 624 179 621 q 294 628 254 625 l 307 611 q 238 407 268 501 q 213 326 225 367 q 190 250 200 286 q 175 185 181 214 q 169 142 169 157 q 211 93 169 93 q 260 123 231 93 q 326 207 290 153 q 402 335 363 261 q 482 497 442 410 l 507 629 l 519 633 l 600 621 l 610 610 q 565 446 586 532 q 527 278 546 371 q 494 89 508 186 l 499 83 q 510 86 504 83 q 527 97 515 89 q 558 122 539 106 q 608 165 576 138 l 625 164 l 643 131 q 567 60 599 89 q 512 15 535 32 q 474 -9 489 -1 q 449 -17 458 -17 q 399 22 399 -17 q 408 83 399 36 q 428 181 417 129 q 458 313 442 240 l 446 317 z "},"ú":{"ha":675,"x_min":58,"x_max":643,"o":"m 446 317 q 193 -17 322 79 q 103 15 136 -17 q 71 100 71 47 q 78 154 71 119 q 97 230 86 189 q 122 315 108 271 q 147 399 136 360 q 166 470 158 439 q 174 517 174 501 q 115 567 174 567 l 58 567 l 69 619 q 140 620 101 619 q 214 624 179 621 q 294 628 254 625 l 307 611 q 238 407 268 501 q 213 326 225 367 q 190 250 200 286 q 175 185 181 214 q 169 142 169 157 q 211 93 169 93 q 260 123 231 93 q 326 207 290 153 q 402 335 363 261 q 482 497 442 410 l 507 629 l 519 633 l 600 621 l 610 610 q 565 446 586 532 q 527 278 546 371 q 494 89 508 186 l 499 83 q 510 86 504 83 q 527 97 515 89 q 558 122 539 106 q 608 165 576 138 l 625 164 l 643 131 q 567 60 599 89 q 512 15 535 32 q 474 -9 489 -1 q 449 -17 458 -17 q 399 22 399 -17 q 408 83 399 36 q 428 181 417 129 q 458 313 442 240 l 446 317 m 588 918 q 514 860 551 890 q 440 798 481 832 q 354 724 399 764 l 342 726 l 314 753 q 388 835 351 793 q 456 914 425 878 q 522 993 490 954 l 536 990 l 589 933 l 588 918 z "},"û":{"ha":675,"x_min":58,"x_max":643,"o":"m 446 317 q 193 -17 322 79 q 103 15 136 -17 q 71 100 71 47 q 78 154 71 119 q 97 230 86 189 q 122 315 108 271 q 147 399 136 360 q 166 470 158 439 q 174 517 174 501 q 115 567 174 567 l 58 567 l 69 619 q 140 620 101 619 q 214 624 179 621 q 294 628 254 625 l 307 611 q 238 407 268 501 q 213 326 225 367 q 190 250 200 286 q 175 185 181 214 q 169 142 169 157 q 211 93 169 93 q 260 123 231 93 q 326 207 290 153 q 402 335 363 261 q 482 497 442 410 l 507 629 l 519 633 l 600 621 l 610 610 q 565 446 586 532 q 527 278 546 371 q 494 89 508 186 l 499 83 q 510 86 504 83 q 527 97 515 89 q 558 122 539 106 q 608 165 576 138 l 625 164 l 643 131 q 567 60 599 89 q 512 15 535 32 q 474 -9 489 -1 q 449 -17 458 -17 q 399 22 399 -17 q 408 83 399 36 q 428 181 417 129 q 458 313 442 240 l 446 317 m 206 764 l 417 976 l 436 976 l 596 764 l 572 733 l 560 732 l 414 867 l 235 732 l 222 733 l 206 764 z "},"ü":{"ha":675,"x_min":58,"x_max":643,"o":"m 446 317 q 193 -17 322 79 q 103 15 136 -17 q 71 100 71 47 q 78 154 71 119 q 97 230 86 189 q 122 315 108 271 q 147 399 136 360 q 166 470 158 439 q 174 517 174 501 q 115 567 174 567 l 58 567 l 69 619 q 140 620 101 619 q 214 624 179 621 q 294 628 254 625 l 307 611 q 238 407 268 501 q 213 326 225 367 q 190 250 200 286 q 175 185 181 214 q 169 142 169 157 q 211 93 169 93 q 260 123 231 93 q 326 207 290 153 q 402 335 363 261 q 482 497 442 410 l 507 629 l 519 633 l 600 621 l 610 610 q 565 446 586 532 q 527 278 546 371 q 494 89 508 186 l 499 83 q 510 86 504 83 q 527 97 515 89 q 558 122 539 106 q 608 165 576 138 l 625 164 l 643 131 q 567 60 599 89 q 512 15 535 32 q 474 -9 489 -1 q 449 -17 458 -17 q 399 22 399 -17 q 408 83 399 36 q 428 181 417 129 q 458 313 442 240 l 446 317 m 507 786 q 469 803 482 786 q 457 839 457 819 q 480 892 457 869 q 535 915 503 915 q 572 899 560 915 q 583 863 583 883 q 561 809 583 832 q 507 786 539 786 m 285 786 q 247 803 260 786 q 235 839 235 819 q 258 892 235 869 q 313 915 281 915 q 349 899 338 915 q 361 863 361 883 q 339 809 361 832 q 285 786 317 786 z "},"ù":{"ha":675,"x_min":58,"x_max":643,"o":"m 446 317 q 193 -17 322 79 q 103 15 136 -17 q 71 100 71 47 q 78 154 71 119 q 97 230 86 189 q 122 315 108 271 q 147 399 136 360 q 166 470 158 439 q 174 517 174 501 q 115 567 174 567 l 58 567 l 69 619 q 140 620 101 619 q 214 624 179 621 q 294 628 254 625 l 307 611 q 238 407 268 501 q 213 326 225 367 q 190 250 200 286 q 175 185 181 214 q 169 142 169 157 q 211 93 169 93 q 260 123 231 93 q 326 207 290 153 q 402 335 363 261 q 482 497 442 410 l 507 629 l 519 633 l 600 621 l 610 610 q 565 446 586 532 q 527 278 546 371 q 494 89 508 186 l 499 83 q 510 86 504 83 q 527 97 515 89 q 558 122 539 106 q 608 165 576 138 l 625 164 l 643 131 q 567 60 599 89 q 512 15 535 32 q 474 -9 489 -1 q 449 -17 458 -17 q 399 22 399 -17 q 408 83 399 36 q 428 181 417 129 q 458 313 442 240 l 446 317 m 240 932 l 293 989 l 307 992 q 374 913 338 953 q 440 835 403 878 q 515 753 478 793 l 488 726 l 475 724 q 388 799 431 764 q 314 860 346 833 q 242 917 275 890 l 240 932 z "},"ű":{"ha":675,"x_min":58,"x_max":679,"o":"m 446 317 q 193 -17 322 79 q 103 15 136 -17 q 71 100 71 47 q 78 154 71 119 q 97 230 86 189 q 122 315 108 271 q 147 399 136 360 q 166 470 158 439 q 174 517 174 501 q 115 567 174 567 l 58 567 l 69 619 q 140 620 101 619 q 214 624 179 621 q 294 628 254 625 l 307 611 q 238 407 268 501 q 213 326 225 367 q 190 250 200 286 q 175 185 181 214 q 169 142 169 157 q 211 93 169 93 q 260 123 231 93 q 326 207 290 153 q 402 335 363 261 q 482 497 442 410 l 507 629 l 519 633 l 600 621 l 610 610 q 565 446 586 532 q 527 278 546 371 q 494 89 508 186 l 499 83 q 510 86 504 83 q 527 97 515 89 q 558 122 539 106 q 608 165 576 138 l 625 164 l 643 131 q 567 60 599 89 q 512 15 535 32 q 474 -9 489 -1 q 449 -17 458 -17 q 399 22 399 -17 q 408 83 399 36 q 428 181 417 129 q 458 313 442 240 l 446 317 m 499 910 q 432 860 468 886 q 363 806 401 836 q 283 742 324 776 l 271 744 l 249 769 q 318 842 283 806 q 381 910 353 879 q 443 979 414 946 l 456 975 l 501 922 l 499 910 m 676 910 q 610 860 646 886 q 540 806 579 836 q 461 742 501 776 l 449 744 l 426 769 q 496 842 461 806 q 558 910 531 879 q 621 979 592 946 l 633 975 l 679 922 l 676 910 z "},"ū":{"ha":675,"x_min":58,"x_max":643,"o":"m 446 317 q 193 -17 322 79 q 103 15 136 -17 q 71 100 71 47 q 78 154 71 119 q 97 230 86 189 q 122 315 108 271 q 147 399 136 360 q 166 470 158 439 q 174 517 174 501 q 115 567 174 567 l 58 567 l 69 619 q 140 620 101 619 q 214 624 179 621 q 294 628 254 625 l 307 611 q 238 407 268 501 q 213 326 225 367 q 190 250 200 286 q 175 185 181 214 q 169 142 169 157 q 211 93 169 93 q 260 123 231 93 q 326 207 290 153 q 402 335 363 261 q 482 497 442 410 l 507 629 l 519 633 l 600 621 l 610 610 q 565 446 586 532 q 527 278 546 371 q 494 89 508 186 l 499 83 q 510 86 504 83 q 527 97 515 89 q 558 122 539 106 q 608 165 576 138 l 625 164 l 643 131 q 567 60 599 89 q 512 15 535 32 q 474 -9 489 -1 q 449 -17 458 -17 q 399 22 399 -17 q 408 83 399 36 q 428 181 417 129 q 458 313 442 240 l 446 317 m 615 893 l 597 828 l 408 826 q 344 826 378 826 q 283 825 311 825 l 217 825 l 210 838 l 231 900 q 304 899 268 899 l 436 899 q 491 899 461 899 q 547 903 521 900 q 610 907 578 904 l 615 893 z "},"ų":{"ha":675,"x_min":58,"x_max":643,"o":"m 569 -247 q 524 -282 549 -265 q 477 -312 503 -297 q 425 -335 451 -326 q 328 -305 365 -335 q 292 -219 292 -275 q 331 -119 292 -168 q 428 -14 369 -69 q 399 22 399 -8 q 408 83 399 36 q 428 181 417 129 q 458 313 442 240 l 446 317 q 193 -17 322 79 q 103 15 136 -17 q 71 100 71 47 q 78 154 71 119 q 97 230 86 189 q 122 315 108 271 q 147 399 136 360 q 166 470 158 439 q 174 517 174 501 q 115 567 174 567 l 58 567 l 69 619 q 140 620 101 619 q 214 624 179 621 q 294 628 254 625 l 307 611 q 238 407 268 501 q 213 326 225 367 q 190 250 200 286 q 175 185 181 214 q 169 142 169 157 q 211 93 169 93 q 260 123 231 93 q 326 207 290 153 q 402 335 363 261 q 482 497 442 410 l 507 629 l 519 633 l 600 621 l 610 610 q 565 446 586 532 q 527 278 546 371 q 494 89 508 186 l 499 83 q 510 86 504 83 q 527 97 515 89 q 558 122 539 106 q 608 165 576 138 l 625 164 l 643 131 q 538 33 586 76 q 454 -47 489 -10 q 400 -118 419 -85 q 381 -186 381 -151 q 399 -234 381 -215 q 449 -253 417 -253 q 487 -249 468 -253 q 521 -237 506 -244 q 556 -221 539 -231 l 569 -247 z "},"ů":{"ha":675,"x_min":58,"x_max":643,"o":"m 446 317 q 193 -17 322 79 q 103 15 136 -17 q 71 100 71 47 q 78 154 71 119 q 97 230 86 189 q 122 315 108 271 q 147 399 136 360 q 166 470 158 439 q 174 517 174 501 q 115 567 174 567 l 58 567 l 69 619 q 140 620 101 619 q 214 624 179 621 q 294 628 254 625 l 307 611 q 238 407 268 501 q 213 326 225 367 q 190 250 200 286 q 175 185 181 214 q 169 142 169 157 q 211 93 169 93 q 260 123 231 93 q 326 207 290 153 q 402 335 363 261 q 482 497 442 410 l 507 629 l 519 633 l 600 621 l 610 610 q 565 446 586 532 q 527 278 546 371 q 494 89 508 186 l 499 83 q 510 86 504 83 q 527 97 515 89 q 558 122 539 106 q 608 165 576 138 l 625 164 l 643 131 q 567 60 599 89 q 512 15 535 32 q 474 -9 489 -1 q 449 -17 458 -17 q 399 22 399 -17 q 408 83 399 36 q 428 181 417 129 q 458 313 442 240 l 446 317 m 408 808 q 428 810 417 808 q 451 819 440 813 q 468 838 461 825 q 475 871 475 850 q 460 913 475 897 q 414 929 444 929 q 365 912 382 929 q 349 867 349 894 q 369 822 349 835 q 408 808 389 808 m 393 756 q 326 782 349 756 q 303 850 303 808 q 339 946 303 908 q 432 983 375 983 q 503 956 482 983 q 524 892 524 928 q 515 841 524 865 q 488 798 506 817 q 447 767 471 779 q 393 756 422 756 z "},"v":{"ha":585,"x_min":6,"x_max":564,"o":"m 206 -15 l 185 1 q 178 121 183 56 q 167 253 174 186 q 153 385 161 321 q 135 503 144 450 q 117 547 129 535 q 78 558 106 558 q 60 557 71 558 q 36 554 49 556 q 6 551 21 553 l 10 604 q 78 614 42 608 q 144 625 114 619 q 215 638 181 631 l 231 624 q 253 369 246 501 q 260 81 261 236 l 272 81 q 414 317 364 211 q 464 481 464 422 q 453 528 464 508 q 431 563 443 549 q 397 590 415 578 l 403 614 l 515 644 q 551 601 539 629 q 564 539 564 574 q 493 325 564 467 q 286 -15 422 183 l 206 -15 z "}}}
